<svg width="200" height="72" viewBox="0 0 200 72" fill="none" xmlns="http://www.w3.org/2000/svg">
<g clip-path="url(#clip0_103_2446)">
<g clip-path="url(#clip1_103_2446)">
<g clip-path="url(#clip2_103_2446)">
<mask id="mask0_103_2446" style="mask-type:luminance" maskUnits="userSpaceOnUse" x="0" y="0" width="200" height="72">
<path d="M200 0H0V72H200V0Z" fill="white"/>
</mask>
<g mask="url(#mask0_103_2446)">
<g opacity="0.8">
<path d="M81.9805 25.6494H86.2922V48.8664H81.9805V25.6494Z" fill="white"/>
<path d="M100.565 30.9563C102.799 30.9563 104.59 31.6086 105.939 32.9132C107.287 34.2178 107.962 36.1525 107.962 38.7174V48.8665H103.816V39.2483C103.816 37.7003 103.451 36.5395 102.721 35.7656C101.992 34.9696 100.952 34.5715 99.6037 34.5715C98.0778 34.5715 96.8726 35.0359 95.9884 35.9646C95.1039 36.8712 94.6614 38.187 94.6614 39.9114V48.8665H90.5156V31.1553H94.4625V33.4439C95.1481 32.6257 96.0105 32.0066 97.0498 31.5865C98.0891 31.1664 99.2609 30.9563 100.565 30.9563Z" fill="white"/>
<path d="M127.823 31.1553L120.227 48.8665H115.949L108.354 31.1553H112.665L118.171 44.2895L123.843 31.1553H127.823Z" fill="white"/>
<path d="M144.92 40.1102C144.92 40.398 144.898 40.8067 144.854 41.3376H130.956C131.2 42.6421 131.83 43.6813 132.847 44.4554C133.886 45.2073 135.169 45.583 136.694 45.583C138.64 45.583 140.243 44.9416 141.504 43.6592L143.726 46.2132C142.93 47.164 141.924 47.8826 140.708 48.3689C139.491 48.8556 138.121 49.0987 136.595 49.0987C134.649 49.0987 132.936 48.7117 131.454 47.9381C129.973 47.164 128.823 46.0914 128.005 44.7206C127.208 43.3277 126.811 41.7575 126.811 40.011C126.811 38.2861 127.198 36.7383 127.972 35.3675C128.767 33.9744 129.862 32.8909 131.255 32.117C132.648 31.3431 134.218 30.9562 135.965 30.9562C137.689 30.9562 139.226 31.3431 140.575 32.117C141.946 32.8688 143.007 33.9413 143.759 35.3343C144.533 36.7052 144.92 38.2974 144.92 40.1102ZM135.965 34.2729C134.638 34.2729 133.51 34.6709 132.582 35.467C131.675 36.2409 131.122 37.2802 130.923 38.5847H140.973C140.796 37.3023 140.254 36.263 139.348 35.467C138.441 34.6709 137.314 34.2729 135.965 34.2729Z" fill="white"/>
<path d="M151.191 33.7423C152.385 31.885 154.486 31.2879 157.493 31.2879V34.6047C157.139 34.5383 156.819 34.5052 156.531 34.5052C154.917 34.5052 153.657 35.2791 152.75 36.2299C151.844 37.1585 151.39 38.5072 151.39 40.2763V48.8665H147.244V31.1553H151.191V33.7423Z" fill="white"/>
<path d="M171.48 47.9047C170.993 48.3026 170.397 48.6012 169.689 48.8001C169.004 48.9995 168.274 49.0987 167.5 49.0987C165.554 49.0987 164.051 48.5903 162.989 47.5732C161.928 46.556 161.397 45.0743 161.397 43.1288V34.6046H158.479V31.2879H161.397V27.2415H165.543V31.2879H170.286V34.6046H165.543V43.0291C165.543 43.8916 165.753 44.5546 166.173 45.0192C166.593 45.4613 167.201 45.6827 167.997 45.6827C168.926 45.6827 169.7 45.4392 170.319 44.9529L171.48 47.9047Z" fill="white"/>
<path fill-rule="evenodd" clip-rule="evenodd" d="M71.1376 37.3265C71.1376 49.0733 61.6154 58.5955 49.8686 58.5955C38.1221 58.5955 28.5996 49.0733 28.5996 37.3265C28.5996 25.58 38.1221 16.0575 49.8686 16.0575C61.6154 16.0575 71.1376 25.58 71.1376 37.3265ZM64.4533 37.3265C64.4533 45.3812 57.9237 51.9108 49.869 51.9108C49.3106 51.9108 48.7593 51.8795 48.2172 51.8186C55.547 51.0484 61.2596 44.8487 61.2596 37.3144C61.2596 29.8183 55.6038 23.6429 48.3268 22.8226C48.8336 22.7694 49.3482 22.7421 49.869 22.7421C57.9237 22.7421 64.4533 29.2718 64.4533 37.3265ZM45.159 47.5995C49.9658 46.7504 53.622 42.474 53.622 37.3265C53.622 32.1788 49.9658 27.9025 45.159 27.0537C45.7407 26.953 46.3388 26.9005 46.9493 26.9005C52.7074 26.9005 57.3753 31.5684 57.3753 37.3265C57.3753 43.0846 52.7074 47.7525 46.9493 47.7525C46.3388 47.7525 45.7407 47.7 45.159 47.5995Z" fill="white"/>
</g>
</g>
</g>
</g>
</g>
<defs>
<clipPath id="clip0_103_2446">
<rect width="200" height="72" fill="white"/>
</clipPath>
<clipPath id="clip1_103_2446">
<rect width="200" height="72" fill="white"/>
</clipPath>
<clipPath id="clip2_103_2446">
<rect width="200" height="72" fill="white"/>
</clipPath>
</defs>
</svg>
