<svg width="16" height="23" viewBox="0 0 16 23" fill="none" xmlns="http://www.w3.org/2000/svg">
<path d="M4.4982 19.0047H11.5018C10.8432 20.5841 9.5794 21.8479 8 22.5065C6.4206 21.8479 5.1568 20.5841 4.4982 19.0047ZM14 13.8094L16 16.0777V18.0047H0V16.0777L2 13.8094V8.00476C2 4.52146 4.5044 1.55816 8 0.459961C11.4956 1.55816 14 4.52146 14 8.00476V13.8094ZM8 10.0047C9.1046 10.0047 10 9.10926 10 8.00476C10 6.90016 9.1046 6.00476 8 6.00476C6.8954 6.00476 6 6.90016 6 8.00476C6 9.10926 6.8954 10.0047 8 10.0047Z" fill="white"/>
</svg>
