<svg width="200" height="72" viewBox="0 0 200 72" fill="none" xmlns="http://www.w3.org/2000/svg">
<g clip-path="url(#clip0_103_2472)">
<g clip-path="url(#clip1_103_2472)">
<g clip-path="url(#clip2_103_2472)">
<mask id="mask0_103_2472" style="mask-type:luminance" maskUnits="userSpaceOnUse" x="0" y="0" width="200" height="72">
<path d="M200 0H0V72H200V0Z" fill="white"/>
</mask>
<g mask="url(#mask0_103_2472)">
<g opacity="0.8">
<path d="M39.8497 56.7068H26.3926L39.8497 36.3568H53.3071L39.8497 56.7068Z" fill="white"/>
<path d="M34.926 15.3508H48.7114L34.926 36.3571H21.1406L34.926 15.3508Z" fill="white"/>
<path d="M80.7607 33.0538C80.7607 34.3016 80.4598 35.4717 79.858 36.5639C79.2787 37.6556 78.3539 38.5359 77.0837 39.2046C75.8356 39.873 74.2535 40.2073 72.3371 40.2073H68.4258V49.1658H63.7461V25.8335H72.3371C74.1421 25.8335 75.6797 26.1455 76.9498 26.7695C78.2204 27.3934 79.1672 28.2514 79.7914 29.3434C80.4377 30.4353 80.7607 31.6722 80.7607 33.0538ZM72.1362 36.43C73.4288 36.43 74.3871 36.1405 75.0113 35.5607C75.6352 34.9593 75.9471 34.1236 75.9471 33.0538C75.9471 30.7808 74.6769 29.6442 72.1362 29.6442H68.4258V36.43H72.1362Z" fill="white"/>
<path d="M87.4258 33.5218C88.0276 32.5413 88.8074 31.7724 89.7656 31.2153C90.7463 30.6582 91.8605 30.3796 93.1086 30.3796V35.2933H91.8715C90.4009 35.2933 89.2867 35.6387 88.529 36.3299C87.7936 37.0207 87.4258 38.2239 87.4258 39.9399V49.1658H82.7461V30.6471H87.4258V33.5218Z" fill="white"/>
<path d="M103.147 49.4667C101.364 49.4667 99.7597 49.0768 98.3336 48.297C96.9074 47.4947 95.7818 46.3691 94.9575 44.9205C94.1552 43.4719 93.7539 41.8008 93.7539 39.9064C93.7539 38.0124 94.1663 36.3409 94.991 34.8924C95.8377 33.4438 96.9854 32.3296 98.434 31.5496C99.8826 30.7473 101.498 30.3462 103.281 30.3462C105.064 30.3462 106.679 30.7473 108.128 31.5496C109.576 32.3296 110.713 33.4438 111.538 34.8924C112.384 36.3409 112.808 38.0124 112.808 39.9064C112.808 41.8008 112.373 43.4719 111.504 44.9205C110.657 46.3691 109.498 47.4947 108.028 48.297C106.579 49.0768 104.952 49.4667 103.147 49.4667ZM103.147 45.3884C103.994 45.3884 104.785 45.1879 105.52 44.787C106.278 44.3636 106.88 43.7394 107.325 42.915C107.771 42.0903 107.994 41.0876 107.994 39.9064C107.994 38.1459 107.526 36.7978 106.59 35.8616C105.676 34.9034 104.551 34.4245 103.214 34.4245C101.877 34.4245 100.751 34.9034 99.8381 35.8616C98.9464 36.7978 98.5009 38.1459 98.5009 39.9064C98.5009 41.6669 98.9354 43.0265 99.8046 43.9847C100.696 44.9205 101.81 45.3884 103.147 45.3884Z" fill="white"/>
<path d="M119.582 45.4553H124.608V49.1657H114.902V22.9586H119.582V45.4553Z" fill="white"/>
<path d="M128.24 28.4407C127.416 28.4407 126.724 28.1845 126.168 27.6719C125.633 27.1371 125.365 26.4797 125.365 25.6997C125.365 24.9197 125.633 24.2734 126.168 23.7609C126.724 23.226 127.416 22.9586 128.24 22.9586C129.065 22.9586 129.744 23.226 130.279 23.7609C130.836 24.2734 131.115 24.9197 131.115 25.6997C131.115 26.4797 130.836 27.1371 130.279 27.6719C129.744 28.1845 129.065 28.4407 128.24 28.4407ZM130.546 30.647V49.1657H125.867V30.647H130.546Z" fill="white"/>
<path d="M144.095 30.3796C146.3 30.3796 148.083 31.0816 149.443 32.4856C150.802 33.8672 151.482 35.8061 151.482 38.3019V49.1658H146.802V38.9372C146.802 37.4662 146.434 36.3409 145.699 35.5607C144.963 34.7585 143.961 34.3575 142.69 34.3575C141.398 34.3575 140.373 34.7585 139.615 35.5607C138.88 36.3409 138.512 37.4662 138.512 38.9372V49.1658H133.832V30.6471H138.512V32.9536C139.136 32.1513 139.927 31.5273 140.885 31.0816C141.866 30.6136 142.935 30.3796 144.095 30.3796Z" fill="white"/>
<path d="M171.809 39.5055C171.809 40.1739 171.765 40.7757 171.676 41.3105H158.138C158.249 42.6476 158.717 43.6949 159.541 44.4526C160.366 45.2104 161.38 45.5893 162.583 45.5893C164.321 45.5893 165.559 44.8425 166.294 43.3495H171.341C170.807 45.1324 169.781 46.603 168.266 47.7621C166.751 48.8984 164.89 49.4667 162.683 49.4667C160.901 49.4667 159.296 49.0768 157.87 48.297C156.466 47.4947 155.363 46.3691 154.561 44.9205C153.781 43.4719 153.391 41.8008 153.391 39.9064C153.391 37.99 153.781 36.3075 154.561 34.8589C155.341 33.4104 156.433 32.2961 157.837 31.5162C159.24 30.7362 160.856 30.3462 162.683 30.3462C164.444 30.3462 166.015 30.725 167.397 31.4827C168.801 32.2404 169.882 33.3212 170.64 34.7254C171.419 36.107 171.809 37.7001 171.809 39.5055ZM166.962 38.1684C166.94 36.9648 166.505 36.0066 165.659 35.2933C164.812 34.558 163.776 34.1905 162.55 34.1905C161.391 34.1905 160.411 34.547 159.608 35.2602C158.828 35.951 158.349 36.9203 158.171 38.1684H166.962Z" fill="white"/>
</g>
</g>
</g>
</g>
</g>
<defs>
<clipPath id="clip0_103_2472">
<rect width="200" height="72" fill="white"/>
</clipPath>
<clipPath id="clip1_103_2472">
<rect width="200" height="72" fill="white"/>
</clipPath>
<clipPath id="clip2_103_2472">
<rect width="200" height="72" fill="white"/>
</clipPath>
</defs>
</svg>
