<svg width="200" height="72" viewBox="0 0 200 72" fill="none" xmlns="http://www.w3.org/2000/svg">
<g clip-path="url(#clip0_103_2460)">
<g clip-path="url(#clip1_103_2460)">
<g clip-path="url(#clip2_103_2460)">
<mask id="mask0_103_2460" style="mask-type:luminance" maskUnits="userSpaceOnUse" x="0" y="0" width="200" height="72">
<path d="M200 0H0V72H200V0Z" fill="white"/>
</mask>
<g mask="url(#mask0_103_2460)">
<g opacity="0.8">
<path d="M82.3589 47.5818C81.8626 47.1564 81.5778 46.7106 81.5515 46.2423L82.3589 47.5818ZM82.3589 47.5818L82.3614 47.5839C82.901 48.0255 83.6613 48.2361 84.6222 48.2361H86.7249H86.8654V48.0956V47.8199V47.6794H86.7249H85.6689L85.3023 47.6127L85.2957 47.6114L85.2886 47.611C85.0701 47.5926 84.8269 47.4446 84.5625 47.1155C84.334 46.7802 84.211 46.2969 84.211 45.648V34.858C84.211 33.7073 83.9169 32.7546 83.3181 32.0118L83.3164 32.0095C82.9244 31.5441 82.3097 31.1999 81.4914 30.9658C80.6911 30.7073 79.6527 30.5805 78.3824 30.5805C77.0829 30.5805 75.8914 31.0303 74.8117 31.9222C73.9484 32.6168 73.2991 33.3611 72.8696 34.1561V30.859V30.7185H72.7286H70.3156H70.1751V30.859V48.0956V48.2361H70.3156H72.7286H72.8696V48.0956V35.8577C72.8696 34.9967 73.4209 33.9973 74.5853 32.8555L74.5865 32.8545C75.7359 31.7051 77.0224 31.1375 78.4512 31.1375C79.1481 31.1375 79.7224 31.2498 80.1803 31.4672C81.0494 31.9354 81.5169 33.024 81.5169 34.8235V45.648V45.6522V45.6563L81.5515 46.2423L82.3589 47.5818ZM68.0019 25.5435L68.1316 25.5933L68.1829 25.4645L68.3209 25.1197L68.3764 24.9813L68.235 24.9342C65.8775 24.1484 63.5529 23.7549 61.2613 23.7549C58.9896 23.7549 57.2602 24.2877 56.0979 25.3782C54.9402 26.4417 54.3638 27.8366 54.3638 29.5491C54.3638 31.7098 55.2601 33.3858 57.0462 34.5612C57.8344 35.0943 58.7027 35.5804 59.6507 36.0197L59.6536 36.0209C60.5961 36.4348 61.5273 36.8372 62.4473 37.2281L62.4486 37.2286C63.3852 37.6171 64.2414 38.0395 65.0163 38.4954C66.7257 39.5074 67.5673 40.9005 67.5673 42.6832C67.5673 44.3164 66.9222 45.5462 65.6314 46.392C64.3486 47.2248 62.7906 47.6448 60.951 47.6448C59.7015 47.6448 58.4746 47.4634 57.2702 47.0997C56.0871 46.7127 55.1266 46.2256 54.3847 45.6409L54.2617 45.5441L54.1783 45.6772L54.006 45.9528L53.9355 46.0659L54.0444 46.1426C56.0712 47.5634 58.5138 48.2707 61.3647 48.2707C62.8915 48.2707 64.2277 48.0973 65.3704 47.7474L65.372 47.7469C66.5493 47.3704 67.549 46.6635 68.3693 45.6321C69.1954 44.5937 69.6066 43.3438 69.6066 41.8905C69.6066 40.4286 69.3631 39.2207 68.8668 38.2749C68.3747 37.3146 67.7279 36.5603 66.9247 36.017C66.1356 35.4833 65.2665 35.0081 64.3169 34.5913C63.3719 34.1764 62.4265 33.8075 61.481 33.4846C60.5669 33.1417 59.7224 32.7764 58.9467 32.3887C57.2373 31.4886 56.4032 30.2331 56.4032 28.6183C56.4032 27.2802 56.9024 26.2429 57.8987 25.49C58.9 24.7333 60.3025 24.3463 62.1233 24.3463C63.9641 24.3463 65.9238 24.7441 68.0019 25.5435ZM87.6019 33.0004C86.0063 34.6195 85.2168 36.8891 85.2168 39.7877C85.2168 42.6837 85.9817 44.8544 87.5381 46.2694C89.0853 47.6756 91.0858 48.3742 93.5276 48.3742C95.9969 48.3742 98.0337 47.5689 99.6256 45.9541C101.245 44.3351 102.045 42.066 102.045 39.1671C102.045 36.2711 101.28 34.1004 99.724 32.6855C98.1764 31.2788 96.1641 30.5805 93.6998 30.5805C91.2527 30.5805 89.2163 31.3861 87.6019 33.0004ZM89.5378 33.4252L89.5386 33.4244C90.6646 31.8931 92.0721 31.1375 93.7687 31.1375C95.4739 31.1375 96.8347 31.7855 97.8644 33.0838C98.8928 34.3804 99.4195 36.3994 99.4195 39.1671C99.4195 41.9069 98.8486 44.034 97.7239 45.5642C96.5983 47.0726 95.1903 47.8174 93.493 47.8174C91.7881 47.8174 90.4269 47.1693 89.3973 45.8711C88.3688 44.5741 87.8421 42.5665 87.8421 39.8221C87.8421 37.0585 88.4136 34.932 89.5378 33.4252ZM125.533 30.9665L125.43 31.0692L125.536 31.1685C125.867 31.4788 126.043 31.942 126.043 32.5827C126.043 33.2296 125.909 33.7791 125.648 34.2366L125.645 34.2419L125.643 34.2475L120.786 44.7643L115.629 30.8103L115.595 30.7185H115.497H113.084H112.883L112.952 30.9074L114.208 34.3348L109.41 44.7639L104.253 30.8103L104.219 30.7185H104.121H101.708H101.506L101.576 30.9081L107.988 48.1448L108.022 48.2361H108.12H108.465H108.555L108.593 48.154L114.519 35.1228L119.364 48.1448L119.398 48.2361H119.496H119.841H119.931L119.969 48.154L126.243 34.3646L126.244 34.3618C126.527 33.703 126.669 33.0522 126.669 32.4103C126.669 32.2386 126.645 32.0573 126.598 31.8672C126.57 31.6556 126.466 31.4313 126.302 31.1962C126.232 31.0797 126.165 30.9825 126.102 30.9069C126.04 30.8326 125.974 30.7692 125.902 30.7333L125.811 30.688L125.74 30.7596L125.533 30.9665Z" fill="white"/>
<path d="M82.3589 47.5818C81.8626 47.1564 81.5778 46.7106 81.5515 46.2423M82.3589 47.5818L81.5515 46.2423M82.3589 47.5818L82.3614 47.5839C82.901 48.0255 83.6613 48.2361 84.6222 48.2361H86.7249H86.8654V48.0956V47.8199V47.6794H86.7249H85.6689L85.3023 47.6127L85.2957 47.6114L85.2886 47.611C85.0701 47.5926 84.8269 47.4446 84.5625 47.1155C84.334 46.7802 84.211 46.2969 84.211 45.648V34.858C84.211 33.7073 83.9169 32.7546 83.3181 32.0118L83.3164 32.0095C82.9244 31.5441 82.3097 31.1999 81.4914 30.9658C80.6911 30.7073 79.6527 30.5805 78.3824 30.5805C77.0829 30.5805 75.8914 31.0303 74.8117 31.9222C73.9484 32.6168 73.2991 33.3611 72.8696 34.1561V30.859V30.7185H72.7286H70.3156H70.1751V30.859V48.0956V48.2361H70.3156H72.7286H72.8696V48.0956V35.8577C72.8696 34.9967 73.4209 33.9973 74.5853 32.8555L74.5865 32.8545C75.7359 31.7051 77.0224 31.1375 78.4512 31.1375C79.1481 31.1375 79.7224 31.2498 80.1803 31.4672C81.0494 31.9354 81.5169 33.024 81.5169 34.8235V45.648V45.6522V45.6563L81.5515 46.2423M68.0019 25.5435L68.1316 25.5933L68.1829 25.4645L68.3209 25.1197L68.3764 24.9813L68.235 24.9342C65.8775 24.1484 63.5529 23.7549 61.2613 23.7549C58.9896 23.7549 57.2602 24.2877 56.0979 25.3782C54.9402 26.4417 54.3638 27.8366 54.3638 29.5491C54.3638 31.7098 55.2601 33.3858 57.0462 34.5612C57.8344 35.0943 58.7027 35.5804 59.6507 36.0197L59.6536 36.0209C60.5961 36.4348 61.5273 36.8372 62.4473 37.2281L62.4486 37.2286C63.3852 37.6171 64.2414 38.0395 65.0163 38.4954C66.7257 39.5074 67.5673 40.9005 67.5673 42.6832C67.5673 44.3164 66.9222 45.5462 65.6314 46.392C64.3486 47.2248 62.7906 47.6448 60.951 47.6448C59.7015 47.6448 58.4746 47.4634 57.2702 47.0997C56.0871 46.7127 55.1266 46.2256 54.3847 45.6409L54.2617 45.5441L54.1783 45.6772L54.006 45.9528L53.9355 46.0659L54.0444 46.1426C56.0712 47.5634 58.5138 48.2707 61.3647 48.2707C62.8915 48.2707 64.2277 48.0973 65.3704 47.7474L65.372 47.7469C66.5493 47.3704 67.549 46.6635 68.3693 45.6321C69.1954 44.5937 69.6066 43.3438 69.6066 41.8905C69.6066 40.4286 69.3631 39.2207 68.8668 38.2749C68.3747 37.3146 67.7279 36.5603 66.9247 36.017C66.1356 35.4833 65.2665 35.0081 64.3169 34.5913C63.3719 34.1764 62.4265 33.8075 61.481 33.4846C60.5669 33.1417 59.7224 32.7764 58.9467 32.3887C57.2373 31.4886 56.4032 30.2331 56.4032 28.6183C56.4032 27.2802 56.9024 26.2429 57.8987 25.49C58.9 24.7333 60.3025 24.3463 62.1233 24.3463C63.9641 24.3463 65.9238 24.7441 68.0019 25.5435ZM87.6019 33.0004C86.0063 34.6195 85.2168 36.8891 85.2168 39.7877C85.2168 42.6837 85.9817 44.8544 87.5381 46.2694C89.0853 47.6756 91.0858 48.3742 93.5276 48.3742C95.9969 48.3742 98.0337 47.5689 99.6256 45.9541C101.245 44.3351 102.045 42.066 102.045 39.1671C102.045 36.2711 101.28 34.1004 99.724 32.6855C98.1764 31.2788 96.1641 30.5805 93.6998 30.5805C91.2527 30.5805 89.2163 31.3861 87.6019 33.0004ZM89.5378 33.4252L89.5386 33.4244C90.6646 31.8931 92.0721 31.1375 93.7687 31.1375C95.4739 31.1375 96.8347 31.7855 97.8644 33.0838C98.8928 34.3804 99.4195 36.3994 99.4195 39.1671C99.4195 41.9069 98.8486 44.034 97.7239 45.5642C96.5983 47.0726 95.1903 47.8174 93.493 47.8174C91.7881 47.8174 90.4269 47.1693 89.3973 45.8711C88.3688 44.5741 87.8421 42.5665 87.8421 39.8221C87.8421 37.0585 88.4135 34.932 89.5378 33.4252ZM125.533 30.9665L125.43 31.0692L125.536 31.1685C125.867 31.4788 126.043 31.942 126.043 32.5827C126.043 33.2296 125.909 33.7791 125.648 34.2366L125.645 34.2419L125.643 34.2475L120.786 44.7643L115.629 30.8103L115.595 30.7185H115.497H113.084H112.883L112.952 30.9074L114.208 34.3348L109.41 44.7639L104.253 30.8103L104.219 30.7185H104.121H101.708H101.506L101.576 30.9081L107.988 48.1448L108.022 48.2361H108.12H108.465H108.555L108.593 48.154L114.519 35.1228L119.364 48.1448L119.398 48.2361H119.496H119.841H119.931L119.969 48.154L126.243 34.3646L126.244 34.3618C126.527 33.703 126.669 33.0522 126.669 32.4103C126.669 32.2386 126.645 32.0573 126.598 31.8672C126.57 31.6556 126.466 31.4313 126.302 31.1962C126.232 31.0797 126.165 30.9825 126.102 30.9069C126.04 30.8326 125.974 30.7692 125.902 30.7333L125.811 30.688L125.74 30.7596L125.533 30.9665Z" stroke="white" stroke-width="0.281209"/>
<path d="M132.009 24.2135C132.656 23.2218 133.706 22.4536 135.162 22.3856L134.858 45.8877V45.8894C134.858 46.1021 134.924 46.3306 135.045 46.5729C135.611 47.7052 136.961 48.236 138.997 48.236H140.066H140.207V48.0955V47.8198V47.6793H140.066H139.01L138.643 47.6126L138.637 47.6113L138.63 47.6109C138.411 47.5926 138.168 47.4445 137.904 47.1155C137.675 46.7802 137.552 46.2968 137.552 45.6479V22.2751V22.1368L137.414 22.1345L135.307 22.1001L135.166 22.0978V22.1019C132.807 22.1444 131.062 22.6991 129.966 23.7954C128.846 24.892 128.304 26.7199 128.304 29.2387V30.7184H127.721H127.58V30.859V31.416V31.5566H127.721H128.304V48.0955V48.236H128.445H130.858H130.998V48.0955V31.5566H133.581H133.721V31.416V30.859V30.7184H133.581H130.998V29.2387C130.998 26.8781 131.343 25.2129 132.009 24.2147V24.2135ZM150.366 39.6689C149.896 39.6312 149.38 39.6125 148.818 39.6125C148.193 39.6125 147.511 39.6472 146.773 39.7163C145.286 39.8086 144.056 39.9818 143.085 40.2376C142.116 40.493 141.392 40.8341 140.93 41.2713C140.486 41.6919 140.2 42.093 140.098 42.4747C140.003 42.8291 139.955 43.1632 139.955 43.4764C139.955 43.7595 139.979 44.0427 140.026 44.3255C140.225 45.6604 140.747 46.6788 141.603 47.3611C142.457 48.0421 143.627 48.3741 145.094 48.3741C146.355 48.3741 147.452 48.1143 148.379 47.5888C149.17 47.1401 149.832 46.5012 150.366 45.6754V45.8894C150.366 46.3189 150.669 46.7906 151.2 47.299C151.818 47.9387 152.937 48.236 154.506 48.236H155.574H155.715V48.0955V47.8198V47.6793H155.574H154.518L154.152 47.6126L154.145 47.6113L154.138 47.6109C153.919 47.5926 153.677 47.4445 153.412 47.1155C153.183 46.7802 153.06 46.2968 153.06 45.6479V34.0995C153.06 33.3223 152.744 32.5893 152.129 31.903C151.725 31.4507 151.117 31.1212 150.32 30.9043C149.522 30.6873 148.526 30.5805 147.335 30.5805C145.199 30.5805 143.099 31.0566 141.037 32.0068L140.897 32.071L140.974 32.2043L141.111 32.4456L141.181 32.5671L141.303 32.4982C141.815 32.2085 142.629 31.9134 143.752 31.6154L143.753 31.6149C144.895 31.2953 145.881 31.1375 146.715 31.1375C147.554 31.1375 148.223 31.2512 148.727 31.4706L148.732 31.4726C149.248 31.6745 149.586 31.9139 149.771 32.1801C149.971 32.4693 150.126 32.7686 150.237 33.0781L150.239 33.084L150.241 33.0897C150.373 33.3741 150.406 33.593 150.37 33.757C150.346 33.8517 150.332 33.9361 150.332 34.0047C150.332 34.0391 150.335 34.078 150.349 34.1152C150.353 34.1272 150.359 34.1397 150.366 34.1521V39.6689ZM142.718 44.2917V44.2896C142.695 44.0631 142.684 43.8613 142.684 43.6832C142.684 42.6965 142.942 41.9412 143.44 41.3996C143.682 41.1364 144.074 40.9049 144.632 40.7134C145.188 40.5225 145.898 40.3747 146.765 40.272C147.38 40.2037 147.996 40.1695 148.611 40.1695C149.206 40.1695 149.791 40.1892 150.366 40.2288V44.2629C150.3 44.9881 149.805 45.7709 148.829 46.61C147.889 47.4166 146.829 47.8173 145.646 47.8173C144.761 47.8173 144.088 47.5258 143.608 46.9536C143.123 46.376 142.82 45.4953 142.718 44.2917ZM158.646 22.2406V22.1001H158.505H156.092H155.952V22.2406V48.0955V48.236H156.092H158.505H158.646V48.0955V39.8402L159.422 38.9487L165.697 48.1747L165.739 48.236H165.814H168.227H168.492L168.343 48.0167L160.993 37.2134L166.54 30.9522L166.747 30.7184H166.434H166.09H166.027L165.984 30.7657L158.646 39.038V22.2406ZM181.749 46.8682L181.695 46.7439L181.569 46.7923C179.795 47.4745 177.767 47.8173 175.483 47.8173C173.897 47.8173 172.617 47.1726 171.631 45.8739C170.67 44.5769 170.177 42.5228 170.177 39.6841C170.177 39.0672 170.207 38.4706 170.266 37.8943H182.447H182.587V37.7536V37.7523V37.751V37.7496V37.7483V37.7469V37.7455V37.7442V37.7429V37.7415V37.7402V37.7388V37.7375V37.7361V37.7348V37.7334V37.7321V37.7307V37.7294V37.7281V37.7267V37.7254V37.724V37.7227V37.7213V37.72V37.7186V37.7173V37.7159V37.7146V37.7132V37.7119V37.7106V37.7092V37.7078V37.7065V37.7052V37.7038V37.7025V37.7011V37.6998V37.6984V37.6971V37.6957V37.6944V37.693V37.6917V37.6904V37.689V37.6877V37.6863V37.6849V37.6836V37.6823V37.6809V37.6796V37.6782V37.6769V37.6755V37.6742V37.6729V37.6715V37.6701V37.6688V37.6675V37.6661V37.6648V37.6634V37.662V37.6607V37.6594V37.658V37.6567V37.6553V37.654V37.6526V37.6513V37.65V37.6486V37.6472V37.6459V37.6446V37.6432V37.6419V37.6405V37.6392V37.6378V37.6365V37.6351V37.6338V37.6324V37.6311V37.6298V37.6284V37.6271V37.6257V37.6243V37.623V37.6217V37.6203V37.619V37.6176V37.6163V37.6149V37.6136V37.6123V37.6109V37.6095V37.6082V37.6069V37.6055V37.6042V37.6028V37.6015V37.6001V37.5988V37.5974V37.5961V37.5947V37.5934V37.592V37.5907V37.5894V37.588V37.5866V37.5853V37.584V37.5826V37.5813V37.5799V37.5786V37.5772V37.5759V37.5746V37.5732V37.5718V37.5705V37.5691V37.5678V37.5665V37.5651V37.5638V37.5624V37.5611V37.5597V37.5584V37.557V37.5557V37.5543V37.553V37.5517V37.5503V37.5489V37.5476V37.5463V37.5449V37.5436V37.5422V37.5409V37.5395V37.5382V37.5369V37.5355V37.5341V37.5328V37.5314V37.5301V37.5288V37.5274V37.5261V37.5247V37.5234V37.522V37.5207V37.5193V37.518V37.5166V37.5153V37.514V37.5126V37.5112V37.5099V37.5085V37.5072V37.5059V37.5045V37.5032V37.5018V37.5005V37.4991V37.4978V37.4964V37.4951V37.4937V37.4924V37.4911V37.4897V37.4884V37.487V37.4857V37.4843V37.483V37.4816V37.4803V37.4789V37.4776V37.4763V37.4749V37.4735V37.4722V37.4708V37.4695V37.4682V37.4668V37.4655V37.4641V37.4628V37.4614V37.4601V37.4587V37.4574V37.456V37.4547V37.4534V37.452V37.4507V37.4493V37.4479V37.4466V37.4453V37.4439V37.4426V37.4412V37.4399V37.4385V37.4372V37.4358V37.4345V37.4331V37.4318V37.4305V37.4291V37.4278V37.4264V37.425V37.4237V37.4224V37.421V37.4197V37.4183V37.417V37.4156V37.4143V37.413V37.4116V37.4102V37.4089C182.587 35.1746 181.935 33.4646 180.609 32.3045C179.293 31.1536 177.674 30.5805 175.759 30.5805C173.379 30.5805 171.411 31.387 169.866 33.0025C168.317 34.6218 167.551 36.8902 167.551 39.7876C167.551 42.6819 168.281 44.8518 169.767 46.2668C171.245 47.6747 173.155 48.3741 175.483 48.3741C177.819 48.3741 179.916 48.0158 181.774 47.296L181.909 47.2435L181.852 47.1096L181.749 46.8682ZM178.716 32.6693C179.498 33.6687 179.92 35.2167 179.96 37.3373H170.336C170.621 35.4103 171.249 33.9064 172.21 32.814C173.222 31.6891 174.358 31.1375 175.621 31.1375C176.886 31.1375 177.915 31.6452 178.716 32.6693Z" fill="white" stroke="white" stroke-width="0.281209"/>
<path d="M185.628 21.8788V22.7895H184.593V25.5604H183.61V22.7895H182.574V21.8788H185.628Z" fill="white"/>
<path d="M189.663 21.8235V25.5768H188.68V23.7554L187.96 24.6109H187.666L186.946 23.7554V25.5768H185.963V21.8235H186.31L187.813 23.4242L189.316 21.8235H189.663Z" fill="white"/>
<path fill-rule="evenodd" clip-rule="evenodd" d="M27.2183 42.0989L27.2033 53.9356L29.7055 53.939L29.7206 42.0469L34.2852 53.0282L36.5957 52.0677L32.0625 41.1619L40.4028 49.5238L42.1744 47.7564L33.7983 39.3589L44.7534 43.9054L45.7122 41.5942L34.756 37.0472H46.6184V34.545H34.7845L45.7226 30.0276L44.7671 27.7148L33.876 32.2129L42.2507 23.9237L40.4908 22.1453L32.0119 30.5373L36.5811 19.5173L34.2695 18.5589L29.7365 29.492L29.7515 17.6565L27.2493 17.6533L27.2342 29.5464L22.6691 18.5643L20.3586 19.5247L24.8914 30.4294L16.5516 22.0684L14.78 23.8355L23.1564 32.2332L12.2012 27.6866L11.2421 29.9977L22.1989 34.545H10.3359V37.0472H22.1707L11.2323 41.5648L12.1874 43.8775L23.0782 39.3797L14.7036 47.6688L16.4638 49.447L24.9422 41.0554L20.3734 52.0748L22.6848 53.0332L27.2183 42.0989Z" fill="white"/>
</g>
</g>
</g>
</g>
</g>
<defs>
<clipPath id="clip0_103_2460">
<rect width="200" height="72" fill="white"/>
</clipPath>
<clipPath id="clip1_103_2460">
<rect width="200" height="72" fill="white"/>
</clipPath>
<clipPath id="clip2_103_2460">
<rect width="200" height="72" fill="white"/>
</clipPath>
</defs>
</svg>
