<svg width="21" height="22" viewBox="0 0 21 22" fill="none" xmlns="http://www.w3.org/2000/svg">
<path d="M4.71342 7.1281L4.46683 7.6938C4.28643 8.1079 3.71362 8.1079 3.53312 7.6938L3.28662 7.1281C2.84712 6.1195 2.05542 5.3164 1.06772 4.8771L0.308025 4.5392C-0.102675 4.3565 -0.102675 3.7588 0.308025 3.5761L1.02522 3.2571C2.03842 2.8065 2.84422 1.9737 3.27612 0.930799L3.52933 0.3195C3.70583 -0.1065 4.29422 -0.1065 4.47062 0.3195L4.72382 0.930799C5.15583 1.9737 5.96162 2.8065 6.97482 3.2571L7.69192 3.5761C8.10273 3.7588 8.10273 4.3565 7.69192 4.5392L6.93232 4.8771C5.94452 5.3164 5.15292 6.1195 4.71342 7.1281ZM3.06362 21.6132C4.08852 15.422 6.31112 1.9966 21 1.9966C19.5042 4.9966 18.5 6.4966 17.5 7.4966L16.5 8.4966L18 9.4966C17 12.4966 14 15.9966 10 16.4966C7.33152 16.8301 5.66422 18.6635 4.99822 21.9966H3.00002C3.02072 21.8722 3.04192 21.7443 3.06362 21.6132Z" fill="white"/>
</svg>
