<svg width="200" height="72" viewBox="0 0 200 72" fill="none" xmlns="http://www.w3.org/2000/svg">
<g clip-path="url(#clip0_103_2503)">
<g clip-path="url(#clip1_103_2503)">
<g opacity="0.8">
<path d="M41.045 19.6667L22.5527 41.8577H39.1958L37.3466 56.6513L55.8389 34.4606H39.1958L41.045 19.6667Z" fill="white"/>
<path d="M82.0186 35.1348V41.9802H72.1448V51.356H64.3867V23.5599H84.0929V30.4052H72.1448V35.1348H82.0186Z" fill="white"/>
<path d="M94.9133 23.5602V51.3562H87.7773V23.5602H94.9133Z" fill="white"/>
<path d="M106.687 29.5757C107.793 29.5757 108.871 29.8246 109.922 30.3224C111.001 30.7926 111.886 31.4011 112.578 32.1478V30.1979H119.714V51.3561H112.578V47.83C112.052 48.9915 111.25 49.9734 110.172 50.7755C109.093 51.5777 107.793 51.9786 106.272 51.9786C104.695 51.9786 103.215 51.5777 101.833 50.7755C100.45 49.9734 99.3156 48.7427 98.4309 47.0831C97.5734 45.3959 97.1445 43.2801 97.1445 40.7356C97.1445 38.357 97.5734 36.338 98.4309 34.6785C99.3156 33.0191 100.478 31.7606 101.916 30.9032C103.382 30.0182 104.972 29.5757 106.687 29.5757ZM108.18 36.5455C107.157 36.5455 106.299 36.9603 105.608 37.79C104.944 38.6198 104.612 39.6016 104.612 40.7356C104.612 41.8698 104.958 42.824 105.649 43.5981C106.341 44.3726 107.254 44.76 108.388 44.76C108.996 44.76 109.618 44.6076 110.255 44.3035C110.89 43.9717 111.43 43.4875 111.872 42.8516C112.343 42.1877 112.578 41.3441 112.578 40.3208V38.2879C111.969 37.79 111.278 37.3752 110.503 37.0433C109.757 36.7114 108.982 36.5455 108.18 36.5455Z" fill="white"/>
<path d="M130.782 29.5757C132.165 29.5757 133.437 29.7831 134.599 30.1979C135.788 30.5852 136.742 31.1245 137.461 31.8159V37.4167C136.742 36.9741 135.926 36.5593 135.014 36.1721C134.101 35.7572 133.119 35.5497 132.068 35.5497C131.404 35.5497 130.81 35.6881 130.284 35.9646C129.786 36.2135 129.537 36.6146 129.537 37.1677C129.537 37.555 129.69 37.8454 129.994 38.039C130.298 38.2326 130.893 38.44 131.778 38.6613L133.064 38.9932C136.742 39.9336 138.581 41.9112 138.581 44.9259C138.581 46.3086 138.167 47.5393 137.337 48.6183C136.535 49.6693 135.47 50.4987 134.143 51.1073C132.842 51.6883 131.432 51.9786 129.911 51.9786C128.334 51.9786 126.868 51.7574 125.513 51.3147C124.158 50.8447 122.996 50.2775 122.028 49.614V44.0546C123.024 44.6629 124.144 45.1747 125.389 45.5894C126.661 46.0045 127.795 46.2119 128.791 46.2119C129.593 46.2119 130.174 46.1151 130.533 45.9216C130.92 45.728 131.114 45.3821 131.114 44.8844C131.114 44.497 130.893 44.2067 130.45 44.0132C130.007 43.792 129.372 43.5428 128.542 43.2663L126.426 42.6024C124.877 42.1324 123.743 41.3994 123.024 40.4037C122.305 39.3804 121.945 38.1358 121.945 36.6699C121.945 35.204 122.332 33.9456 123.107 32.8946C123.881 31.8436 124.932 31.0277 126.26 30.4469C127.615 29.8661 129.122 29.5757 130.782 29.5757Z" fill="white"/>
<path d="M153.301 29.5756C155.459 29.5756 157.215 30.3085 158.57 31.7743C159.953 33.2402 160.644 35.4114 160.644 38.2878V51.356H153.509L153.467 39.4079C153.467 38.3569 153.177 37.624 152.596 37.2091C152.015 36.7666 151.365 36.5454 150.646 36.5454C149.872 36.5454 149.222 36.7528 148.696 37.1676C148.171 37.5549 147.714 38.025 147.327 38.5782V51.356H140.191V23.5599H147.327V32.936C147.991 32.0233 148.793 31.235 149.733 30.5712C150.701 29.9074 151.891 29.5756 153.301 29.5756Z" fill="white"/>
<path d="M160.284 23.7219V24.6046H159.222V27.2902H158.213V24.6046H157.15V23.7219H160.284Z" fill="white"/>
<path d="M164.426 23.6683V27.3062H163.418V25.5408L162.679 26.37H162.377L161.638 25.5408V27.3062H160.629V23.6683H160.985L162.528 25.2198L164.07 23.6683H164.426Z" fill="white"/>
</g>
</g>
</g>
<defs>
<clipPath id="clip0_103_2503">
<rect width="200" height="72" fill="white"/>
</clipPath>
<clipPath id="clip1_103_2503">
<rect width="200" height="72" fill="white"/>
</clipPath>
</defs>
</svg>
