<svg width="24" height="25" viewBox="0 0 24 25" fill="none" xmlns="http://www.w3.org/2000/svg">
<g clip-path="url(#clip0_203_4341)">
<g clip-path="url(#clip1_203_4341)">
<path d="M12.0004 15.48C10.4091 15.48 8.88291 14.8479 7.75769 13.7226C6.63247 12.5974 6.00033 11.0713 6.00033 9.47998C6.00033 7.88868 6.63247 6.36256 7.75769 5.23734C8.88291 4.11212 10.4091 3.47998 12.0004 3.47998C13.5917 3.47998 15.1178 4.11212 16.243 5.23734C17.3682 6.36256 18.0004 7.88868 18.0004 9.47998C18.0004 11.0713 17.3682 12.5974 16.243 13.7226C15.1178 14.8479 13.5917 15.48 12.0004 15.48ZM12.0004 15.48L15.4004 21.37L16.9984 18.137L20.5964 18.369L17.1964 12.48M6.80234 12.48L3.40234 18.37L7.00034 18.137L8.59834 21.369L11.9984 15.48" stroke="#F2AE40" stroke-width="2" stroke-linecap="round" stroke-linejoin="round"/>
</g>
</g>
<defs>
<clipPath id="clip0_203_4341">
<rect width="24" height="24" fill="white" transform="translate(0 0.47998)"/>
</clipPath>
<clipPath id="clip1_203_4341">
<rect width="24" height="24" fill="white" transform="translate(0 0.47998)"/>
</clipPath>
</defs>
</svg>
