<svg width="21" height="12" viewBox="0 0 21 12" fill="none" xmlns="http://www.w3.org/2000/svg">
<path d="M6.06074 0C7.66815 0 9.20972 0.62081 10.3463 1.72584C11.4829 2.83088 12.1215 4.32963 12.1215 5.89242C12.1215 7.45512 11.4829 8.95392 10.3463 10.0589C9.20972 11.164 7.66815 11.7848 6.06074 11.7848C4.45333 11.7848 2.91176 11.164 1.77515 10.0589C0.63854 8.95392 0 7.45512 0 5.89242C0 4.32963 0.63854 2.83088 1.77515 1.72584C2.91176 0.62081 4.45333 0 6.06074 0ZM15.1518 0.98207C16.667 0.98207 17.6772 3.18091 17.6772 5.89242C17.6772 8.60382 16.667 10.8027 15.1518 10.8027C13.6367 10.8027 12.6265 8.60382 12.6265 5.89242C12.6265 3.18091 13.6367 0.98207 15.1518 0.98207ZM19.1923 1.4731C19.5762 1.4731 19.9115 2.28527 20.0812 3.67882L20.1287 4.11387L20.1479 4.34466L20.1782 4.8298L20.1883 5.08415L20.2004 5.61545L20.2025 5.89242L20.2004 6.16932L20.1883 6.70062L20.1782 6.95592L20.1479 7.44012L20.1277 7.67092L20.0823 8.10592C19.9115 9.50052 19.5772 10.3117 19.1923 10.3117C18.8085 10.3117 18.4731 9.49952 18.3034 8.10592L18.256 7.67092C18.249 7.59402 18.2426 7.51712 18.2368 7.44012L18.2065 6.95502C18.2026 6.87022 18.1992 6.78542 18.1964 6.70062L18.1842 6.16932V5.61545L18.1964 5.08415L18.2065 4.82881L18.2368 4.34466L18.257 4.11387L18.3024 3.67882C18.4731 2.28429 18.8075 1.4731 19.1923 1.4731Z" fill="white"/>
</svg>
