<svg width="18" height="15" viewBox="0 0 18 15" fill="none" xmlns="http://www.w3.org/2000/svg">
<path d="M17.0944 1.73686C16.4652 2.04081 15.787 2.24055 15.0842 2.33608C15.8033 1.87581 16.359 1.14633 16.6204 0.269213C15.9422 0.703432 15.1905 1.00738 14.3978 1.18106C13.7523 0.434215 12.8453 0 11.8157 0C9.89542 0 8.32657 1.66739 8.32657 3.72557C8.32657 4.02084 8.35926 4.30742 8.41646 4.57663C5.50747 4.42031 2.91716 2.9353 1.19301 0.686062C0.890677 1.23317 0.719077 1.87581 0.719077 2.55319C0.719077 3.84715 1.33193 4.99348 2.2798 5.6448C1.69964 5.6448 1.16033 5.47112 0.686387 5.21059V5.23664C0.686387 7.04298 1.89575 8.55405 3.49733 8.89274C2.98313 9.04229 2.4433 9.0631 1.92026 8.95353C2.1422 9.69381 2.57686 10.3416 3.16313 10.8058C3.74941 11.27 4.45782 11.5273 5.18879 11.5414C3.94971 12.5839 2.41381 13.1474 0.833477 13.1394C0.555647 13.1394 0.277825 13.122 0 13.0873C1.55255 14.1467 3.39927 14.7633 5.37673 14.7633C11.8157 14.7633 15.3539 9.08379 15.3539 4.15979C15.3539 3.99478 15.3539 3.83846 15.3457 3.67346C16.0321 3.1524 16.6204 2.4924 17.0944 1.73686Z" fill="white"/>
</svg>
