<svg width="106" height="32" viewBox="0 0 106 32" fill="none" xmlns="http://www.w3.org/2000/svg">
<g clip-path="url(#clip0_138_2455)">
<g clip-path="url(#clip1_138_2455)">
<mask id="mask0_138_2455" style="mask-type:luminance" maskUnits="userSpaceOnUse" x="1" y="0" width="104" height="32">
<path d="M1.50585 0.725342H104.496V31.7556H1.50488L1.50585 0.725342Z" fill="white"/>
</mask>
<g mask="url(#mask0_138_2455)">
<path d="M15.2969 5.8084L13.1354 5.22949L11.3143 12.0387L9.66877 5.89083L7.50731 6.4707L9.28477 13.1131L4.8581 8.68064L3.27556 10.2651L8.13083 15.1282L2.08477 13.5059L1.50586 15.6712L8.11144 17.4438C7.95775 16.7866 7.95454 16.1032 8.10204 15.4446C8.24954 14.786 8.54393 14.1692 8.96323 13.6404C9.38253 13.1115 9.9159 12.6842 10.5235 12.3904C11.1311 12.0966 11.7973 11.9439 12.4722 11.9437C13.1465 11.944 13.8121 12.0965 14.4193 12.3899C15.0265 12.6833 15.5597 13.11 15.979 13.6382C16.3983 14.1664 16.6929 14.7824 16.8409 15.4403C16.989 16.0983 16.9865 16.7811 16.8339 17.438L22.8373 19.0486L23.4162 16.8833L16.7834 15.1039L22.8305 13.4806L22.2516 11.3153L15.6188 13.0957L20.0455 8.66222L18.4629 7.07676L13.6756 11.8719L15.2969 5.80937V5.8084Z" fill="#414D48"/>
<path d="M16.8293 17.4622C16.6464 18.2338 16.2619 18.9429 15.7151 19.517L20.0651 23.8729L21.6477 22.2884L16.8293 17.4622ZM15.6714 19.5645C15.1207 20.1287 14.4305 20.5371 13.6709 20.7485L15.2535 26.6647L17.4159 26.0848L15.6714 19.5645ZM13.5885 20.7708C12.8294 20.9663 12.0322 20.959 11.2768 20.7495L9.69228 26.6714L11.8547 27.2513L13.5885 20.7708ZM11.2002 20.7262C10.4512 20.5039 9.77356 20.0893 9.23459 19.5238L4.87483 23.8923L6.45737 25.4777L11.1992 20.7272L11.2002 20.7262ZM9.19968 19.486C8.66692 18.9157 8.29252 18.216 8.11362 17.4564L2.0918 19.0729L2.67071 21.2382L9.19968 19.486ZM94.0336 24.9599V8.36841H97.1454V15.8128L96.9679 15.326C97.3015 14.5076 97.7825 13.8695 98.4089 13.4128C99.0421 12.956 99.8043 12.7272 100.695 12.7272C101.572 12.7272 102.29 12.9376 102.846 13.3575C103.403 13.7784 103.817 14.3602 104.088 15.1049C104.36 15.8496 104.496 16.7088 104.496 17.6824V24.9599H101.384V18.0693C101.384 17.0889 101.263 16.3694 101.019 15.9127C100.775 15.4472 100.315 15.2154 99.6404 15.2154C98.8259 15.2154 98.2062 15.5442 97.7825 16.1997C97.3577 16.8562 97.1454 17.8404 97.1454 19.1534V24.9599H94.0336ZM86.7337 25.2479C85.5507 25.2479 84.5238 24.9929 83.654 24.4848C82.791 23.9757 82.1257 23.2533 81.6593 22.3165C81.1939 21.3798 80.9602 20.2666 80.9602 18.9769C80.9602 17.693 81.1929 16.5837 81.6593 15.647C82.1257 14.7112 82.791 13.9917 83.654 13.4904C84.517 12.9813 85.54 12.7272 86.724 12.7272C87.5735 12.7272 88.3628 12.8891 89.094 13.214C89.8232 13.5369 90.4616 14.0345 90.9529 14.6627C91.4668 15.2969 91.8188 16.0862 92.007 17.0297L89.063 17.693C88.9097 16.8455 88.6314 16.2113 88.2271 15.7914C87.8237 15.3638 87.3156 15.1495 86.7027 15.1495C85.861 15.1495 85.2346 15.5034 84.8234 16.2113C84.42 16.9192 84.2183 17.8559 84.2183 19.0205C84.2183 20.1784 84.42 21.1034 84.8234 21.7968C85.2268 22.4824 85.8571 22.8247 86.7134 22.8247C87.3049 22.8247 87.8023 22.6375 88.2067 22.2622C88.6169 21.8782 88.9165 21.2954 89.1047 20.5139L91.9556 21.0782C91.8159 21.8007 91.5754 22.4271 91.2341 22.9585C90.8937 23.4821 90.4826 23.9127 90.0026 24.252C89.5317 24.5826 89.0095 24.8329 88.4569 24.9929C87.8987 25.1629 87.3173 25.2488 86.7337 25.2479ZM73.8717 25.2479C72.7653 25.2479 71.7694 24.9929 70.885 24.4848C70.0084 23.9757 69.3122 23.2533 68.7973 22.3165C68.2891 21.373 68.0351 20.2598 68.0351 18.9769C68.0351 17.7008 68.2853 16.5944 68.7866 15.6586C69.2947 14.7219 69.9842 13.9994 70.854 13.4904C71.7316 12.9813 72.7303 12.7272 73.8503 12.7272C74.4709 12.7272 75.0964 12.8271 75.7306 13.0259C76.3706 13.2247 76.9592 13.5786 77.4954 14.0877C78.0307 14.589 78.4622 15.293 78.79 16.1997C79.1168 17.0996 79.2806 18.2496 79.2806 19.6518H70.0297V17.7706H76.5025L76.1796 18.3573C76.1233 17.5602 75.9846 16.9192 75.7616 16.4324C75.5386 15.9456 75.2574 15.5917 74.916 15.3706C74.5741 15.1491 74.1743 15.0338 73.767 15.039C73.2171 15.039 72.7585 15.2048 72.389 15.5364C72.0205 15.868 71.7413 16.3325 71.5541 16.9299C71.3728 17.5204 71.2826 18.206 71.2826 18.9876C71.2826 20.1667 71.4911 21.0996 71.909 21.7861C72.3337 22.4717 72.9805 22.814 73.8503 22.814C74.4147 22.814 74.8976 22.6588 75.302 22.3495C75.7131 22.0402 76.0263 21.5679 76.2426 20.9337L79.0615 21.6969C78.7968 22.5231 78.3963 23.198 77.86 23.7216C77.3356 24.2382 76.7049 24.6343 76.0118 24.8823C75.3246 25.1257 74.6007 25.2493 73.8717 25.2479ZM64.1301 24.9619C63.2952 24.9619 62.6513 24.7485 62.1985 24.3199C61.7524 23.8845 61.5294 23.262 61.5294 22.4504V15.4278H59.9226V13.0171H61.5303V10.6724L64.6421 9.87629V13.0171H66.7299V15.4278H64.6421V21.9316C64.6421 22.175 64.6731 22.3408 64.7362 22.43C64.805 22.5105 64.9476 22.5512 65.1638 22.5512H66.8869V24.9628L64.1301 24.9619ZM47.8945 24.9599V13.0152H50.9015V15.7691L50.8288 15.2707C51.1691 14.4824 51.653 13.8627 52.2794 13.4128C52.9059 12.956 53.6613 12.7272 54.5456 12.7272C55.4222 12.7272 56.1398 12.9376 56.6964 13.3575C57.2598 13.7784 57.6777 14.3602 57.9493 15.1049C58.2208 15.8496 58.3565 16.7088 58.3565 17.6824V24.9599H55.2448V17.8928C55.2448 17.0443 55.1129 16.3878 54.8482 15.9243C54.5834 15.452 54.1248 15.2164 53.4702 15.2164C52.6974 15.2164 52.0913 15.5655 51.653 16.2666C51.2215 16.9667 51.0062 18.0402 51.0062 19.486V24.9599H47.8945ZM41.9308 24.9609V13.0152H45.0416V24.9619L41.9308 24.9609ZM43.4862 11.5888C42.8666 11.5888 42.3691 11.39 41.9929 10.9914C41.6176 10.5939 41.4295 10.0664 41.4295 9.40987C41.4295 8.74659 41.6176 8.21908 41.9929 7.82829C42.3691 7.43071 42.8666 7.23096 43.4862 7.23096C44.1126 7.23096 44.6111 7.42975 44.9796 7.82829C45.3548 8.21908 45.5429 8.74659 45.5429 9.40987C45.5429 10.0664 45.3548 10.5929 44.9796 10.9914C44.6111 11.389 44.1126 11.5888 43.4862 11.5888ZM29.4227 24.9609V9.03362H39.9168V11.9204H32.6489V15.3493H39.0188V18.236H32.6489V24.9609H29.4227Z" fill="#414D48"/>
</g>
</g>
</g>
<defs>
<clipPath id="clip0_138_2455">
<rect width="106" height="32" fill="white"/>
</clipPath>
<clipPath id="clip1_138_2455">
<rect width="106" height="32" fill="white"/>
</clipPath>
</defs>
</svg>
