<svg width="55" height="40" viewBox="0 0 55 40" fill="none" xmlns="http://www.w3.org/2000/svg">
<g clip-path="url(#clip0_138_2444)">
<g clip-path="url(#clip1_138_2444)">
<g clip-path="url(#clip2_138_2444)">
<path d="M24.0067 15.591C24.0067 28.1693 15.3167 38.3355 3.38853 39.8863V32.6499C10.0337 31.4438 14.805 26.9633 14.805 21.4495C13.6126 22.139 12.0785 22.4837 10.0337 22.4837C4.92166 22.4837 0.491211 18.6926 0.491211 11.9728C0.491211 5.42487 4.92166 0.600586 11.7377 0.600586C18.5538 0.600586 24.0067 6.28719 24.0067 15.591ZM54.5091 15.591C54.5091 28.1693 45.8181 38.3355 33.7201 39.8863V32.6499C40.3652 31.4438 45.1365 26.9633 45.1365 21.4495C43.9442 22.139 42.5809 22.4837 40.5361 22.4837C35.2532 22.4837 30.8227 18.6926 30.8227 11.9728C30.8227 5.42487 35.4241 0.600586 42.0692 0.600586C49.0562 0.600586 54.5091 6.28719 54.5091 15.591Z" fill="#414D48"/>
</g>
</g>
</g>
<defs>
<clipPath id="clip0_138_2444">
<rect width="55" height="40" fill="white"/>
</clipPath>
<clipPath id="clip1_138_2444">
<rect width="55" height="40" fill="white"/>
</clipPath>
<clipPath id="clip2_138_2444">
<rect width="55" height="40.2679" fill="white" transform="translate(0 -0.134033)"/>
</clipPath>
</defs>
</svg>
