<svg width="85" height="77" viewBox="0 0 85 77" fill="none" xmlns="http://www.w3.org/2000/svg">
<path d="M7.6081 18.4001C6.51169 18.5293 5.54843 18.4555 4.71834 18.1787C3.88825 17.902 3.21342 17.4559 2.69383 16.8404C2.17425 16.225 1.8313 15.4679 1.66499 14.5692L4.38533 14.1218C4.51581 14.6139 4.70937 15.0261 4.96602 15.3584C5.23317 15.6773 5.562 15.9044 5.95251 16.0396C6.35493 16.1734 6.83025 16.2081 7.37846 16.1435C7.83133 16.0901 8.20637 15.9915 8.50359 15.8478C8.81272 15.7026 9.03808 15.5129 9.17965 15.2788C9.31981 15.0327 9.37094 14.7487 9.33303 14.427C9.29792 14.129 9.19623 13.8812 9.02794 13.6836C8.85825 13.474 8.56027 13.3037 8.13401 13.1726C7.70635 13.0297 7.08871 12.9152 6.28108 12.8291C5.1671 12.7066 4.25816 12.5298 3.55426 12.2986C2.86229 12.0659 2.33995 11.7348 1.98725 11.3051C1.63314 10.8635 1.41396 10.2852 1.32971 9.57012C1.23984 8.80739 1.34593 8.11825 1.64797 7.50267C1.96193 6.8857 2.45748 6.37419 3.13462 5.96817C3.81176 5.56214 4.64491 5.30085 5.63407 5.1843C6.68281 5.06073 7.59243 5.14084 8.36294 5.42463C9.13344 5.70842 9.7592 6.14822 10.2402 6.74402C10.7332 7.33842 11.0705 8.04782 11.2522 8.87222L8.55186 9.33539C8.46415 8.89865 8.30004 8.53133 8.05953 8.23343C7.81761 7.92361 7.51332 7.69968 7.14665 7.56164C6.77997 7.4236 6.35233 7.38336 5.86371 7.44094C5.24399 7.51395 4.77152 7.70858 4.44629 8.02481C4.13298 8.33963 4.0023 8.71752 4.05426 9.15847C4.09077 9.46833 4.19912 9.72139 4.37933 9.91765C4.57004 10.1006 4.85925 10.2478 5.24695 10.3592C5.64657 10.4691 6.20041 10.5549 6.90848 10.6165C8.1164 10.7158 9.08178 10.9102 9.80461 11.1996C10.538 11.4757 11.0771 11.8471 11.4221 12.314C11.7671 12.7808 11.9775 13.336 12.0534 13.9796C12.146 14.7661 12.0242 15.4753 11.6878 16.107C11.3619 16.7253 10.8478 17.233 10.1454 17.6299C9.45494 18.0254 8.60918 18.2822 7.6081 18.4001ZM17.4959 17.1626C16.5067 17.2791 15.6697 17.1482 14.9847 16.7697C14.3102 16.378 13.9245 15.7709 13.8276 14.9486C13.7279 14.1025 13.9136 13.4221 14.3846 12.9074C14.8661 12.3794 15.6127 11.9471 16.6242 11.6104L19.6452 10.6382C19.5722 10.0185 19.3744 9.57058 19.0519 9.29443C18.7399 9.00495 18.3217 8.8911 17.7973 8.95289C17.2848 9.01327 16.8997 9.17949 16.6417 9.45154C16.3824 9.71167 16.2377 10.0731 16.2076 10.5358L13.4935 10.7287C13.5487 9.6589 13.9261 8.81091 14.6256 8.18475C15.3357 7.54527 16.3164 7.15181 17.5677 7.00437C18.9978 6.83586 20.1104 7.04914 20.9055 7.64418C21.7125 8.23783 22.1933 9.19012 22.3477 10.501L22.7332 13.7724C22.7655 14.0465 22.829 14.2263 22.9236 14.3118C23.0288 14.384 23.1707 14.4096 23.3495 14.3885L23.6177 14.3569L23.8346 16.1982C23.754 16.2319 23.6197 16.2718 23.4319 16.3182C23.2559 16.363 23.0786 16.396 22.8998 16.4171C22.5184 16.462 22.1532 16.4386 21.804 16.3468C21.4668 16.2537 21.1787 16.0641 20.9396 15.7781C20.699 15.4802 20.5444 15.0392 20.4756 14.4553L20.729 14.6067C20.6604 15.0497 20.4901 15.4504 20.2182 15.8087C19.9582 16.1656 19.5944 16.4622 19.1268 16.6985C18.6712 16.9335 18.1275 17.0881 17.4959 17.1626ZM17.9225 15.2455C18.3635 15.1935 18.7409 15.0645 19.055 14.8583C19.3676 14.6402 19.5996 14.3531 19.751 13.9969C19.9023 13.6408 19.9513 13.2363 19.898 12.7834L19.8432 12.3186L17.7171 13.0404C17.2979 13.1743 16.987 13.356 16.7844 13.5852C16.5924 13.8012 16.5146 14.0641 16.5511 14.374C16.589 14.6957 16.7258 14.9334 16.9613 15.0869C17.1969 15.2403 17.5173 15.2932 17.9225 15.2455ZM27.3307 15.7863L22.6979 6.61739L25.5045 6.2867L28.5858 12.9016L30.0272 5.7538L32.8338 5.42311L30.4412 15.4198L27.3307 15.7863ZM39.352 14.5873C38.3747 14.7025 37.4987 14.6003 36.724 14.2807C35.9598 13.9479 35.3309 13.4299 34.8372 12.7269C34.3555 12.0224 34.0549 11.1637 33.9356 10.1507C33.8162 9.13767 33.9097 8.23856 34.2159 7.45334C34.5326 6.65479 35.0239 6.00483 35.6898 5.50346C36.3557 5.00209 37.1773 4.69384 38.1546 4.57869C39.108 4.46636 39.9608 4.57732 40.7131 4.91159C41.4654 5.24586 42.0778 5.77784 42.5505 6.50755C43.035 7.23585 43.3405 8.13629 43.4669 9.20887L43.5301 9.74516L36.7907 10.5392C36.9163 11.2978 37.1856 11.84 37.5986 12.1659C38.0235 12.4904 38.5458 12.6161 39.1655 12.5431C39.6183 12.4898 39.9825 12.3502 40.258 12.1244C40.5454 11.8972 40.7314 11.5792 40.8162 11.1705L43.5345 11.0134C43.3966 11.9963 42.954 12.8036 42.2068 13.4354C41.4596 14.0671 40.508 14.4511 39.352 14.5873ZM36.5969 8.89462L40.5833 8.42491C40.4647 7.72599 40.2063 7.22479 39.808 6.9213C39.4217 6.61642 38.9485 6.49697 38.3884 6.56297C37.8282 6.62897 37.3852 6.86845 37.0593 7.28143C36.7439 7.68108 36.5898 8.21881 36.5969 8.89462ZM4.60547 38.6023C4.47768 37.5178 4.50976 36.5594 4.7017 35.7272C4.90556 34.8937 5.29801 34.1224 5.87905 33.4136C6.47201 32.7033 7.283 31.9976 8.31201 31.2963C8.86087 30.9296 9.2888 30.6133 9.59582 30.3476C9.91334 30.0685 10.1296 29.8014 10.2445 29.5462C10.3594 29.291 10.3979 29.0025 10.36 28.6807C10.3235 28.3709 10.2204 28.1111 10.0507 27.9016C9.89154 27.6786 9.67313 27.5171 9.3955 27.4169C9.11646 27.3048 8.7803 27.2719 8.38702 27.3182C7.74347 27.3941 7.25349 27.6451 6.91706 28.0714C6.59115 28.4844 6.42264 29.054 6.41156 29.7803L3.60389 29.948C3.56439 28.5873 3.92874 27.475 4.69693 26.6112C5.47564 25.734 6.60389 25.2084 8.08166 25.0343C9.0589 24.9191 9.90613 24.9824 10.6233 25.2241C11.3525 25.4645 11.9295 25.8496 12.3544 26.3795C12.7913 26.908 13.0546 27.5537 13.1445 28.3164C13.2231 28.9838 13.1759 29.5572 13.0029 30.0368C12.8417 30.5149 12.5393 30.9735 12.0956 31.4124C11.6519 31.8513 11.0561 32.3323 10.3082 32.8555C9.34786 33.5244 8.65077 34.1201 8.21691 34.6424C7.78165 35.1529 7.56651 35.583 7.57148 35.9328L13.9533 35.1809L14.2229 37.4691L4.60547 38.6023ZM21.252 36.9308C20.2152 37.053 19.321 37.0013 18.5694 36.7757C17.8179 36.5501 17.2117 36.1744 16.7511 35.6487C16.2904 35.123 15.9853 34.4823 15.8359 33.7266L18.5741 33.2771C18.7459 33.8127 19.0327 34.1957 19.4345 34.4263C19.8467 34.6436 20.3627 34.7157 20.9824 34.6427C21.6736 34.5612 22.1927 34.3007 22.5396 33.8611C22.8985 33.4201 23.0372 32.8539 22.9558 32.1627C22.9024 31.7098 22.7607 31.3278 22.5307 31.0166C22.3126 30.7039 22.0255 30.472 21.6694 30.3206C21.3132 30.1692 20.9027 30.1209 20.438 30.1757C19.9255 30.2361 19.4979 30.4012 19.1551 30.6712C18.8124 30.9412 18.5898 31.2574 18.4875 31.6198L15.7703 31.94L15.7722 24.4181L23.8701 23.464L24.1398 25.7521L18.3478 26.4346L18.319 30.1897L17.9835 29.9574C18.1496 29.6237 18.369 29.332 18.6417 29.0824C18.9249 28.8194 19.262 28.6045 19.6532 28.4376C20.0429 28.2587 20.4821 28.1405 20.9707 28.083C21.8526 27.9791 22.6312 28.0746 23.3063 28.3696C23.9934 28.6633 24.5477 29.1115 24.9691 29.7143C25.3905 30.3171 25.649 31.0237 25.7445 31.8341C25.8526 32.7518 25.7381 33.5748 25.401 34.3033C25.064 35.0317 24.5418 35.6249 23.8345 36.0828C23.1258 36.5288 22.265 36.8115 21.252 36.9308ZM30.0988 28.9649C29.2407 29.066 28.5015 28.8933 27.881 28.4469C27.259 27.9885 26.8856 27.229 26.7606 26.1683C26.6343 25.0957 26.8209 24.2702 27.3207 23.6918C27.8204 23.1133 28.4993 22.7735 29.3574 22.6724C30.2155 22.5713 30.9488 22.7447 31.5574 23.1926C32.1779 23.639 32.5513 24.3985 32.6777 25.4711C32.8027 26.5318 32.616 27.3573 32.1176 27.9477C31.6298 28.5247 30.9569 28.8638 30.0988 28.9649ZM29.9387 27.6063C30.3201 27.5614 30.5886 27.3787 30.7441 27.0583C30.8997 26.7379 30.9424 26.2797 30.8722 25.6838C30.802 25.088 30.654 24.6523 30.4282 24.3768C30.2024 24.1014 29.8988 23.9861 29.5175 24.031C29.148 24.0745 28.8796 24.2572 28.7121 24.579C28.5565 24.8994 28.5138 25.3576 28.584 25.9535C28.6542 26.5493 28.8022 26.985 29.028 27.2605C29.2657 27.5345 29.5693 27.6498 29.9387 27.6063ZM38.3946 34.766C37.5366 34.8671 36.7973 34.6944 36.1768 34.248C35.5549 33.7896 35.1814 33.0301 35.0565 31.9694C34.9301 30.8968 35.1168 30.0713 35.6165 29.4929C36.1162 28.9144 36.7951 28.5746 37.6532 28.4735C38.5113 28.3724 39.2506 28.5451 39.8711 28.9916C40.4916 29.438 40.865 30.1975 40.9914 31.2701C41.1164 32.3308 40.9297 33.1563 40.4313 33.7467C39.9316 34.3251 39.2527 34.6649 38.3946 34.766ZM38.2346 33.4074C38.6159 33.3625 38.8844 33.1798 39.04 32.8594C39.1955 32.539 39.2382 32.0808 39.168 31.485C39.0978 30.8891 38.9498 30.4534 38.724 30.1779C38.4982 29.9025 38.1947 29.7872 37.8133 29.8321C37.4438 29.8757 37.1754 30.0583 37.0079 30.3801C36.8523 30.7005 36.8096 31.1587 36.8798 31.7546C36.95 32.3504 37.098 32.7861 37.3238 33.0616C37.5615 33.3357 37.8651 33.4509 38.2346 33.4074ZM29.5826 35.6593L36.5248 21.9729L38.1694 21.7791L31.2272 35.4655L29.5826 35.6593Z" fill="#FF5E15"/>
<g clip-path="url(#clip0_138_2414)">
<g clip-path="url(#clip1_138_2414)">
<g clip-path="url(#clip2_138_2414)">
<mask id="mask0_138_2414" style="mask-type:luminance" maskUnits="userSpaceOnUse" x="27" y="33" width="32" height="44">
<path d="M27.3555 33.6719H58.6444V76.6941H27.3555V33.6719Z" fill="white"/>
</mask>
<g mask="url(#mask0_138_2414)">
<path d="M41.846 46.733L42.3505 47.1369L42.8541 47.5407L43.3527 47.9416L43.8426 48.3483L44.3374 48.761L44.8311 49.1726L45.3259 49.5852L45.8197 49.9969L46.3144 50.4095L46.8092 50.8211L47.2922 51.224L47.7557 51.6434L48.2289 52.0727L48.7031 52.5019L49.1764 52.9302L49.6496 53.3604L50.1229 53.7887L50.5971 54.2189L51.0694 54.6452L51.1075 54.6824L51.1711 54.743L51.2463 54.8154L51.3314 54.8994L51.4292 54.9943L51.5367 55.0989L51.6511 55.2123L51.7763 55.3355L51.9093 55.4666L52.0501 55.6054L52.1967 55.7521L52.3512 55.9036L52.6759 56.2263L53.02 56.5695L53.3789 56.9293L53.7465 57.2989L54.1191 57.6763L54.4926 58.0567L54.8583 58.4322L55.222 58.8076L55.8986 59.5165L56.4804 60.1442L56.7229 60.4141L56.7503 60.4454L56.6075 60.3994L56.4266 60.3408L56.2311 60.2743L56.0208 60.2019L55.7979 60.1237L55.5632 60.0386L55.3168 59.9487L55.0607 59.8548L54.7937 59.757L54.519 59.6544L53.945 59.4393L53.3437 59.2144L52.7199 58.9826L52.0823 58.746L51.4331 58.5074L50.778 58.2728L50.1307 58.0469L49.4775 57.8201L48.8508 57.6177L48.2191 57.4143L47.6364 57.2481L47.0556 57.0838L46.5061 56.9489L45.9918 56.8423L45.5283 56.7699L45.2878 56.7435L45.0648 56.7289L44.8497 56.7259L44.6375 56.7357L44.4224 56.7611L44.2161 56.8081L44.0176 56.8736L43.8319 56.9557L43.6607 57.0525L43.5043 57.164L43.3615 57.294L43.2442 57.4338L43.1464 57.5825L43.0692 57.7389L43.0144 57.8963L42.9792 58.0528L42.9597 58.2122L42.9548 58.3872L42.9783 58.6707L43.0428 58.9738L43.1376 59.2701L43.255 59.5644L43.3948 59.8587L43.5512 60.1491L43.7175 60.4356L43.8964 60.7172L44.0802 60.991L44.266 61.257L44.4518 61.5122L44.6327 61.7527L44.8057 61.9786L44.968 62.1858L45.1137 62.3716L45.2408 62.5339L45.3445 62.6659L45.4198 62.7666L45.8343 63.3386L46.2519 63.9155L46.6821 64.4924L47.1113 65.0722L47.5523 65.6521L47.9943 66.2309L48.445 66.8098L48.8967 67.3886L49.3592 67.9655L49.8207 68.5414L50.293 69.1134L50.7653 69.6854L51.2463 70.2525L51.7274 70.8196L52.2173 71.3779L52.7062 71.9382L53.2058 72.4887L53.7045 73.0382L54.211 73.5779L54.7165 74.1196L55.2288 74.6476L55.7431 75.1756L55.9993 75.4298H55.8654L55.6483 75.421L55.4107 75.4074L55.1496 75.3858L54.869 75.3575L54.5659 75.3213L54.2188 75.2754L53.8218 75.2362L53.3329 75.202L52.8108 75.1512L52.5791 75.1179L52.3591 75.0769L52.1537 75.0221L52.0882 75.0006L52.0217 74.9762L51.9689 74.9507L51.9298 74.9292L51.9093 74.9155L51.8682 74.8794C51.7268 74.7617 51.5486 74.6972 51.3647 74.6972C51.1807 74.6972 51.0025 74.7617 50.8611 74.8794C50.7961 74.9325 50.7436 74.9995 50.7076 75.0755C50.6717 75.1514 50.653 75.2344 50.653 75.3184C50.653 75.4024 50.6717 75.4854 50.7076 75.5613C50.7436 75.6372 50.7961 75.7042 50.8611 75.7574L50.9628 75.8454L51.1046 75.9432L51.2493 76.0243L51.3959 76.0928L51.5475 76.1514L51.7127 76.2052L52.0002 76.2805L52.3082 76.3392L52.6231 76.3851L53.1882 76.4438L53.682 76.48L54.0242 76.5142L54.3518 76.5592L54.6793 76.6012L54.9883 76.6354L55.2816 76.6618L55.5583 76.6814L55.8184 76.6922L56.0658 76.697L56.3005 76.6922L56.5224 76.6794L56.7356 76.6579L56.9399 76.6266L57.1335 76.5846L57.3203 76.5318L57.5022 76.4634L57.6703 76.3812L57.8287 76.2854L57.9754 76.173L58.126 76.0224L58.3 75.7809L58.4281 75.4905L58.4966 75.205L58.5279 74.9214L58.5327 74.6339L58.521 74.3445L58.4995 74.0482L58.476 73.7422L58.4516 73.4264L58.433 73.1008L58.4252 72.7654L58.432 72.4183L58.4565 72.0604L58.5034 71.6938L58.5846 71.2929C58.6559 70.937 58.3812 70.5967 57.9725 70.5351C57.5638 70.4725 57.1727 70.7121 57.1023 71.069L57.0162 71.507L56.9595 71.949L56.9311 72.3694L56.9243 72.7703L56.9351 73.1506L56.9566 73.5046L56.9839 73.8351L57.0113 74.1382L57.0328 74.412L57.0367 74.4775L56.8735 74.3171L56.3699 73.7989L55.8654 73.2787L55.3677 72.7488L54.87 72.2169L54.3791 71.6742L53.8883 71.1325L53.4053 70.581L52.9232 70.0306L52.448 69.4713L51.9738 68.912L51.5074 68.3468L51.04 67.7826L50.5844 67.2136L50.1268 66.6445L49.6799 66.0715L49.2331 65.4995L48.796 64.9266L48.3599 64.3536L47.9346 63.7806L47.5083 63.2086L47.0957 62.6386L46.6782 62.0646L46.5872 61.9414L46.4738 61.7947L46.3438 61.6305L46.1991 61.4466L46.0426 61.2462L45.8764 61.0311L45.7043 60.8033L45.5312 60.5666L45.3591 60.3222L45.1919 60.0729L45.0335 59.8226L44.8879 59.5742L44.7568 59.3298L44.6454 59.097L44.5574 58.877L44.4909 58.6746L44.4527 58.4996L44.44 58.3334L44.442 58.2943L44.4479 58.2483L44.4576 58.2092L44.4674 58.1789L44.4762 58.1594L44.487 58.1437L44.4987 58.129L44.5114 58.1183L44.5349 58.1017L44.5671 58.0821L44.6111 58.0635L44.6708 58.044L44.7079 58.0342L44.7705 58.0274L44.8683 58.0234L44.9895 58.0254L45.1343 58.0352L45.2887 58.0518L45.6857 58.1124L46.1296 58.2034L46.6205 58.3236L47.1749 58.4801L47.7273 58.6365L48.3326 58.8301L48.9417 59.0266L49.5773 59.2476L50.2167 59.4696L50.8601 59.6994L51.5025 59.934L52.1361 60.1667L52.758 60.3975L53.3593 60.6224L53.9343 60.8355L54.2129 60.9382L54.4818 61.036L54.7429 61.1318L54.9951 61.2218L55.2367 61.3088L55.4674 61.389L55.6874 61.4652L55.8967 61.5356L56.0922 61.5992L56.279 61.6578L56.453 61.7087L56.6104 61.7517L56.7121 61.7781L56.8334 61.8074L56.9742 61.8358L57.1345 61.8593L57.3183 61.8749L57.5207 61.873L57.7466 61.8426L58.0008 61.7625L58.2453 61.6178L58.4496 61.4105L58.5816 61.1582L58.6364 60.9255L58.6139 60.6468L58.5562 60.507L58.4975 60.4043L58.434 60.3095L58.3626 60.2117L58.2795 60.1042L58.0976 59.8832L57.8737 59.626L57.6146 59.3366L57.0201 58.6971L56.3337 57.9804L55.9622 57.6001L55.5926 57.2226L55.2151 56.8394L54.8387 56.46L54.4681 56.0884L54.1063 55.7266L53.7602 55.3825L53.4336 55.0598L53.2772 54.9053L53.1286 54.7586L52.9868 54.6188L52.8528 54.4868L52.7257 54.3636L52.6103 54.2482L52.5018 54.1426L52.404 54.0468L52.316 53.9627L52.2378 53.8874L52.1723 53.8249L52.1078 53.7633L51.6316 53.333L51.1583 52.9058L50.6851 52.4775L50.2109 52.0492L49.7376 51.621L49.2634 51.1927L48.7892 50.7644L48.3042 50.3274L47.7987 49.9069L47.303 49.4962L46.8072 49.0856L46.3125 48.6749L45.8167 48.2633L45.321 47.8526L44.8263 47.4419L44.3256 47.0264L43.8172 46.6177L43.3117 46.2139L42.8071 45.811L42.3026 45.4082L41.7971 45.0053L41.2926 44.6025L40.788 44.1986L40.2835 43.7938L39.778 43.391L39.2735 42.9882L38.7679 42.5853L38.2644 42.1834L37.7638 41.7796L37.2612 41.3738L36.7586 40.969L36.2599 40.5662L35.7652 40.1594L35.2685 39.7498L34.7737 39.341L34.279 38.9343L33.7901 38.5236L33.3012 38.113L32.8182 37.6974L32.3342 37.2818L31.8551 36.8634L31.3779 36.4429L30.9056 36.0205L30.4334 35.5971L29.9679 35.1689L29.5025 34.7416L29.0449 34.3084L28.5922 33.8723C28.4552 33.7493 28.2793 33.6783 28.0952 33.6716C27.9112 33.665 27.7306 33.7233 27.5851 33.8362C27.5175 33.8862 27.4618 33.9507 27.4222 34.025C27.3826 34.0992 27.36 34.1814 27.3561 34.2654C27.3522 34.3495 27.367 34.4334 27.3995 34.511C27.432 34.5886 27.4814 34.658 27.544 34.7142L28.0036 35.1513L28.469 35.5913L28.9413 36.0254L29.4135 36.4595L29.8917 36.8898L30.3698 37.317L30.8538 37.7414L31.3378 38.1658L31.8267 38.5862L32.3156 39.0047L32.8094 39.4202L33.3031 39.8358L33.8018 40.2474L34.2985 40.6571L34.7952 41.0658L35.2939 41.4785L35.7994 41.8852L36.301 42.29L36.8036 42.6948L37.3071 43.1006L37.8136 43.5054L38.3182 43.9082L38.8227 44.3111L39.3272 44.7139L39.8308 45.1178L40.3343 45.5216L40.8379 45.9254L41.3415 46.3302L41.846 46.733Z" fill="#265A92"/>
</g>
</g>
</g>
</g>
<defs>
<clipPath id="clip0_138_2414">
<rect width="32" height="44" fill="white" transform="translate(26.8896 32.78)"/>
</clipPath>
<clipPath id="clip1_138_2414">
<rect width="32" height="44" fill="white" transform="translate(26.8896 32.78)"/>
</clipPath>
<clipPath id="clip2_138_2414">
<rect width="32.2667" height="44" fill="white" transform="translate(26.7559 32.78)"/>
</clipPath>
</defs>
</svg>
