<svg width="49" height="49" viewBox="0 0 49 49" fill="none" xmlns="http://www.w3.org/2000/svg">
<g clip-path="url(#clip0_138_2223)">
<g clip-path="url(#clip1_138_2223)">
<g clip-path="url(#clip2_138_2223)">
<mask id="mask0_138_2223" style="mask-type:luminance" maskUnits="userSpaceOnUse" x="0" y="0" width="49" height="49">
<path d="M49 0H0V49H49V0Z" fill="white"/>
</mask>
<g mask="url(#mask0_138_2223)">
<path d="M39 40.5H34V48H39V40.5Z" fill="#FF5E15"/>
<path d="M22.0004 1.50024C16.4004 4.30024 15.3337 15.6669 15.5004 21.0002C16.8338 20.3335 20.5005 19.0002 24.5005 19.0002C28.5005 19.0002 32.1672 20.3335 33.5005 21.0002V17.0002C33.5005 12.5002 29.5005 4.00024 28.0005 2.50024C26.5005 1.00024 24.5005 0.500239 22.0004 1.50024Z" fill="#FF5E15"/>
<path d="M31.5 7.5C33.1 10.3 33.5 17.6667 33.5 21L39.5 18.5C39.6667 17.8333 39.6 15.3 38 10.5C36.4 5.7 30.3333 2.16667 27.5 1C28.1667 2 29.9 4.7 31.5 7.5Z" fill="#FF5E15"/>
<path d="M41.7627 5.7723C36.8312 1.9432 30.7428 -0.0925756 24.5 0.000109097C18.2571 -0.0927061 12.1687 1.94309 7.2373 5.7723C2.57005 9.53632 0 14.5596 0 19.9161V20.0729C0.00333805 20.3319 0.0764864 20.5852 0.211735 20.8061C0.346984 21.027 0.539324 21.2074 0.768483 21.3281C1.04128 21.4791 1.34893 21.5557 1.66065 21.5504C1.97237 21.5451 2.27723 21.458 2.54473 21.2979C4.2235 20.2183 6.17095 19.6302 8.16667 19.6001C10.4364 19.5871 12.6491 20.3103 14.473 21.6613C14.7649 21.8986 15.1257 22.0352 15.5016 22.0506C15.8775 22.0661 16.2483 21.9596 16.5587 21.7471C18.7164 20.4508 21.1678 19.7233 23.6833 19.6327V37.5667H21.0945C19.8616 37.5694 18.6762 37.0913 17.7903 36.2339C17.1691 35.6302 16.4425 35.1455 15.6465 34.8039C16.6256 34.0795 17.3478 33.0614 17.7077 31.8978C18.0677 30.7343 18.0466 29.4862 17.6476 28.3355C17.2485 27.1847 16.4924 26.1915 15.4894 25.5006C14.4864 24.8096 13.289 24.4571 12.0716 24.4944C10.8542 24.5316 9.68054 24.9567 8.72165 25.7076C7.76276 26.4586 7.06878 27.4962 6.74085 28.6691C6.41292 29.8421 6.46818 31.0892 6.89859 32.2285C7.329 33.3679 8.11204 34.34 9.1336 35.0032C7.86971 35.5949 6.80039 36.5342 6.05068 37.7113C5.30097 38.8883 4.90185 40.2545 4.9 41.6501V46.5501C4.9 47.1998 5.15812 47.823 5.61759 48.2825C6.07705 48.7419 6.70022 49.0001 7.35 49.0001H14.7C15.3498 49.0001 15.9729 48.7419 16.4324 48.2825C16.8919 47.823 17.15 47.1998 17.15 46.5501V43.2834H23.6833V44.9167C23.6833 45.1333 23.7694 45.341 23.9225 45.4942C24.0757 45.6474 24.2834 45.7334 24.5 45.7334C24.7166 45.7334 24.9243 45.6474 25.0775 45.4942C25.2306 45.341 25.3167 45.1333 25.3167 44.9167V43.2417C25.9969 43.1474 26.62 42.8102 27.071 42.2924C27.522 41.7745 27.7705 41.111 27.7705 40.4242C27.7705 39.7375 27.522 39.074 27.071 38.5561C26.62 38.0383 25.9969 37.7011 25.3167 37.6067V19.6327C27.8323 19.7228 30.2838 20.4504 32.4413 21.7471C32.7518 21.9594 33.1226 22.0657 33.4984 22.0502C33.8742 22.0348 34.235 21.8984 34.527 21.6613C36.351 20.3105 38.5637 19.5873 40.8333 19.6001C42.8293 19.6304 44.7769 20.2185 46.4561 21.2979C46.7236 21.4575 47.0283 21.5442 47.3398 21.5495C47.6513 21.5548 47.9587 21.4785 48.2315 21.3281C48.4607 21.2074 48.653 21.027 48.7883 20.8061C48.9235 20.5852 48.9967 20.3319 49 20.0729V19.9161C49 14.5596 46.43 9.53632 41.7627 5.7723ZM8.16667 17.9667C5.86783 17.9861 3.62185 18.6585 1.6905 19.9055C1.67271 19.9142 1.65314 19.9187 1.63333 19.9186C1.63333 15.0659 3.98778 10.4942 8.26303 7.04631C11.7192 4.32767 15.8336 2.57278 20.188 1.96011C16.9213 5.13694 14.7163 11.8589 14.7008 19.8238C12.7319 18.6227 10.473 17.9807 8.16667 17.9667ZM8.16667 30.2167C8.16667 29.4091 8.40615 28.6197 8.85483 27.9482C9.30352 27.2767 9.94124 26.7533 10.6874 26.4442C11.4335 26.1352 12.2545 26.0543 13.0466 26.2119C13.8387 26.3694 14.5663 26.7583 15.1374 27.3294C15.7084 27.9004 16.0973 28.628 16.2549 29.4201C16.4124 30.2122 16.3316 31.0332 16.0225 31.7794C15.7135 32.5255 15.1901 33.1632 14.5186 33.6119C13.8471 34.0606 13.0576 34.3001 12.25 34.3001C11.1674 34.2988 10.1296 33.8681 9.36408 33.1027C8.59859 32.3372 8.16796 31.2993 8.16667 30.2167ZM26.1333 40.4251C26.1333 40.75 26.0043 41.0615 25.7745 41.2913C25.5448 41.521 25.2332 41.6501 24.9083 41.6501H17.15V40.8334C17.15 40.6168 17.064 40.4091 16.9108 40.2559C16.7577 40.1028 16.5499 40.0167 16.3333 40.0167C16.1167 40.0167 15.909 40.1028 15.7559 40.2559C15.6027 40.4091 15.5167 40.6168 15.5167 40.8334V46.5501C15.5167 46.7667 15.4306 46.9744 15.2775 47.1275C15.1243 47.2807 14.9166 47.3667 14.7 47.3667H10.6167V40.8334C10.6167 40.6168 10.5306 40.4091 10.3775 40.2559C10.2243 40.1028 10.0166 40.0167 9.8 40.0167C9.58341 40.0167 9.37568 40.1028 9.22253 40.2559C9.06938 40.4091 8.98333 40.6168 8.98333 40.8334V47.3667H7.35C7.13341 47.3667 6.92568 47.2807 6.77253 47.1275C6.61937 46.9744 6.53333 46.7667 6.53333 46.5501V41.6501C6.53506 40.1344 7.13791 38.6814 8.20962 37.6097C9.28132 36.538 10.7344 35.9351 12.25 35.9334H13.2055C14.5051 35.958 15.7441 36.4875 16.66 37.4099C17.8492 38.5606 19.4398 39.2027 21.0945 39.2001H24.9083C25.2332 39.2001 25.5448 39.3291 25.7745 39.5589C26.0043 39.7886 26.1333 40.1002 26.1333 40.4251ZM24.5 17.9667C21.6557 17.9572 18.8521 18.643 16.3333 19.9643V19.9161C16.3333 10.0059 20.0737 1.63344 24.5 1.63344C28.9263 1.63344 32.6667 10.0059 32.6667 19.9161V19.9643C30.1478 18.6431 27.3443 17.9573 24.5 17.9667ZM47.3667 19.9186C47.3471 19.919 47.3277 19.9145 47.3103 19.9055C45.3784 18.659 43.1324 17.9867 40.8333 17.9667C38.527 17.9817 36.2683 18.6249 34.3 19.8271C34.2828 11.8621 32.0762 5.14021 28.812 1.96011C33.1652 2.57153 37.279 4.3244 40.7353 7.04059C45.0122 10.4918 47.3667 15.0635 47.3667 19.9161V19.9186Z" fill="#265A92"/>
<path d="M29.3994 41.6501V46.5501C29.3994 47.1999 29.6575 47.8231 30.117 48.2826C30.5765 48.742 31.1996 49.0001 31.8494 49.0001H41.6494C42.2992 49.0001 42.9223 48.742 43.3818 48.2826C43.8413 47.8231 44.0994 47.1999 44.0994 46.5501V41.6501C44.0975 40.2546 43.6984 38.8884 42.9487 37.7114C42.199 36.5343 41.1297 35.595 39.8658 35.0033C40.8991 34.3314 41.6875 33.3435 42.1136 32.187C42.5397 31.0304 42.5806 29.7672 42.2302 28.5855C41.8798 27.4038 41.1568 26.3671 40.1691 25.6297C39.1815 24.8924 37.9819 24.4941 36.7494 24.4941C35.5169 24.4941 34.3173 24.8924 33.3297 25.6297C32.342 26.3671 31.6191 27.4038 31.2686 28.5855C30.9182 29.7672 30.9591 31.0304 31.3852 32.187C31.8113 33.3435 32.5997 34.3314 33.633 35.0033C32.3691 35.595 31.2998 36.5343 30.5501 37.7114C29.8004 38.8884 29.4013 40.2546 29.3994 41.6501ZM32.6661 30.2168C32.6661 29.4092 32.9056 28.6197 33.3542 27.9482C33.8029 27.2767 34.4406 26.7534 35.1868 26.4443C35.9329 26.1352 36.7539 26.0544 37.546 26.2119C38.3381 26.3695 39.0657 26.7584 39.6368 27.3295C40.2078 27.9005 40.5967 28.6281 40.7543 29.4202C40.9118 30.2123 40.831 31.0333 40.5219 31.7794C40.2129 32.5256 39.6895 33.1633 39.018 33.612C38.3465 34.0607 37.557 34.3001 36.7494 34.3001C35.6668 34.2988 34.629 33.8682 33.8635 33.1027C33.098 32.3372 32.6674 31.2994 32.6661 30.2168ZM36.7494 35.9335C38.265 35.9354 39.7179 36.5383 40.7895 37.61C41.8612 38.6817 42.4641 40.1346 42.4661 41.6501V46.5501C42.4661 46.7667 42.38 46.9745 42.2269 47.1276C42.0737 47.2808 41.866 47.3668 41.6494 47.3668H40.0161V40.8335C40.0161 40.6169 39.93 40.4092 39.7769 40.256C39.6237 40.1028 39.416 40.0168 39.1994 40.0168C38.9828 40.0168 38.7751 40.1028 38.6219 40.256C38.4688 40.4092 38.3827 40.6169 38.3827 40.8335V47.3668H35.1161V40.8335C35.1161 40.6169 35.03 40.4092 34.8769 40.256C34.7237 40.1028 34.516 40.0168 34.2994 40.0168C34.0828 40.0168 33.8751 40.1028 33.7219 40.256C33.5688 40.4092 33.4827 40.6169 33.4827 40.8335V47.3668H31.8494C31.6328 47.3668 31.4251 47.2808 31.2719 47.1276C31.1188 46.9745 31.0327 46.7667 31.0327 46.5501V41.6501C31.0347 40.1346 31.6376 38.6817 32.7093 37.61C33.7809 36.5383 35.2338 35.9354 36.7494 35.9335Z" fill="#265A92"/>
</g>
</g>
</g>
</g>
<defs>
<clipPath id="clip0_138_2223">
<rect width="49" height="49" fill="white"/>
</clipPath>
<clipPath id="clip1_138_2223">
<rect width="49" height="49" fill="white"/>
</clipPath>
<clipPath id="clip2_138_2223">
<rect width="49" height="49" fill="white"/>
</clipPath>
</defs>
</svg>
