<svg width="52" height="52" viewBox="0 0 52 52" fill="none" xmlns="http://www.w3.org/2000/svg">
<g clip-path="url(#clip0_203_4410)">
<g clip-path="url(#clip1_203_4410)">
<g clip-path="url(#clip2_203_4410)">
<path d="M39.5715 0.490601H12.0998C5.59739 0.490601 0.326172 5.76181 0.326172 12.2642V39.7359C0.326172 46.2383 5.59739 51.5095 12.0998 51.5095H39.5715C46.0738 51.5095 51.345 46.2383 51.345 39.7359V12.2642C51.345 5.76181 46.0738 0.490601 39.5715 0.490601Z" fill="#FF5E15"/>
<path d="M34.6516 26.5083C34.7546 24.7208 34.3119 22.9442 33.382 21.4141C32.4521 19.884 31.079 18.6727 29.4449 17.941C27.8107 17.2092 25.9928 16.9915 24.2321 17.3167C22.4713 17.642 20.8511 18.4948 19.5862 19.7621C18.3213 21.0293 17.4717 22.6511 17.1497 24.4125C16.8278 26.1738 17.049 27.9914 17.7838 29.6241C18.5186 31.2568 19.7325 32.6277 21.2643 33.5546C22.7962 34.4816 24.5737 34.9211 26.361 34.8146M17.5946 23.0567H34.0776M17.5946 28.9435H28.7795M25.3453 17.1699C23.6925 19.8186 22.8162 22.8781 22.8162 26.0001C22.8162 29.1223 23.6925 32.1816 25.3453 34.8303M26.3266 17.1699C28.5447 20.7234 29.3443 24.9815 28.5665 29.0976M29.7605 32.868H35.6473M32.7039 29.9246V35.8114" stroke="white" stroke-width="1.96226" stroke-linecap="round" stroke-linejoin="round"/>
</g>
</g>
</g>
<defs>
<clipPath id="clip0_203_4410">
<rect width="52" height="52" rx="12" fill="white"/>
</clipPath>
<clipPath id="clip1_203_4410">
<rect width="52" height="52" fill="white"/>
</clipPath>
<clipPath id="clip2_203_4410">
<rect width="52" height="51.0189" fill="white" transform="translate(0 0.490601)"/>
</clipPath>
</defs>
</svg>
