<svg width="52" height="52" viewBox="0 0 52 52" fill="none" xmlns="http://www.w3.org/2000/svg">
<g clip-path="url(#clip0_203_4392)">
<g clip-path="url(#clip1_203_4392)">
<g clip-path="url(#clip2_203_4392)">
<path d="M40 0H12C5.37258 0 0 5.37258 0 12V40C0 46.6274 5.37258 52 12 52H40C46.6274 52 52 46.6274 52 40V12C52 5.37258 46.6274 0 40 0Z" fill="#FF5E15"/>
<path d="M27 27V23C27 22.7348 27.1054 22.4804 27.2929 22.2929C27.4804 22.1054 27.7348 22 28 22H34C34.2652 22 34.5196 22.1054 34.7071 22.2929C34.8946 22.4804 35 22.7348 35 23V25.5M32 22V19C32 18.7348 31.8946 18.4804 31.7071 18.2929C31.5196 18.1054 31.2652 18 31 18H18C17.7348 18 17.4804 18.1054 17.2929 18.2929C17.1054 18.4804 17 18.7348 17 19V31C17 31.2652 17.1054 31.5196 17.2929 31.7071C17.4804 31.8946 17.7348 32 18 32H23.5M30 23H32M31.8002 34.817L29.6282 35.955C29.5638 35.9886 29.4913 36.0035 29.4188 35.9982C29.3463 35.993 29.2767 35.9677 29.2178 35.9251C29.1589 35.8826 29.113 35.8245 29.0851 35.7574C29.0573 35.6903 29.0487 35.6167 29.0602 35.545L29.4752 33.134L27.7182 31.427C27.6658 31.3763 27.6287 31.3119 27.6111 31.2411C27.5935 31.1703 27.5962 31.096 27.6188 31.0267C27.6414 30.9573 27.6831 30.8957 27.7391 30.8489C27.795 30.8021 27.863 30.772 27.9352 30.762L30.3632 30.41L31.4492 28.217C31.4817 28.1517 31.5318 28.0967 31.5938 28.0583C31.6558 28.0199 31.7273 27.9995 31.8002 27.9995C31.8732 27.9995 31.9447 28.0199 32.0067 28.0583C32.0687 28.0967 32.1188 28.1517 32.1512 28.217L33.2372 30.41L35.6652 30.762C35.7373 30.7724 35.805 30.8027 35.8607 30.8495C35.9164 30.8964 35.9579 30.9579 35.9805 31.027C36.003 31.0962 36.0058 31.1704 35.9885 31.241C35.9711 31.3117 35.9343 31.3761 35.8822 31.427L34.1252 33.134L34.5392 35.544C34.5517 35.6159 34.5437 35.6898 34.5162 35.7573C34.4887 35.8249 34.4429 35.8834 34.3838 35.9262C34.3248 35.969 34.2549 35.9944 34.1822 35.9995C34.1094 36.0046 34.0367 35.9892 33.9722 35.955L31.8002 34.817Z" stroke="white" stroke-width="2" stroke-linecap="round" stroke-linejoin="round"/>
</g>
</g>
</g>
<defs>
<clipPath id="clip0_203_4392">
<rect width="52" height="52" rx="12" fill="white"/>
</clipPath>
<clipPath id="clip1_203_4392">
<rect width="52" height="52" fill="white"/>
</clipPath>
<clipPath id="clip2_203_4392">
<rect width="52" height="52" fill="white"/>
</clipPath>
</defs>
</svg>
