<svg width="52" height="52" viewBox="0 0 52 52" fill="none" xmlns="http://www.w3.org/2000/svg">
<g clip-path="url(#clip0_203_4401)">
<g clip-path="url(#clip1_203_4401)">
<g clip-path="url(#clip2_203_4401)">
<path d="M39.8996 0.490601H12.4279C5.92551 0.490601 0.654297 5.76181 0.654297 12.2642V39.7359C0.654297 46.2383 5.92551 51.5095 12.4279 51.5095H39.8996C46.402 51.5095 51.6732 46.2383 51.6732 39.7359V12.2642C51.6732 5.76181 46.402 0.490601 39.8996 0.490601Z" fill="#FF5E15"/>
<path d="M18.3151 26.0001V20.1133C18.3151 19.5929 18.5218 19.0938 18.8899 18.7257C19.2579 18.3577 19.757 18.151 20.2774 18.151H32.051C32.5714 18.151 33.0705 18.3577 33.4385 18.7257C33.8065 19.0938 34.0132 19.5929 34.0132 20.1133V26.0001M24.2019 31.8868H17.334M17.334 31.8868L20.2774 28.9435M17.334 31.8868L20.2774 34.8302M34.9944 31.8868H28.1264M34.9944 31.8868L32.051 28.9435M34.9944 31.8868L32.051 34.8302" stroke="white" stroke-width="1.96226" stroke-linecap="round" stroke-linejoin="round"/>
</g>
</g>
</g>
<defs>
<clipPath id="clip0_203_4401">
<rect width="52" height="52" rx="12" fill="white"/>
</clipPath>
<clipPath id="clip1_203_4401">
<rect width="52" height="52" fill="white"/>
</clipPath>
<clipPath id="clip2_203_4401">
<rect width="52" height="51.0189" fill="white" transform="translate(0 0.490601)"/>
</clipPath>
</defs>
</svg>
