<svg width="52" height="52" viewBox="0 0 52 52" fill="none" xmlns="http://www.w3.org/2000/svg">
<g clip-path="url(#clip0_203_4374)">
<g clip-path="url(#clip1_203_4374)">
<g clip-path="url(#clip2_203_4374)">
<path d="M39.8996 0.490601H12.4279C5.92551 0.490601 0.654297 5.76181 0.654297 12.2642V39.7359C0.654297 46.2383 5.92551 51.5095 12.4279 51.5095H39.8996C46.402 51.5095 51.6732 46.2383 51.6732 39.7359V12.2642C51.6732 5.76181 46.402 0.490601 39.8996 0.490601Z" fill="#FF5E15"/>
<path d="M30.0887 31.8869C30.6091 31.8869 31.1082 32.0936 31.4762 32.4616C31.8442 32.8296 32.051 33.3287 32.051 33.8491C32.051 33.3287 32.2577 32.8296 32.6257 32.4616C32.9937 32.0936 33.4928 31.8869 34.0132 31.8869C33.4928 31.8869 32.9937 31.6801 32.6257 31.3121C32.2577 30.9441 32.051 30.445 32.051 29.9246C32.051 30.445 31.8442 30.9441 31.4762 31.3121C31.1082 31.6801 30.6091 31.8869 30.0887 31.8869ZM30.0887 20.1133C30.6091 20.1133 31.1082 20.32 31.4762 20.688C31.8442 21.056 32.051 21.5551 32.051 22.0755C32.051 21.5551 32.2577 21.056 32.6257 20.688C32.9937 20.32 33.4928 20.1133 34.0132 20.1133C33.4928 20.1133 32.9937 19.9065 32.6257 19.5385C32.2577 19.1705 32.051 18.6714 32.051 18.151C32.051 18.6714 31.8442 19.1705 31.4762 19.5385C31.1082 19.9065 30.6091 20.1133 30.0887 20.1133ZM23.2208 31.8869C23.2208 30.3256 23.841 28.8283 24.945 27.7243C26.049 26.6202 27.5463 26.0001 29.1076 26.0001C27.5463 26.0001 26.049 25.3799 24.945 24.2758C23.841 23.1718 23.2208 21.6745 23.2208 20.1133C23.2208 21.6745 22.6006 23.1718 21.4965 24.2758C20.3926 25.3799 18.8953 26.0001 17.334 26.0001C18.8953 26.0001 20.3926 26.6202 21.4965 27.7243C22.6006 28.8283 23.2208 30.3256 23.2208 31.8869Z" stroke="white" stroke-width="1.96226" stroke-linecap="round" stroke-linejoin="round"/>
</g>
</g>
</g>
<defs>
<clipPath id="clip0_203_4374">
<rect width="52" height="52" rx="12" fill="white"/>
</clipPath>
<clipPath id="clip1_203_4374">
<rect width="52" height="52" fill="white"/>
</clipPath>
<clipPath id="clip2_203_4374">
<rect width="52" height="51.0189" fill="white" transform="translate(0 0.490601)"/>
</clipPath>
</defs>
</svg>
