<svg width="52" height="52" viewBox="0 0 52 52" fill="none" xmlns="http://www.w3.org/2000/svg">
<g clip-path="url(#clip0_203_4383)">
<g clip-path="url(#clip1_203_4383)">
<g clip-path="url(#clip2_203_4383)">
<path d="M39.5715 0.490601H12.0998C5.59739 0.490601 0.326172 5.76181 0.326172 12.2642V39.7359C0.326172 46.2383 5.59739 51.5095 12.0998 51.5095H39.5715C46.0738 51.5095 51.345 46.2383 51.345 39.7359V12.2642C51.345 5.76181 46.0738 0.490601 39.5715 0.490601Z" fill="#FF5E15"/>
<path d="M17.987 20.1132C17.987 20.6336 18.1937 21.1327 18.5617 21.5007C18.9298 21.8687 19.4289 22.0755 19.9493 22.0755M17.987 20.1132C17.987 19.5928 18.1937 19.0937 18.5617 18.7257C18.9298 18.3577 19.4289 18.1509 19.9493 18.1509M17.987 20.1132H17.0059M19.9493 22.0755C20.4696 22.0755 20.9687 21.8687 21.3368 21.5007C21.7048 21.1327 21.9115 20.6336 21.9115 20.1132M19.9493 22.0755V29.9245M19.9493 18.1509C20.4696 18.1509 20.9687 18.3577 21.3368 18.7257C21.7048 19.0937 21.9115 19.5928 21.9115 20.1132M19.9493 18.1509V17.1698M21.9115 20.1132H34.6662M19.9493 29.9245C19.4289 29.9245 18.9298 30.1312 18.5617 30.4993C18.1937 30.8673 17.987 31.3664 17.987 31.8868M19.9493 29.9245C20.4696 29.9245 20.9687 30.1312 21.3368 30.4993C21.7048 30.8673 21.9115 31.3664 21.9115 31.8868M23.8738 26C23.8738 26.5204 24.0805 27.0195 24.4485 27.3875C24.8166 27.7555 25.3157 27.9623 25.836 27.9623M23.8738 26C23.8738 25.4796 24.0805 24.9805 24.4485 24.6125C24.8166 24.2444 25.3157 24.0377 25.836 24.0377M23.8738 26H17.0059M25.836 27.9623C26.3564 27.9623 26.8555 27.7555 27.2236 27.3875C27.5916 27.0195 27.7983 26.5204 27.7983 26M25.836 27.9623V34.8302M25.836 24.0377C26.3564 24.0377 26.8555 24.2444 27.2236 24.6125C27.5916 24.9805 27.7983 25.4796 27.7983 26M25.836 24.0377V17.1698M27.7983 26H34.6662M17.987 31.8868C17.987 32.4072 18.1937 32.9063 18.5617 33.2743C18.9298 33.6423 19.4289 33.849 19.9493 33.849M17.987 31.8868H17.0059M19.9493 33.849C20.4696 33.849 20.9687 33.6423 21.3368 33.2743C21.7048 32.9063 21.9115 32.4072 21.9115 31.8868M19.9493 33.849V34.8302M21.9115 31.8868H29.7606M29.7606 31.8868C29.7606 32.4072 29.9673 32.9063 30.3353 33.2743C30.7033 33.6423 31.2024 33.849 31.7228 33.849M29.7606 31.8868C29.7606 31.3664 29.9673 30.8673 30.3353 30.4993C30.7033 30.1312 31.2024 29.9245 31.7228 29.9245M31.7228 33.849C32.2432 33.849 32.7423 33.6423 33.1104 33.2743C33.4784 32.9063 33.6851 32.4072 33.6851 31.8868M31.7228 33.849V34.8302M31.7228 29.9245C32.2432 29.9245 32.7423 30.1312 33.1104 30.4993C33.4784 30.8673 33.6851 31.3664 33.6851 31.8868M31.7228 29.9245V17.1698M33.6851 31.8868H34.6662" stroke="white" stroke-width="1.96226" stroke-linecap="round" stroke-linejoin="round"/>
</g>
</g>
</g>
<defs>
<clipPath id="clip0_203_4383">
<rect width="52" height="52" rx="12" fill="white"/>
</clipPath>
<clipPath id="clip1_203_4383">
<rect width="52" height="52" fill="white"/>
</clipPath>
<clipPath id="clip2_203_4383">
<rect width="52" height="51.0189" fill="white" transform="translate(0 0.490601)"/>
</clipPath>
</defs>
</svg>
