<svg width="72" height="72" viewBox="0 0 72 72" fill="none" xmlns="http://www.w3.org/2000/svg">
<g clip-path="url(#clip0_103_2627)">
<g clip-path="url(#clip1_103_2627)">
<g clip-path="url(#clip2_103_2627)">
<path d="M36 72C55.8823 72 72 55.8823 72 36C72 16.1177 55.8823 0 36 0C16.1177 0 0 16.1177 0 36C0 55.8823 16.1177 72 36 72Z" fill="#FF5E15" fill-opacity="0.3"/>
<path d="M36 64C51.464 64 64 51.464 64 36C64 20.536 51.464 8 36 8C20.536 8 8 20.536 8 36C8 51.464 20.536 64 36 64Z" fill="#FF5E15"/>
<path d="M32.4982 44.0047H39.5018C38.8432 45.5841 37.5794 46.8479 36 47.5065C34.4206 46.8479 33.1568 45.5841 32.4982 44.0047ZM42 38.8094L44 41.0777V43.0047H28V41.0777L30 38.8094V33.0048C30 29.5215 32.5044 26.5582 36 25.46C39.4956 26.5582 42 29.5215 42 33.0048V38.8094ZM36 35.0047C37.1046 35.0047 38 34.1093 38 33.0048C38 31.9002 37.1046 31.0048 36 31.0048C34.8954 31.0048 34 31.9002 34 33.0048C34 34.1093 34.8954 35.0047 36 35.0047Z" fill="white"/>
</g>
</g>
</g>
<defs>
<clipPath id="clip0_103_2627">
<rect width="72" height="72" fill="white"/>
</clipPath>
<clipPath id="clip1_103_2627">
<rect width="72" height="72" fill="white"/>
</clipPath>
<clipPath id="clip2_103_2627">
<rect width="72" height="72" fill="white"/>
</clipPath>
</defs>
</svg>
