<svg width="503" height="317" viewBox="0 0 503 317" fill="none" xmlns="http://www.w3.org/2000/svg">
<g clip-path="url(#clip0_105_4375)">
<g clip-path="url(#clip1_105_4375)">
<g clip-path="url(#clip2_105_4375)">
<mask id="mask0_105_4375" style="mask-type:luminance" maskUnits="userSpaceOnUse" x="0" y="-1" width="503" height="338">
<path d="M0.660156 15.8668C0.660156 7.06827 7.79274 -0.0653076 16.5922 -0.0653076H486.588C495.388 -0.0653076 502.52 7.06827 502.52 15.8668V336.5H0.660156V15.8668Z" fill="white"/>
</mask>
<g mask="url(#mask0_105_4375)">
<path d="M0.660156 15.8668C0.660156 7.06827 7.79274 -0.0653076 16.5922 -0.0653076H486.588C495.388 -0.0653076 502.52 7.06827 502.52 15.8668V336.5H0.660156V15.8668Z" fill="white"/>
<path d="M24.6377 31.0978L20.7344 24.2629H22.4869L25.052 28.8673C25.2113 29.1381 25.3069 29.3612 25.4343 29.632C25.5777 29.3452 25.6096 29.2496 25.8167 28.8673L28.3658 24.2629H30.0706L26.1991 31.0978V35.7818H24.6377V31.0978ZM28.9404 31.8784C28.9404 29.4727 30.661 27.7839 33.0031 27.7839C35.3291 27.7839 37.0498 29.4727 37.0498 31.8784C37.0498 34.2842 35.3291 35.973 33.0031 35.973C30.661 35.973 28.9404 34.2842 28.9404 31.8784ZM30.4539 31.8784C30.4539 33.5035 31.4895 34.6347 33.0031 34.6347C34.5007 34.6347 35.5522 33.5035 35.5522 31.8784C35.5522 30.2534 34.5007 29.1222 33.0031 29.1222C31.4895 29.1222 30.4539 30.2534 30.4539 31.8784ZM43.6078 27.991H45.0885V35.7818H43.7502L43.5909 34.6028C43.1448 35.4153 42.1092 35.973 40.9621 35.973C39.1459 35.973 38.1262 34.7462 38.1262 32.8344V27.991H39.6238V32.3405C39.6238 34.0133 40.3408 34.6506 41.4879 34.6506C42.858 34.6506 43.6068 33.7743 43.6068 32.1015L43.6078 27.991ZM51.4245 27.9273V29.2974H50.7554C49.3374 29.2974 48.4611 30.1578 48.4611 31.6554V35.7818H46.9625V28.0069H48.3646L48.4601 29.1859C48.7788 28.3734 49.5605 27.8317 50.6279 27.8317C50.8987 27.8317 51.1208 27.8635 51.4245 27.9273ZM55.9502 33.5194H57.3841C57.3841 34.316 57.9895 34.794 58.9773 34.794C60.0288 34.794 60.6342 34.3638 60.6342 33.6469C60.6342 33.1211 60.3793 32.8025 59.5668 32.5954L58.1966 32.2767C56.8105 31.9422 56.1573 31.2571 56.1573 30.11C56.1573 28.6761 57.3682 27.768 59.0888 27.768C60.7936 27.768 61.9088 28.7239 61.9407 30.2056H60.5068C60.4749 29.4249 59.9492 28.931 59.041 28.931C58.101 28.931 57.5753 29.3452 57.5753 30.0622C57.5753 30.5879 57.9576 30.9384 58.7224 31.1296L60.0925 31.4642C61.4149 31.7828 62.0681 32.3883 62.0681 33.5513C62.0681 35.033 60.7936 35.973 58.9454 35.973C57.1133 35.973 55.9502 35.0011 55.9502 33.5194ZM63.4303 39.2709V27.991H64.7845L64.8961 29.393C65.4218 28.3256 66.4733 27.768 67.716 27.768C69.9465 27.768 71.3326 29.4408 71.3326 31.8306C71.3326 34.2045 70.0262 35.9889 67.716 35.9889C66.4733 35.9889 65.4378 35.4631 64.9279 34.5072V39.2709H63.4303ZM64.9439 31.8944C64.9439 33.4876 65.8679 34.6347 67.3974 34.6347C68.9269 34.6347 69.835 33.4876 69.835 31.8944C69.835 30.2852 68.9269 29.1381 67.3974 29.1381C65.8679 29.1381 64.9439 30.2693 64.9439 31.8944ZM76.0465 35.973C73.7523 35.973 72.175 34.316 72.175 31.8944C72.175 29.4568 73.7204 27.768 75.9828 27.768C78.1973 27.768 79.6472 29.2974 79.6472 31.6076V32.1652L73.6248 32.1811C73.7364 33.8221 74.5967 34.7303 76.0784 34.7303C77.2414 34.7303 78.0062 34.2523 78.2611 33.3601H79.6631C79.2807 35.033 77.9743 35.973 76.0465 35.973ZM75.9828 29.0266C74.6764 29.0266 73.8479 29.8073 73.6567 31.1774H78.1495C78.1495 29.8869 77.3051 29.0266 75.9828 29.0266ZM82.5189 35.7818H81.0213V27.991H82.3755L82.5348 29.1859C83.0287 28.2937 84.0165 27.768 85.1158 27.768C87.1711 27.768 88.1111 29.0266 88.1111 31.0181V35.7818H86.6135V31.3527C86.6135 29.7754 85.8806 29.1381 84.7335 29.1381C83.3315 29.1381 82.5189 30.1418 82.5189 31.6554V35.7818ZM93.0092 35.973C90.7468 35.973 89.3767 34.2842 89.3767 31.9103C89.3767 29.5205 90.7628 27.768 93.0729 27.768C94.2678 27.768 95.2715 28.2937 95.7973 29.2496V24.0558H97.279V35.7818H95.9407L95.8132 34.3638C95.3034 35.4313 94.2519 35.973 93.0092 35.973ZM93.3119 34.6187C94.8414 34.6187 95.7814 33.4876 95.7814 31.8625C95.7814 30.2693 94.8414 29.1222 93.3119 29.1222C91.7824 29.1222 90.8902 30.2693 90.8902 31.8625C90.8902 33.4716 91.7824 34.6187 93.3119 34.6187ZM99.8739 26.1429C99.6122 26.1418 99.3614 26.0375 99.1762 25.8525C98.9911 25.6675 98.8864 25.4168 98.8851 25.1551C98.8851 24.5975 99.3312 24.1673 99.8729 24.1673C100.416 24.1673 100.862 24.5975 100.862 25.1551C100.86 25.4168 100.756 25.6675 100.571 25.8525C100.385 26.0375 100.135 26.1418 99.8729 26.1429H99.8739ZM99.14 35.7818V27.991H100.639V35.7818H99.14ZM104.011 35.7818H102.514V27.991H103.868L104.027 29.1859C104.521 28.2937 105.509 27.768 106.608 27.768C108.663 27.768 109.603 29.0266 109.603 31.0181V35.7818H108.106V31.3527C108.106 29.7754 107.373 29.1381 106.226 29.1381C104.824 29.1381 104.011 30.1418 104.011 31.6554V35.7818ZM110.885 31.6872C110.885 29.4886 112.303 27.768 114.565 27.768C115.824 27.768 116.796 28.3415 117.29 29.3134L117.401 27.991H118.739V35.4631C118.739 37.9167 117.226 39.478 114.836 39.478C112.717 39.478 111.267 38.2831 110.981 36.3075H112.478C112.669 37.4546 113.53 38.1238 114.836 38.1238C116.302 38.1238 117.258 37.1679 117.258 35.6862V34.1249C116.748 35.033 115.728 35.5747 114.502 35.5747C112.287 35.5747 110.885 33.8699 110.885 31.6872ZM112.383 31.6554C112.383 33.1211 113.291 34.2682 114.756 34.2682C116.27 34.2682 117.194 33.1849 117.194 31.6554C117.194 30.1578 116.302 29.0744 114.772 29.0744C113.275 29.0744 112.383 30.2215 112.383 31.6554Z" fill="#6B756F"/>
<path d="M26.789 74.895V72.9115C23.4672 72.6725 21.3402 70.7367 21.2686 67.8212H24.3275C24.3514 69.1834 25.2356 70.0437 26.789 70.2349V65.1446L26.0243 64.9773C23.0131 64.3321 21.5075 62.6592 21.5075 60.0304C21.5075 57.2343 23.6106 55.2269 26.789 54.8923V52.861H28.6292V54.8923C31.6403 55.203 33.5044 57.0909 33.6 59.9587H30.6366C30.5888 58.6682 29.8719 57.8318 28.6292 57.5689V62.707L29.4417 62.8982C32.5007 63.5673 33.8867 65.049 33.8867 67.5822C33.8867 70.4978 31.8315 72.5052 28.6292 72.8637V74.895H26.789ZM26.6934 62.2768L26.789 62.3007V57.545C25.3551 57.784 24.4948 58.6443 24.4948 59.9348C24.4948 61.2014 25.1639 61.9422 26.6934 62.2768ZM28.7965 65.5747L28.6292 65.5269V70.1871C30.0631 69.9003 30.9234 69.0639 30.9234 67.8451C30.9234 66.6263 30.2303 65.8854 28.7965 65.5747ZM47.437 72.6008L35.3196 72.6247V70.3305L41.0313 65.5031C43.3972 63.4956 44.1858 62.3485 44.1858 60.6756C44.1858 58.6921 43.1104 57.5689 41.2703 57.5689C39.3584 57.5689 38.1635 58.9072 38.1396 61.1536H35.1046C35.1285 57.3299 37.5661 54.8445 41.2703 54.8445C44.9984 54.8445 47.3165 56.9714 47.3165 60.5084C47.3165 62.946 45.9782 64.7861 43.3255 67.0564L40.171 69.7569H47.436V72.6008H47.437ZM62.0925 69.3029H59.9655V72.6247H57.0739V69.3029H48.2077V66.6263L56.118 55.1552H59.9655V66.6263H62.0925V69.3029ZM51.4578 66.6263H57.0739V58.4531L51.4578 66.6263ZM67.5183 71.5732C67.5183 73.5567 66.0845 75.134 64.1487 75.373V74.202C65.2241 74.0108 66.0367 73.3655 66.0367 72.5291C65.8205 72.6318 65.5828 72.681 65.3436 72.6725C64.4116 72.6725 63.6469 71.9794 63.6469 71.0235C63.6469 69.8764 64.3877 69.1117 65.4631 69.1117C66.658 69.1117 67.5183 70.0915 67.5183 71.5732ZM68.7381 63.9258C68.7381 58.5009 71.6537 54.8206 76.1226 54.8206C80.5916 54.8206 83.5311 58.5009 83.5311 63.9258C83.5311 69.3268 80.7589 72.9354 76.1226 72.9354C71.4864 72.9354 68.7381 69.3268 68.7381 63.9258ZM71.7493 63.9258C71.7493 67.9646 73.3744 70.2349 76.1226 70.2349C78.8948 70.2349 80.5199 67.9646 80.5199 63.9258C80.5199 59.7914 78.8948 57.5211 76.1226 57.5211C73.3744 57.5211 71.7493 59.7914 71.7493 63.9258ZM85.0904 63.9258C85.0904 58.5009 88.006 54.8206 92.4749 54.8206C96.9439 54.8206 99.8833 58.5009 99.8833 63.9258C99.8833 69.3268 97.1112 72.9354 92.4749 72.9354C87.8387 72.9354 85.0904 69.3268 85.0904 63.9258ZM88.1016 63.9258C88.1016 67.9646 89.7266 70.2349 92.4749 70.2349C95.2471 70.2349 96.8722 67.9646 96.8722 63.9258C96.8722 59.7914 95.2471 57.5211 92.4749 57.5211C89.7266 57.5211 88.1016 59.7914 88.1016 63.9258ZM101.443 63.9258C101.443 58.5009 104.358 54.8206 108.827 54.8206C113.296 54.8206 116.236 58.5009 116.236 63.9258C116.236 69.3268 113.463 72.9354 108.827 72.9354C104.191 72.9354 101.443 69.3268 101.443 63.9258ZM104.454 63.9258C104.454 67.9646 106.079 70.2349 108.827 70.2349C111.599 70.2349 113.224 67.9646 113.224 63.9258C113.224 59.7914 111.599 57.5211 108.827 57.5211C106.079 57.5211 104.454 59.7914 104.454 63.9258Z" fill="#0A3D2A"/>
<path d="M468.664 49.7224H414.894C407.195 49.7224 400.953 55.9638 400.953 63.663C400.953 71.3621 407.195 77.6035 414.894 77.6035H468.664C476.364 77.6035 482.605 71.3621 482.605 63.663C482.605 55.9638 476.364 49.7224 468.664 49.7224Z" fill="#F8F9FA"/>
<path d="M414.117 68.6417L411.12 58.5627H412.542L414.382 64.7244C414.522 65.2542 414.661 65.7839 414.8 66.5506C414.968 65.7421 415.121 65.2542 415.274 64.7244L417.184 58.5627H418.662L420.558 64.7244C420.725 65.2681 420.865 65.7978 421.018 66.5506C421.185 65.7003 421.325 65.1845 421.464 64.7384L423.318 58.5627H424.712L421.673 68.6417H420.363L417.923 60.6677L415.456 68.6417H414.117ZM427.924 68.809C425.917 68.809 424.537 67.3592 424.537 65.2402C424.537 63.1073 425.889 61.6296 427.869 61.6296C429.806 61.6296 431.075 62.9679 431.075 64.9893V65.4772L425.806 65.4912C425.903 66.927 426.656 67.7216 427.952 67.7216C428.97 67.7216 429.639 67.3034 429.862 66.5227H431.089C430.754 67.9865 429.611 68.809 427.924 68.809ZM427.869 62.7309C426.726 62.7309 426.001 63.414 425.833 64.6129H429.765C429.765 63.4837 429.026 62.7309 427.869 62.7309ZM435.48 68.809C433.473 68.809 432.093 67.3592 432.093 65.2402C432.093 63.1073 433.445 61.6296 435.424 61.6296C437.362 61.6296 438.631 62.9679 438.631 64.9893V65.4772L433.361 65.4912C433.459 66.927 434.212 67.7216 435.508 67.7216C436.526 67.7216 437.195 67.3034 437.418 66.5227H438.645C438.31 67.9865 437.167 68.809 435.48 68.809ZM435.424 62.7309C434.281 62.7309 433.556 63.414 433.389 64.6129H437.32C437.32 63.4837 436.582 62.7309 435.424 62.7309ZM441.432 68.6417H440.121V58.3815H441.432V65.0311L444.457 61.8248H446.102L443.495 64.5432L446.088 68.6417H444.582L442.589 65.4912L441.432 66.704V68.6417ZM448.512 68.6417H447.201V58.3815H448.512V68.6417ZM449.785 71.6947V70.6213H450.664C451.291 70.6213 451.793 70.5237 452.113 69.6594L452.35 69.0042L449.604 61.8248H450.984L452.964 67.3174L454.985 61.8248H456.337L453.117 70.1752C452.657 71.3462 451.974 71.8341 450.928 71.8341C450.496 71.8341 450.134 71.7783 449.785 71.6947Z" fill="#414D48"/>
<path d="M464.184 62.9161L466.965 65.6973C467.296 66.0289 467.463 66.1952 467.669 66.1952C467.875 66.1952 468.041 66.0289 468.373 65.6973L471.154 62.9161" stroke="#414D48" stroke-width="1.1949" stroke-linecap="round" stroke-linejoin="round"/>
<path d="M20.5752 154.277C20.5752 152.164 21.4145 150.138 22.9084 148.644C24.4023 147.15 26.4285 146.311 28.5412 146.311H44.4733C46.586 146.311 48.6122 147.15 50.1061 148.644C51.6 150.138 52.4393 152.164 52.4393 154.277V269.784H20.5752V154.277Z" fill="#2E6096"/>
<path d="M74.3457 193.111C74.3457 190.998 75.185 188.972 76.6789 187.478C78.1728 185.984 80.199 185.145 82.3117 185.145H98.2438C100.357 185.145 102.383 185.984 103.877 187.478C105.371 188.972 106.21 190.998 106.21 193.111V269.784H74.3457V193.111Z" fill="#FF5E15" fill-opacity="0.7"/>
<path d="M128.116 103.493C128.116 101.38 128.955 99.3542 130.449 97.8603C131.943 96.3664 133.97 95.5271 136.082 95.5271H152.014C154.127 95.5271 156.153 96.3664 157.647 97.8603C159.141 99.3542 159.98 101.38 159.98 103.493V269.784H128.116V103.493Z" fill="#2E6096"/>
<path d="M181.888 131.374C181.888 129.262 182.727 127.235 184.221 125.741C185.715 124.247 187.741 123.408 189.854 123.408H205.786C207.899 123.408 209.925 124.247 211.419 125.741C212.913 127.235 213.752 129.262 213.752 131.374V269.784H181.888V131.374Z" fill="#FF5E15" fill-opacity="0.7"/>
<path d="M235.658 136.108C235.658 133.995 236.497 131.969 237.991 130.475C239.485 128.981 241.512 128.142 243.624 128.142H259.556C261.669 128.142 263.695 128.981 265.189 130.475C266.683 131.969 267.522 133.995 267.522 136.108V269.539H235.658V136.108Z" fill="#2E6096"/>
<path d="M289.429 209.794C289.429 207.681 290.268 205.655 291.762 204.161C293.256 202.667 295.282 201.828 297.395 201.828H313.327C315.44 201.828 317.466 202.667 318.96 204.161C320.454 205.655 321.293 207.681 321.293 209.794V269.539H289.429V209.794ZM396.97 209.794C396.97 207.681 397.809 205.655 399.303 204.161C400.797 202.667 402.823 201.828 404.936 201.828H420.868C422.981 201.828 425.007 202.667 426.501 204.161C427.995 205.655 428.834 207.681 428.834 209.794V269.539H396.97V209.794Z" fill="#FF5E15" fill-opacity="0.7"/>
<path d="M343.199 161.002C343.199 158.889 344.038 156.863 345.532 155.369C347.026 153.875 349.053 153.036 351.165 153.036H367.097C369.21 153.036 371.236 153.875 372.73 155.369C374.224 156.863 375.063 158.889 375.063 161.002V269.539H343.199V161.002ZM450.741 161.247C450.741 159.134 451.58 157.108 453.074 155.614C454.568 154.12 456.594 153.281 458.707 153.281H474.639C476.751 153.281 478.778 154.12 480.272 155.614C481.766 157.108 482.605 159.134 482.605 161.247V269.784H450.741V161.247Z" fill="#2E6096"/>
<path d="M237.65 285.716H28.5412C24.1417 285.716 20.5752 289.283 20.5752 293.682V337.495C20.5752 341.895 24.1417 345.461 28.5412 345.461H237.65C242.049 345.461 245.616 341.895 245.616 337.495V293.682C245.616 289.283 242.049 285.716 237.65 285.716Z" fill="#F8F9FA"/>
<g filter="url(#filter0_d_105_4375)">
<path d="M54.4313 299.657H38.4992C34.0997 299.657 30.5332 303.223 30.5332 307.623V323.555C30.5332 327.954 34.0997 331.521 38.4992 331.521H54.4313C58.8308 331.521 62.3973 327.954 62.3973 323.555V307.623C62.3973 303.223 58.8308 299.657 54.4313 299.657Z" fill="white"/>
<path d="M44.3906 317.041C44.3906 317.845 45.013 318.492 45.7767 318.492H47.3361C48.0002 318.492 48.5399 317.928 48.5399 317.223C48.5399 316.468 48.2073 316.194 47.7184 316.02L45.2201 315.149C44.7312 314.974 44.3986 314.708 44.3986 313.945C44.3986 313.248 44.9383 312.675 45.6025 312.675H47.1618C47.9256 312.675 48.5479 313.322 48.5479 314.128M46.4648 311.855V319.323" stroke="#57615C" stroke-width="1.49363" stroke-linecap="round" stroke-linejoin="round"/>
<path d="M54.7642 315.588C54.7642 320.168 51.0461 323.886 46.4656 323.886C44.2651 323.885 42.155 323.011 40.5991 321.454C39.0432 319.898 38.1688 317.788 38.168 315.588C38.168 311.007 41.8851 307.29 46.4656 307.29" stroke="#57615C" stroke-width="1.49363" stroke-linecap="round" stroke-linejoin="round"/>
<path d="M50.6143 308.121V311.439M50.6143 311.439H53.9331M50.6143 311.439L54.7636 307.29" stroke="#57615C" stroke-width="1.49363" stroke-linecap="round" stroke-linejoin="round"/>
</g>
<path d="M72.5372 301.971V310.61H71.3662V301.971H72.5372ZM75.4846 310.61H74.3604V304.767H75.3761L75.4956 305.663C75.866 304.994 76.6069 304.599 77.4313 304.599C78.9728 304.599 79.6778 305.543 79.6778 307.037V310.61H78.5546V307.288C78.5546 306.105 78.0049 305.627 77.1446 305.627C76.093 305.627 75.4836 306.38 75.4836 307.515L75.4846 310.61ZM80.8518 307.694C80.8518 305.866 82.0108 304.599 83.7195 304.599C85.1893 304.599 86.2169 305.436 86.42 306.738H85.2968C85.1056 305.998 84.5082 305.603 83.7554 305.603C82.6919 305.603 81.963 306.416 81.963 307.682C81.963 308.937 82.6441 309.75 83.7076 309.75C84.5082 309.75 85.1056 309.331 85.3088 308.638H86.432C86.2049 309.905 85.1176 310.753 83.7076 310.753C81.9869 310.753 80.8518 309.534 80.8518 307.694ZM87.2345 307.682C87.2345 305.878 88.525 304.611 90.2815 304.611C92.0261 304.611 93.3166 305.878 93.3166 307.682C93.3166 309.487 92.0261 310.753 90.2815 310.753C88.525 310.753 87.2345 309.487 87.2345 307.682ZM88.3697 307.682C88.3697 308.901 89.1464 309.75 90.2815 309.75C91.4048 309.75 92.1934 308.901 92.1934 307.682C92.1934 306.464 91.4048 305.615 90.2815 305.615C89.1464 305.615 88.3697 306.464 88.3697 307.682ZM95.6825 310.61H94.5593V304.767H95.563L95.6706 305.532C95.9693 304.982 96.5906 304.599 97.4151 304.599C98.3233 304.599 98.9685 305.054 99.2672 305.782C99.5421 305.054 100.247 304.599 101.155 304.599C102.493 304.599 103.306 305.436 103.306 306.786V310.61H102.207V307.061C102.207 306.141 101.693 305.615 100.904 305.615C100.056 305.615 99.4943 306.213 99.4943 307.145V310.61H98.383V307.049C98.383 306.129 97.8811 305.627 97.0925 305.627C96.2441 305.627 95.6825 306.213 95.6825 307.145V310.61ZM107.385 310.753C105.664 310.753 104.481 309.511 104.481 307.694C104.481 305.866 105.64 304.599 107.337 304.599C108.998 304.599 110.085 305.747 110.085 307.479V307.897L105.568 307.909C105.652 309.14 106.297 309.821 107.409 309.821C108.281 309.821 108.854 309.463 109.046 308.794H110.097C109.81 310.048 108.83 310.753 107.385 310.753ZM107.337 305.543C106.357 305.543 105.736 306.129 105.592 307.157H108.962C108.962 306.189 108.329 305.543 107.337 305.543Z" fill="#6B756F"/>
<path d="M474.639 285.716H265.53C261.131 285.716 257.564 289.283 257.564 293.682V337.495C257.564 341.895 261.131 345.461 265.53 345.461H474.639C479.038 345.461 482.605 341.895 482.605 337.495V293.682C482.605 289.283 479.038 285.716 474.639 285.716Z" fill="#F8F9FA"/>
<g filter="url(#filter1_d_105_4375)">
<path d="M291.421 299.657H275.488C271.089 299.657 267.522 303.223 267.522 307.623V323.555C267.522 327.954 271.089 331.521 275.488 331.521H291.421C295.82 331.521 299.387 327.954 299.387 323.555V307.623C299.387 303.223 295.82 299.657 291.421 299.657Z" fill="white"/>
<path d="M281.38 317.041C281.38 317.845 282.002 318.492 282.766 318.492H284.325C284.989 318.492 285.529 317.928 285.529 317.223C285.529 316.468 285.197 316.194 284.708 316.02L282.209 315.149C281.72 314.974 281.388 314.708 281.388 313.945C281.388 313.248 281.928 312.675 282.592 312.675H284.151C284.915 312.675 285.537 313.322 285.537 314.128M283.454 311.855V319.323" stroke="#57615C" stroke-width="1.49363" stroke-linecap="round" stroke-linejoin="round"/>
<path d="M291.753 315.588C291.753 320.168 288.035 323.886 283.455 323.886C278.874 323.886 275.157 320.168 275.157 315.588C275.157 311.007 278.874 307.29 283.455 307.29M291.752 310.609V307.29H288.434M287.604 311.439L291.753 307.29" stroke="#57615C" stroke-width="1.49363" stroke-linecap="round" stroke-linejoin="round"/>
</g>
<path d="M313.626 310.61H308.356V301.971H313.626V303.046H309.527V305.747H313.22V306.786H309.527V309.522H313.626V310.61ZM315.729 310.61H314.439L316.482 307.718L314.45 304.767H315.753L317.235 306.942L318.68 304.767H319.959L317.928 307.718L319.923 310.61H318.621L317.163 308.471L315.729 310.61ZM320.896 313.227V304.767H321.912L321.995 305.818C322.39 305.018 323.178 304.599 324.11 304.599C325.783 304.599 326.823 305.854 326.823 307.646C326.823 309.427 325.843 310.765 324.11 310.765C323.178 310.765 322.402 310.371 322.019 309.654V313.227H320.896ZM322.031 307.694C322.031 308.889 322.724 309.75 323.871 309.75C325.018 309.75 325.699 308.889 325.699 307.694C325.699 306.487 325.018 305.627 323.871 305.627C322.724 305.627 322.031 306.475 322.031 307.694ZM330.582 310.753C328.861 310.753 327.678 309.511 327.678 307.694C327.678 305.866 328.837 304.599 330.534 304.599C332.195 304.599 333.282 305.747 333.282 307.479V307.897L328.765 307.909C328.849 309.14 329.494 309.821 330.606 309.821C331.478 309.821 332.051 309.463 332.243 308.794H333.294C333.007 310.048 332.028 310.753 330.582 310.753ZM330.534 305.543C329.554 305.543 328.933 306.129 328.789 307.157H332.159C332.159 306.189 331.526 305.543 330.534 305.543ZM335.66 310.61H334.537V304.767H335.552L335.672 305.663C336.042 304.994 336.783 304.599 337.608 304.599C339.149 304.599 339.854 305.543 339.854 307.037V310.61H338.731V307.288C338.731 306.105 338.181 305.627 337.321 305.627C336.269 305.627 335.66 306.38 335.66 307.515V310.61ZM340.862 308.913H341.937C341.937 309.511 342.391 309.869 343.132 309.869C343.921 309.869 344.375 309.546 344.375 309.009C344.375 308.614 344.184 308.375 343.574 308.22L342.547 307.981C341.507 307.73 341.017 307.216 341.017 306.356C341.017 305.281 341.925 304.599 343.216 304.599C344.494 304.599 345.331 305.316 345.355 306.428H344.279C344.255 305.842 343.861 305.472 343.18 305.472C342.475 305.472 342.081 305.782 342.081 306.32C342.081 306.714 342.367 306.977 342.941 307.121L343.969 307.372C344.96 307.611 345.45 308.065 345.45 308.937C345.45 310.048 344.494 310.753 343.108 310.753C341.734 310.753 340.862 310.024 340.862 308.913ZM349.217 310.753C347.497 310.753 346.314 309.511 346.314 307.694C346.314 305.866 347.473 304.599 349.169 304.599C350.83 304.599 351.918 305.747 351.918 307.479V307.897L347.401 307.909C347.485 309.14 348.13 309.821 349.241 309.821C350.113 309.821 350.687 309.463 350.878 308.794H351.93C351.643 310.048 350.663 310.753 349.217 310.753ZM349.169 305.543C348.19 305.543 347.568 306.129 347.425 307.157H350.795C350.795 306.189 350.161 305.543 349.169 305.543ZM352.694 308.913H353.77C353.77 309.511 354.224 309.869 354.965 309.869C355.753 309.869 356.207 309.546 356.207 309.009C356.207 308.614 356.016 308.375 355.407 308.22L354.379 307.981C353.34 307.73 352.85 307.216 352.85 306.356C352.85 305.281 353.758 304.599 355.048 304.599C356.327 304.599 357.163 305.316 357.187 306.428H356.112C356.088 305.842 355.694 305.472 355.013 305.472C354.308 305.472 353.913 305.782 353.913 306.32C353.913 306.714 354.2 306.977 354.774 307.121L355.801 307.372C356.793 307.611 357.283 308.065 357.283 308.937C357.283 310.048 356.327 310.753 354.941 310.753C353.567 310.753 352.694 310.024 352.694 308.913Z" fill="#6B756F"/>
</g>
</g>
</g>
</g>
<defs>
<filter id="filter0_d_105_4375" x="-17.263" y="259.826" width="127.457" height="127.457" filterUnits="userSpaceOnUse" color-interpolation-filters="sRGB">
<feFlood flood-opacity="0" result="BackgroundImageFix"/>
<feColorMatrix in="SourceAlpha" type="matrix" values="0 0 0 0 0 0 0 0 0 0 0 0 0 0 0 0 0 0 127 0" result="hardAlpha"/>
<feOffset dy="7.96603"/>
<feGaussianBlur stdDeviation="23.8981"/>
<feComposite in2="hardAlpha" operator="out"/>
<feColorMatrix type="matrix" values="0 0 0 0 0.0392157 0 0 0 0 0.239216 0 0 0 0 0.164706 0 0 0 0.08 0"/>
<feBlend mode="normal" in2="BackgroundImageFix" result="effect1_dropShadow_105_4375"/>
<feBlend mode="normal" in="SourceGraphic" in2="effect1_dropShadow_105_4375" result="shape"/>
</filter>
<filter id="filter1_d_105_4375" x="219.726" y="259.826" width="127.457" height="127.457" filterUnits="userSpaceOnUse" color-interpolation-filters="sRGB">
<feFlood flood-opacity="0" result="BackgroundImageFix"/>
<feColorMatrix in="SourceAlpha" type="matrix" values="0 0 0 0 0 0 0 0 0 0 0 0 0 0 0 0 0 0 127 0" result="hardAlpha"/>
<feOffset dy="7.96603"/>
<feGaussianBlur stdDeviation="23.8981"/>
<feComposite in2="hardAlpha" operator="out"/>
<feColorMatrix type="matrix" values="0 0 0 0 0.0392157 0 0 0 0 0.239216 0 0 0 0 0.164706 0 0 0 0.08 0"/>
<feBlend mode="normal" in2="BackgroundImageFix" result="effect1_dropShadow_105_4375"/>
<feBlend mode="normal" in="SourceGraphic" in2="effect1_dropShadow_105_4375" result="shape"/>
</filter>
<clipPath id="clip0_105_4375">
<path d="M0.660156 16.19C0.660156 7.35341 7.8236 0.189941 16.6602 0.189941H486.52C495.357 0.189941 502.52 7.35339 502.52 16.1899V336.75H0.660156V16.19Z" fill="white"/>
</clipPath>
<clipPath id="clip1_105_4375">
<rect width="501.86" height="336.56" fill="white" transform="translate(0.660156 0.189941)"/>
</clipPath>
<clipPath id="clip2_105_4375">
<rect width="501.86" height="337.561" fill="white" transform="translate(0.660156 -0.310303)"/>
</clipPath>
</defs>
</svg>
