<svg width="155" height="27" viewBox="0 0 155 27" fill="none" xmlns="http://www.w3.org/2000/svg">
<path d="M23.5318 21.2181H31.5818L11.6398 0.682129H3.58782L23.5318 21.2181ZM15.7728 0.682129L34.9978 20.4781V0.682129H29.7948V6.93213L23.7248 0.682129H15.7728ZM0.21582 1.36213V21.2101H5.41982V14.9601L11.4898 21.2101H19.4938L0.21582 1.36213ZM47.5558 18.1291H52.2178V20.9571H43.9978V5.91413H47.5558V18.1291ZM58.5778 21.1301C57.4398 21.1301 56.4138 20.8801 55.4978 20.3801C54.5966 19.8811 53.8537 19.1389 53.3538 18.2381C52.8408 17.3091 52.5838 16.2231 52.5838 14.9801C52.5838 13.7521 52.8478 12.6731 53.3748 11.7451C53.8735 10.8305 54.6251 10.0788 55.5398 9.58013C56.4548 9.08013 57.4818 8.83013 58.6198 8.83013C59.7568 8.83013 60.7838 9.08013 61.6998 9.58013C62.6141 10.079 63.3654 10.8306 63.8638 11.7451C64.3908 12.6731 64.6538 13.7521 64.6538 14.9801C64.6538 16.2091 64.3838 17.2951 63.8438 18.2381C63.336 19.1472 62.5771 19.8909 61.6578 20.3801C60.7418 20.8801 59.7158 21.1301 58.5778 21.1301ZM58.5778 17.9591C59.2578 17.9591 59.8338 17.7021 60.3048 17.1881C60.7908 16.6731 61.0338 15.9381 61.0338 14.9801C61.0338 14.0231 60.7978 13.2871 60.3258 12.7731C60.116 12.5266 59.8542 12.3296 59.5593 12.1963C59.2643 12.063 58.9435 11.9967 58.6198 12.0021C57.9258 12.0021 57.3498 12.2591 56.8918 12.7731C56.4338 13.2731 56.2058 14.0091 56.2058 14.9801C56.2058 15.9381 56.4268 16.6731 56.8718 17.1881C57.0816 17.4346 57.3434 17.6316 57.6384 17.7649C57.9333 17.8982 58.2542 17.9646 58.5778 17.9591ZM70.3248 8.83013C71.1438 8.83013 71.8578 9.00213 72.4688 9.34513C73.0928 9.68713 73.5718 10.1381 73.9048 10.6951V9.00213H77.4628V20.9381C77.4628 22.0381 77.2478 23.0311 76.8178 23.9161C76.4064 24.811 75.7312 25.5588 74.8828 26.0591C74.0228 26.5881 72.9468 26.8521 71.6568 26.8521C69.9368 26.8521 68.5418 26.4311 67.4738 25.5881C66.4058 24.7591 65.7958 23.6311 65.6428 22.2021H69.1598C69.2698 22.6591 69.5338 23.0161 69.9498 23.2731C70.3668 23.5451 70.8798 23.6811 71.4898 23.6811C72.2258 23.6811 72.8088 23.4591 73.2388 23.0161C73.6828 22.5881 73.9048 21.8951 73.9048 20.9381V19.2451C73.5462 19.8133 73.0529 20.2842 72.4688 20.6161C71.8588 20.9591 71.1438 21.1311 70.3248 21.1311C69.3678 21.1311 68.5008 20.8811 67.7238 20.3811C66.9468 19.8661 66.3298 19.1451 65.8718 18.2161C65.4278 17.2731 65.2058 16.1881 65.2058 14.9591C65.2058 13.7301 65.4278 12.6521 65.8718 11.7231C66.3298 10.7951 66.9468 10.0801 67.7238 9.58013C68.5008 9.08013 69.3678 8.83013 70.3248 8.83013ZM73.9048 14.9801C73.9048 14.0661 73.6548 13.3451 73.1548 12.8161C72.9317 12.5622 72.656 12.3598 72.347 12.2229C72.0379 12.086 71.7028 12.0178 71.3648 12.0231C70.6578 12.0231 70.0548 12.2871 69.5548 12.8161C69.0698 13.3301 68.8268 14.0451 68.8268 14.9591C68.8268 15.8731 69.0698 16.6021 69.5548 17.1451C70.0548 17.6731 70.6578 17.9381 71.3648 17.9381C72.0728 17.9381 72.6698 17.6731 73.1548 17.1451C73.6548 16.6161 73.9048 15.8951 73.9048 14.9801ZM84.7028 21.1301C83.5648 21.1301 82.5388 20.8801 81.6228 20.3801C80.722 19.8809 79.9794 19.1388 79.4798 18.2381C78.9658 17.3091 78.7098 16.2231 78.7098 14.9801C78.7098 13.7521 78.9728 12.6731 79.4998 11.7451C79.9985 10.8304 80.7501 10.0788 81.6648 9.58013C82.5798 9.08013 83.6068 8.83013 84.7448 8.83013C85.8818 8.83013 86.9088 9.08013 87.8248 9.58013C88.7391 10.079 89.4904 10.8306 89.9888 11.7451C90.5158 12.6731 90.7788 13.7521 90.7788 14.9801C90.7788 16.2091 90.5088 17.2951 89.9688 18.2381C89.4609 19.1472 88.702 19.8908 87.7828 20.3801C86.8668 20.8801 85.8408 21.1301 84.7028 21.1301ZM84.7028 17.9591C85.3828 17.9591 85.9588 17.7021 86.4298 17.1881C86.9158 16.6731 87.1588 15.9381 87.1588 14.9801C87.1588 14.0231 86.9228 13.2871 86.4508 12.7731C86.241 12.5266 85.9792 12.3296 85.6843 12.1963C85.3893 12.063 85.0685 11.9967 84.7448 12.0021C84.0508 12.0021 83.4748 12.2591 83.0168 12.7731C82.5598 13.2731 82.3308 14.0091 82.3308 14.9801C82.3308 15.9381 82.5528 16.6731 82.9968 17.1881C83.2066 17.4346 83.4684 17.6316 83.7634 17.7649C84.0583 17.8982 84.3792 17.9646 84.7028 17.9591ZM93.8318 7.75713C93.2078 7.75713 92.6948 7.57113 92.2918 7.19913C92.103 7.01598 91.9539 6.79593 91.8537 6.55267C91.7536 6.30941 91.7046 6.04814 91.7098 5.78513C91.7098 5.21413 91.9038 4.74213 92.2918 4.37113C92.6948 3.98513 93.2078 3.79213 93.8318 3.79213C94.4418 3.79213 94.9418 3.98513 95.3308 4.37113C95.7328 4.74213 95.9338 5.21413 95.9338 5.78513C95.9338 6.34213 95.7338 6.81413 95.3308 7.19913C94.9418 7.57113 94.4428 7.75713 93.8318 7.75713ZM95.6018 8.99913V20.9571H92.0418V8.99913H95.6018ZM101.113 10.6951C101.468 10.1297 101.963 9.66494 102.549 9.34513C103.159 9.00213 103.874 8.83013 104.692 8.83013C105.65 8.83013 106.517 9.08013 107.294 9.58013C108.071 10.0801 108.681 10.7951 109.125 11.7231C109.583 12.6521 109.812 13.7301 109.812 14.9591C109.812 16.1881 109.583 17.2731 109.125 18.2161C108.681 19.1451 108.071 19.8661 107.294 20.3811C106.517 20.8811 105.65 21.1311 104.692 21.1311C103.888 21.1311 103.173 20.9591 102.549 20.6161C101.967 20.3001 101.473 19.8436 101.113 19.2881V26.6591H97.5538V9.00213H101.113V10.6951ZM106.191 14.9591C106.191 14.0451 105.941 13.3301 105.442 12.8161C105.215 12.5609 104.936 12.3578 104.623 12.2209C104.311 12.0839 103.972 12.0165 103.631 12.0231C102.923 12.0231 102.32 12.2871 101.821 12.8161C101.335 13.3451 101.093 14.0661 101.093 14.9801C101.093 15.8951 101.335 16.6161 101.821 17.1451C102.32 17.6731 102.923 17.9381 103.631 17.9381C104.339 17.9381 104.942 17.6731 105.442 17.1451C105.941 16.6021 106.191 15.8731 106.191 14.9591ZM115.777 21.1301C114.764 21.1301 113.863 20.9521 113.072 20.5951C112.281 20.2381 111.656 19.7521 111.199 19.1381C110.747 18.5261 110.48 17.7973 110.429 17.0381H113.946C113.963 17.2363 114.021 17.4285 114.118 17.6022C114.215 17.7758 114.348 17.9268 114.508 18.0451C114.84 18.3021 115.25 18.4311 115.736 18.4311C116.18 18.4311 116.519 18.3451 116.756 18.1731C117.005 17.9881 117.13 17.7521 117.13 17.4661C117.13 17.1231 116.956 16.8731 116.61 16.7161C116.262 16.5451 115.7 16.3591 114.924 16.1591C114.217 15.9973 113.522 15.7899 112.842 15.5381C112.286 15.3083 111.793 14.9482 111.406 14.4881C111.005 14.0021 110.803 13.3521 110.803 12.5381C110.803 11.8521 110.984 11.2301 111.344 10.6731C111.719 10.1021 112.26 9.65213 112.967 9.32313C113.689 8.99413 114.542 8.83013 115.527 8.83013C116.984 8.83013 118.129 9.20213 118.961 9.94513C119.808 10.6871 120.293 11.6731 120.418 12.9021H117.13C117.074 12.4871 116.894 12.1591 116.588 11.9161C116.297 11.6731 115.909 11.5521 115.423 11.5521C115.007 11.5521 114.688 11.6371 114.466 11.8091C114.359 11.8825 114.272 11.982 114.214 12.0981C114.155 12.2143 114.128 12.3433 114.133 12.4731C114.133 12.8161 114.307 13.0731 114.653 13.2451C115.014 13.4161 115.569 13.5881 116.319 13.7591C117.179 13.9871 117.879 14.2161 118.42 14.4451C118.961 14.6591 119.433 15.0161 119.835 15.5161C120.252 16.0021 120.466 16.6591 120.48 17.4871C120.48 18.1871 120.286 18.8171 119.897 19.3731C119.523 19.9161 118.975 20.3451 118.254 20.6591C117.546 20.9731 116.72 21.1301 115.777 21.1301ZM133.502 9.00013V20.9581H129.943V19.3291C129.582 19.8581 129.09 20.2861 128.466 20.6151C127.834 20.9342 127.135 21.0958 126.427 21.0861C125.538 21.0861 124.754 20.8861 124.074 20.4861C123.395 20.0721 122.868 19.4791 122.493 18.7081C122.119 17.9361 121.931 17.0291 121.931 15.9861V9.00013H125.469V15.4931C125.469 16.2931 125.67 16.9151 126.072 17.3581C126.475 17.8011 127.016 18.0221 127.695 18.0221C128.389 18.0221 128.937 17.8011 129.34 17.3581C129.743 16.9151 129.943 16.2931 129.943 15.4931V9.00013H133.502ZM150.251 8.87113C151.694 8.87113 152.839 9.32113 153.685 10.2211C154.546 11.1211 154.976 12.3711 154.976 13.9711V20.9571H151.437V14.4641C151.437 13.6931 151.237 13.1001 150.834 12.6861C150.445 12.2571 149.904 12.0431 149.211 12.0431C148.517 12.0431 147.969 12.2571 147.566 12.6861C147.178 13.1001 146.984 13.6931 146.984 14.4641V20.9571H143.446V14.4641C143.446 13.6931 143.245 13.1001 142.842 12.6861C142.454 12.2571 141.913 12.0431 141.219 12.0431C140.525 12.0431 139.978 12.2571 139.575 12.6861C139.187 13.1001 138.993 13.6931 138.993 14.4641V20.9571H135.434V9.00013H138.993V10.5001C139.353 10.0001 139.825 9.60713 140.408 9.32113C140.991 9.02113 141.649 8.87113 142.384 8.87113C143.258 8.87113 144.036 9.06413 144.715 9.45013C145.404 9.83146 145.968 10.4046 146.339 11.1001C146.746 10.4375 147.311 9.88558 147.983 9.49313C148.667 9.08125 149.452 8.86604 150.251 8.87113Z" fill="#252525"/>
</svg>
