<svg width="153" height="33" viewBox="0 0 153 33" fill="none" xmlns="http://www.w3.org/2000/svg">
<mask id="mask0_105_5143" style="mask-type:luminance" maskUnits="userSpaceOnUse" x="0" y="0" width="153" height="33">
<path d="M0.373047 0.758301H152.446V32.7533H0.373047V0.758301Z" fill="white"/>
</mask>
<g mask="url(#mask0_105_5143)">
<path d="M46.0652 24.9953V8.7103H48.9852V22.2043H56.0622V24.9953H46.0652ZM62.3632 25.3223C61.2722 25.3223 60.2912 25.0903 59.4212 24.6243C58.5548 24.1623 57.8407 23.4593 57.3652 22.6003C56.8632 21.7163 56.6132 20.6543 56.6132 19.4133V19.0413C56.6132 17.8003 56.8632 16.7373 57.3652 15.8533C57.8408 14.9943 58.5549 14.2914 59.4212 13.8293C60.2912 13.3643 61.2712 13.1313 62.3632 13.1313C63.4532 13.1313 64.4342 13.3643 65.3042 13.8293C66.1709 14.2913 66.8853 14.9942 67.3612 15.8533C67.8622 16.7373 68.1132 17.8003 68.1132 19.0413V19.4133C68.1132 20.6533 67.8632 21.7163 67.3612 22.6003C66.8853 23.4594 66.1709 24.1624 65.3042 24.6243C64.4342 25.0903 63.4542 25.3223 62.3632 25.3223ZM62.3632 22.7173C63.2182 22.7173 63.9262 22.4303 64.4862 21.8563C65.0462 21.2663 65.3262 20.4293 65.3262 19.3433V19.1103C65.3262 18.0253 65.0462 17.1953 64.4862 16.6213C63.9402 16.0313 63.2332 15.7373 62.3632 15.7373C61.5082 15.7373 60.8002 16.0323 60.2402 16.6213C59.6802 17.1953 59.4002 18.0253 59.4002 19.1113V19.3433C59.4002 20.4293 59.6802 21.2663 60.2402 21.8563C60.8002 22.4303 61.5072 22.7173 62.3632 22.7173ZM69.1592 19.2733V18.9013C69.1592 17.6913 69.3872 16.6603 69.8442 15.8073C70.3012 14.9383 70.9062 14.2793 71.6582 13.8293C72.4098 13.3682 73.2754 13.1265 74.1572 13.1313C75.1592 13.1313 75.9192 13.3173 76.4352 13.6903C76.9512 14.0623 77.3272 14.4503 77.5632 14.8533H77.9612V13.4573H80.7032V27.0443C80.7032 27.8343 80.4822 28.4633 80.0402 28.9283C79.5972 29.4093 79.0082 29.6493 78.2702 29.6493H70.9282V27.0903H77.2982C77.7102 27.0903 77.9162 26.8583 77.9162 26.3923V23.3923H77.5182C77.3446 23.6728 77.1367 23.9304 76.8992 24.1593C76.6342 24.4073 76.2802 24.6173 75.8382 24.7873C75.3952 24.9573 74.8352 25.0433 74.1572 25.0433C73.2572 25.0433 72.4242 24.8183 71.6572 24.3683C70.9062 23.9033 70.3012 23.2443 69.8442 22.3913C69.3872 21.5223 69.1592 20.4833 69.1592 19.2733ZM74.9532 22.4833C75.8082 22.4833 76.5232 22.1973 77.0982 21.6233C77.6732 21.0493 77.9612 20.2433 77.9612 19.2033V18.9713C77.9612 17.9163 77.6732 17.1103 77.0982 16.5513C76.5382 15.9773 75.8232 15.6913 74.9532 15.6913C74.0982 15.6913 73.3832 15.9773 72.8082 16.5513C72.2332 17.1103 71.9452 17.9163 71.9452 18.9713V19.2033C71.9452 20.2433 72.2332 21.0493 72.8082 21.6233C73.3832 22.1973 74.0982 22.4833 74.9532 22.4833ZM88.0182 25.3223C86.9272 25.3223 85.9462 25.0903 85.0762 24.6243C84.2099 24.1622 83.4958 23.4593 83.0202 22.6003C82.5182 21.7163 82.2682 20.6543 82.2682 19.4133V19.0413C82.2682 17.8003 82.5182 16.7373 83.0202 15.8533C83.4958 14.9944 84.2099 14.2914 85.0762 13.8293C85.9462 13.3643 86.9262 13.1313 88.0182 13.1313C89.1082 13.1313 90.0892 13.3643 90.9592 13.8293C91.8259 14.2913 92.5403 14.9942 93.0162 15.8533C93.5172 16.7373 93.7682 17.8003 93.7682 19.0413V19.4133C93.7682 20.6533 93.5182 21.7163 93.0162 22.6003C92.5403 23.4594 91.8259 24.1624 90.9592 24.6243C90.0892 25.0903 89.1092 25.3223 88.0182 25.3223ZM88.0182 22.7173C88.8732 22.7173 89.5812 22.4303 90.1412 21.8563C90.7012 21.2663 90.9812 20.4293 90.9812 19.3433V19.1103C90.9812 18.0253 90.7012 17.1953 90.1412 16.6213C89.5952 16.0313 88.8882 15.7373 88.0182 15.7373C87.1622 15.7373 86.4552 16.0323 85.8952 16.6213C85.3352 17.1953 85.0552 18.0253 85.0552 19.1113V19.3433C85.0552 20.4293 85.3352 21.2663 85.8952 21.8563C86.4552 22.4303 87.1622 22.7173 88.0182 22.7173ZM95.3452 24.9933V13.4533H98.1312V24.9933H95.3452ZM96.7382 12.1043C96.2362 12.1043 95.8102 11.9343 95.4552 11.5933C95.1162 11.2513 94.9472 10.8023 94.9472 10.2433C94.9472 9.6853 95.1172 9.2353 95.4552 8.8933C95.6243 8.72704 95.8249 8.59621 96.0452 8.50846C96.2655 8.42071 96.5011 8.37782 96.7382 8.3823C97.2542 8.3823 97.6822 8.5523 98.0202 8.8943C98.3602 9.2353 98.5302 9.6843 98.5302 10.2443C98.5302 10.8023 98.3602 11.2513 98.0202 11.5933C97.6822 11.9333 97.2542 12.1043 96.7382 12.1043ZM100.223 29.6503V13.4563H102.965V14.8523H103.363C103.613 14.4023 104.004 14.0073 104.535 13.6653C105.065 13.3093 105.825 13.1303 106.813 13.1303C107.681 13.1258 108.532 13.3679 109.267 13.8283C110.02 14.2783 110.624 14.9453 111.081 15.8293C111.538 16.7133 111.767 17.7833 111.767 19.0393V19.4123C111.767 20.6683 111.538 21.7383 111.081 22.6223C110.624 23.5073 110.02 24.1823 109.267 24.6463C108.515 25.0963 107.697 25.3213 106.813 25.3213C106.15 25.3213 105.589 25.2363 105.132 25.0653C104.69 24.9103 104.329 24.7093 104.048 24.4603C103.804 24.2231 103.589 23.9579 103.407 23.6703H103.008V29.6493L100.223 29.6503ZM105.972 22.7633C106.843 22.7633 107.557 22.4763 108.117 21.9033C108.692 21.3133 108.98 20.4603 108.98 19.3433V19.1103C108.98 17.9943 108.692 17.1483 108.117 16.5753C107.542 15.9853 106.827 15.6903 105.972 15.6903C105.118 15.6903 104.402 15.9853 103.827 16.5753C103.252 17.1483 102.965 17.9943 102.965 19.1103V19.3433C102.965 20.4603 103.252 21.3133 103.827 21.9033C104.402 22.4763 105.118 22.7633 105.972 22.7633ZM117.887 25.3223C116.457 25.3223 115.285 24.9973 114.37 24.3453C113.457 23.6943 112.904 22.7633 112.712 21.5533L115.277 20.8553C115.381 21.3983 115.55 21.8253 115.787 22.1353C116.037 22.4453 116.339 22.6703 116.693 22.8103C117.061 22.9343 117.459 22.9963 117.887 22.9963C118.536 22.9963 119.015 22.8793 119.324 22.6463C119.634 22.3993 119.789 22.0963 119.789 21.7393C119.796 21.5764 119.758 21.4147 119.68 21.2714C119.603 21.1281 119.487 21.0085 119.347 20.9253C119.051 20.7243 118.58 20.5613 117.932 20.4373L117.312 20.3203C116.593 20.1796 115.89 19.9693 115.212 19.6923C114.577 19.4123 114.068 19.0323 113.685 18.5523C113.302 18.0723 113.11 17.4513 113.11 16.6913C113.11 15.5433 113.508 14.6673 114.305 14.0613C115.1 13.4413 116.148 13.1313 117.445 13.1313C118.668 13.1313 119.686 13.4183 120.497 13.9923C121.308 14.5663 121.838 15.3183 122.089 16.2493L119.502 17.0863C119.384 16.4973 119.141 16.0783 118.772 15.8303C118.418 15.5823 117.976 15.4583 117.445 15.4583C116.914 15.4583 116.509 15.5583 116.229 15.7603C116.096 15.8435 115.987 15.9604 115.913 16.0993C115.839 16.2382 115.803 16.3941 115.809 16.5513C115.809 16.9233 115.956 17.2033 116.25 17.3893C116.545 17.5593 116.943 17.6913 117.445 17.7843L118.064 17.9013C118.89 18.0563 119.634 18.2653 120.298 18.5293C120.976 18.7773 121.507 19.1413 121.89 19.6223C122.288 20.0883 122.487 20.7233 122.487 21.5303C122.487 22.7403 122.067 23.6783 121.227 24.3453C120.401 24.9973 119.288 25.3223 117.887 25.3223ZM128.116 25.1773C127.26 25.1773 126.508 24.9763 125.859 24.5723C125.225 24.1543 124.732 23.5803 124.378 22.8513C124.024 22.1213 123.847 21.2843 123.847 20.3383V13.4523H126.634V20.1053C126.634 20.9743 126.833 21.6253 127.231 22.0603C127.643 22.4943 128.226 22.7113 128.978 22.7113C129.833 22.7113 130.497 22.4173 130.968 21.8273C131.44 21.2223 131.676 20.3853 131.676 19.3153V13.4523H134.463V24.9923H131.72V23.4793H131.323C131.146 23.8673 130.813 24.2473 130.327 24.6193C129.841 24.9913 129.103 25.1773 128.116 25.1773ZM136.566 24.9983V13.4583H139.308V14.7143H139.706C139.898 14.3273 140.216 13.9943 140.658 13.7143C141.1 13.4193 141.682 13.2723 142.405 13.2723C143.186 13.2723 143.813 13.4353 144.285 13.7603C144.756 14.0703 145.117 14.4823 145.368 14.9943H145.767C146.014 14.502 146.378 14.0781 146.828 13.7603C147.285 13.4353 147.934 13.2723 148.774 13.2723C149.416 13.2631 150.05 13.4235 150.61 13.7373C151.17 14.0323 151.613 14.4893 151.937 15.1103C152.276 15.7153 152.445 16.4823 152.445 17.4133V24.9973H149.659V17.6233C149.659 16.9873 149.504 16.5133 149.195 16.2033C148.885 15.8783 148.45 15.7153 147.89 15.7153C147.256 15.7153 146.762 15.9323 146.408 16.3663C146.069 16.7853 145.9 17.3903 145.9 18.1813V24.9983H143.113V17.6223C143.113 16.9873 142.958 16.5133 142.648 16.2033C142.338 15.8783 141.904 15.7153 141.343 15.7153C140.709 15.7153 140.215 15.9323 139.861 16.3663C139.522 16.7853 139.353 17.3903 139.353 18.1813V24.9983H136.566ZM37.2302 16.2693C37.2302 12.1553 35.6772 8.2093 32.9122 5.3013C30.1472 2.3923 26.3972 0.758301 22.4872 0.758301C18.5772 0.758301 14.8262 2.3923 12.0612 5.3013C9.29619 8.2103 7.74219 12.1553 7.74219 16.2693H12.3502C13.8772 16.2693 15.0682 14.9233 15.6272 13.4283C15.993 12.4456 16.5532 11.5467 17.2742 10.7853C18.6562 9.3303 20.5312 8.5133 22.4872 8.5133C24.4422 8.5133 26.3172 9.3303 27.6992 10.7853C29.0822 12.2393 29.8592 14.2123 29.8592 16.2683H37.2312L37.2302 16.2693ZM28.7392 22.2073C29.4818 20.3164 29.8624 18.3028 29.8612 16.2713H37.2322C37.2322 24.8383 30.6322 31.7813 22.4882 31.7813C21.2409 31.7821 19.9991 31.6174 18.7952 31.2913C19.4658 31.1094 20.1222 30.8788 20.7592 30.6013C22.5627 29.8119 24.1894 28.6686 25.5432 27.2393C26.9224 25.7832 28.0076 24.0747 28.7392 22.2073Z" fill="#252525"/>
<path d="M0.37307 16.2713C0.37307 18.3083 0.75307 20.3253 1.49507 22.2073C2.22636 24.0749 3.3112 25.7838 4.69007 27.2403C6.04358 28.6695 7.66999 29.8127 9.47307 30.6023C11.2631 31.3823 13.1801 31.7823 15.1161 31.7823C17.0521 31.7823 18.9691 31.3823 20.7581 30.6023C22.5612 29.8127 24.1876 28.6695 25.5411 27.2403C26.9206 25.7843 28.0061 24.0757 28.7381 22.2083C29.4807 20.3174 29.8613 18.3038 29.8601 16.2723H25.2521C23.7251 16.2723 22.5351 17.6183 21.9751 19.1123C21.6095 20.0952 21.0493 20.9941 20.3281 21.7553C19.6516 22.4702 18.8385 23.0422 17.9371 23.4373C17.0473 23.8255 16.0869 24.0259 15.1161 24.0259C14.1452 24.0259 13.1849 23.8255 12.2951 23.4373C11.3934 23.0429 10.5801 22.4716 9.90307 21.7573C9.21338 21.029 8.67079 20.1743 8.30507 19.2403C7.93379 18.2948 7.74349 17.288 7.74407 16.2723L0.37307 16.2713ZM0.37307 16.2693C0.37307 7.7023 6.97307 0.758301 15.1171 0.758301C16.3921 0.758301 17.6291 0.928301 18.8091 1.2483C16.2307 1.95521 13.8964 3.35729 12.0611 5.3013C9.29607 8.2103 7.74207 12.1553 7.74207 16.2693H0.37307Z" fill="#252525"/>
</g>
</svg>
