<svg width="22" height="22" viewBox="0 0 22 22" fill="none" xmlns="http://www.w3.org/2000/svg">
<path d="M17.7711 20.3499H2.94005C2.2278 20.3499 1.65039 19.7725 1.65039 19.0602V2.93956C1.65039 2.22729 2.2278 1.6499 2.94005 1.6499H13.9021C14.6144 1.6499 15.1918 2.22731 15.1918 2.93956V8.42059M17.7711 20.3499C16.3465 20.3499 15.192 19.1951 15.192 17.7706V8.09814H18.123C19.3534 8.09814 20.3506 9.09543 20.3506 10.3258V17.7706C20.3506 19.1951 19.1956 20.3499 17.7711 20.3499ZM5.84174 13.2568H11.0004M5.84174 16.4809H11.0004M5.51902 6.80855C5.51902 6.09629 6.09643 5.51889 6.80868 5.51889H10.0328C10.7451 5.51889 11.3225 6.09629 11.3225 6.80855V8.74303C11.3225 9.4553 10.7451 10.0327 10.0328 10.0327H6.80868C6.09643 10.0327 5.51902 9.4553 5.51902 8.74303V6.80855Z" stroke="#FF5E15" stroke-width="1.65" stroke-linecap="round" stroke-linejoin="round"/>
</svg>
