<svg width="397" height="255" viewBox="0 0 397 255" fill="none" xmlns="http://www.w3.org/2000/svg">
<rect x="36.1875" y="98.2612" width="41.5445" height="41.5445" rx="20.7722" fill="#FF5E15"/>
<g clip-path="url(#clip0_105_4527)">
<path d="M67.4734 126.5H65.9987V116C65.9987 115.602 65.8407 115.221 65.5594 114.939C65.2781 114.658 64.8965 114.5 64.4987 114.5H60.3737C60.2743 114.5 60.1789 114.54 60.1086 114.61C60.0382 114.68 59.9987 114.776 59.9987 114.875V126.5H58.4987V110.038C58.5012 109.805 58.4505 109.574 58.3504 109.363C58.2504 109.151 58.1036 108.966 57.9212 108.82C57.6726 108.626 57.3692 108.515 57.0542 108.504C56.7391 108.492 56.4284 108.58 56.1662 108.755L48.6662 113.75C48.4605 113.887 48.2919 114.073 48.1754 114.292C48.0589 114.51 47.9982 114.753 47.9987 115.001V126.5H46.524C46.3302 126.497 46.1425 126.568 45.9987 126.698C45.8548 126.828 45.7655 127.007 45.7487 127.2C45.7419 127.303 45.7563 127.406 45.7909 127.503C45.8255 127.599 45.8797 127.688 45.95 127.763C46.0204 127.838 46.1054 127.898 46.1997 127.939C46.2941 127.979 46.3959 128 46.4987 128H67.4987C67.6015 128 67.7033 127.979 67.7977 127.939C67.8921 127.898 67.9771 127.838 68.0474 127.763C68.1178 127.688 68.1719 127.599 68.2065 127.503C68.2412 127.406 68.2555 127.303 68.2487 127.2C68.2319 127.007 68.1426 126.828 67.9988 126.698C67.8549 126.568 67.6672 126.497 67.4734 126.5ZM52.1237 124.25C52.1239 124.353 52.103 124.455 52.0623 124.549C52.0215 124.643 51.9618 124.728 51.8868 124.799C51.8118 124.869 51.7231 124.923 51.6263 124.958C51.5295 124.993 51.4266 125.007 51.324 125C51.1308 124.983 50.951 124.894 50.8211 124.75C50.6911 124.606 50.6206 124.418 50.6237 124.224V122.775C50.6211 122.582 50.6918 122.394 50.8217 122.25C50.9516 122.106 51.131 122.017 51.324 122C51.4266 121.993 51.5295 122.008 51.6263 122.042C51.7231 122.077 51.8118 122.131 51.8868 122.201C51.9618 122.272 52.0215 122.357 52.0623 122.451C52.103 122.545 52.1239 122.647 52.1237 122.75V124.25ZM52.1237 119C52.1239 119.103 52.103 119.205 52.0623 119.299C52.0215 119.393 51.9618 119.478 51.8868 119.549C51.8118 119.619 51.7231 119.673 51.6263 119.708C51.5295 119.743 51.4266 119.757 51.324 119.75C51.1308 119.733 50.9513 119.644 50.8214 119.5C50.6914 119.356 50.6208 119.168 50.6237 118.974V117.525C50.6211 117.332 50.6918 117.144 50.8217 117C50.9516 116.856 51.131 116.767 51.324 116.75C51.4266 116.743 51.5295 116.758 51.6263 116.792C51.7231 116.827 51.8118 116.881 51.8868 116.951C51.9618 117.022 52.0215 117.107 52.0623 117.201C52.103 117.295 52.1239 117.397 52.1237 117.5V119ZM55.8737 124.25C55.8739 124.353 55.853 124.455 55.8123 124.549C55.7715 124.643 55.7118 124.728 55.6368 124.799C55.5618 124.869 55.4731 124.923 55.3763 124.958C55.2795 124.993 55.1766 125.007 55.074 125C54.8811 124.983 54.7016 124.894 54.5717 124.75C54.4418 124.607 54.3711 124.419 54.3737 124.226V122.775C54.3713 122.582 54.4421 122.394 54.572 122.251C54.7019 122.107 54.8812 122.018 55.074 122.001C55.1766 121.994 55.2795 122.009 55.3763 122.043C55.4731 122.078 55.5618 122.132 55.6368 122.202C55.7118 122.273 55.7715 122.358 55.8123 122.452C55.853 122.546 55.8739 122.648 55.8737 122.751V124.25ZM55.8737 119C55.8739 119.103 55.853 119.205 55.8123 119.299C55.7715 119.393 55.7118 119.478 55.6368 119.549C55.5618 119.619 55.4731 119.673 55.3763 119.708C55.2795 119.743 55.1766 119.757 55.074 119.75C54.8812 119.733 54.7019 119.644 54.572 119.5C54.4421 119.357 54.3713 119.169 54.3737 118.976V117.525C54.3713 117.332 54.4421 117.144 54.572 117.001C54.7019 116.857 54.8812 116.768 55.074 116.751C55.1766 116.744 55.2795 116.759 55.3763 116.793C55.4731 116.828 55.5618 116.882 55.6368 116.952C55.7118 117.023 55.7715 117.108 55.8123 117.202C55.853 117.296 55.8739 117.398 55.8737 117.501V119Z" fill="white"/>
</g>
<g filter="url(#filter0_d_105_4527)">
<path d="M88.8242 64.2413C88.8242 54.1669 96.9911 46 107.065 46H294.95C305.025 46 313.192 54.1669 313.192 64.2413V108.522C313.192 118.596 305.025 126.763 294.95 126.763H88.8242V64.2413Z" fill="white" fill-opacity="0.01" shape-rendering="crispEdges"/>
<g clip-path="url(#clip1_105_4527)">
<g clip-path="url(#clip2_105_4527)">
<g clip-path="url(#clip3_105_4527)">
<path d="M88.8242 63.9494C88.8242 54.0357 96.8599 46 106.774 46H295.242C305.156 46 313.192 54.0357 313.192 63.9494V108.823C313.192 118.737 305.156 126.772 295.242 126.772H88.8242V63.9494Z" fill="white"/>
<path d="M113.398 78.1323L118.518 63.9323H121.258L126.378 78.1323H124.078L122.778 74.4323H116.978L115.698 78.1323H113.398ZM117.658 72.4723H122.118L119.878 65.9923L117.658 72.4723ZM132.276 78.3723C131.263 78.3723 130.376 78.1457 129.616 77.6923C128.856 77.239 128.27 76.5923 127.856 75.7523C127.443 74.9123 127.236 73.9323 127.236 72.8123C127.236 71.6923 127.443 70.719 127.856 69.8923C128.27 69.0523 128.856 68.4057 129.616 67.9523C130.376 67.4857 131.263 67.2523 132.276 67.2523C133.143 67.2523 133.91 67.4057 134.576 67.7123C135.256 68.0057 135.803 68.439 136.216 69.0123C136.643 69.5857 136.916 70.2857 137.036 71.1123L134.816 71.2323C134.71 70.539 134.43 70.0123 133.976 69.6523C133.523 69.279 132.956 69.0923 132.276 69.0923C131.383 69.0923 130.683 69.4257 130.176 70.0923C129.683 70.7457 129.436 71.6523 129.436 72.8123C129.436 73.9723 129.683 74.8857 130.176 75.5523C130.683 76.2057 131.383 76.5323 132.276 76.5323C132.956 76.5323 133.523 76.3457 133.976 75.9723C134.43 75.5857 134.71 75.0057 134.816 74.2323L137.036 74.3523C136.916 75.1657 136.643 75.8723 136.216 76.4723C135.803 77.0723 135.256 77.539 134.576 77.8723C133.91 78.2057 133.143 78.3723 132.276 78.3723ZM143.351 78.3723C142.311 78.3723 141.411 78.1457 140.651 77.6923C139.904 77.239 139.324 76.5923 138.911 75.7523C138.511 74.9123 138.311 73.9323 138.311 72.8123C138.311 71.6923 138.511 70.719 138.911 69.8923C139.324 69.0523 139.904 68.4057 140.651 67.9523C141.397 67.4857 142.277 67.2523 143.291 67.2523C144.251 67.2523 145.097 67.479 145.831 67.9323C146.564 68.3723 147.131 69.0123 147.531 69.8523C147.944 70.6923 148.151 71.7057 148.151 72.8923V73.4323H140.511C140.564 74.4723 140.837 75.2523 141.331 75.7723C141.837 76.2923 142.517 76.5523 143.371 76.5523C143.997 76.5523 144.517 76.4057 144.931 76.1123C145.344 75.819 145.631 75.4257 145.791 74.9323L147.991 75.0723C147.711 76.059 147.157 76.859 146.331 77.4723C145.517 78.0723 144.524 78.3723 143.351 78.3723ZM140.511 71.8323H145.911C145.844 70.8857 145.571 70.1857 145.091 69.7323C144.624 69.279 144.024 69.0523 143.291 69.0523C142.531 69.0523 141.904 69.2923 141.411 69.7723C140.931 70.239 140.631 70.9257 140.511 71.8323ZM152.147 78.1323L148.907 67.4923H151.127L153.407 75.8123L155.747 67.4923H157.747L160.087 75.8123L162.387 67.4923H164.607L161.367 78.1323H158.987L156.747 70.5323L154.507 78.1323H152.147ZM170.382 78.3723C169.369 78.3723 168.482 78.1457 167.722 77.6923C166.962 77.239 166.375 76.5923 165.962 75.7523C165.549 74.9123 165.342 73.9323 165.342 72.8123C165.342 71.679 165.549 70.699 165.962 69.8723C166.375 69.0457 166.962 68.4057 167.722 67.9523C168.482 67.4857 169.369 67.2523 170.382 67.2523C171.395 67.2523 172.282 67.4857 173.042 67.9523C173.802 68.4057 174.389 69.0457 174.802 69.8723C175.215 70.699 175.422 71.679 175.422 72.8123C175.422 73.9323 175.215 74.9123 174.802 75.7523C174.389 76.5923 173.802 77.239 173.042 77.6923C172.282 78.1457 171.395 78.3723 170.382 78.3723ZM170.382 76.5323C171.289 76.5323 171.989 76.2057 172.482 75.5523C172.975 74.8857 173.222 73.9723 173.222 72.8123C173.222 71.6523 172.975 70.7457 172.482 70.0923C171.989 69.4257 171.289 69.0923 170.382 69.0923C169.489 69.0923 168.789 69.4257 168.282 70.0923C167.789 70.7457 167.542 71.6523 167.542 72.8123C167.542 73.9723 167.789 74.8857 168.282 75.5523C168.789 76.2057 169.489 76.5323 170.382 76.5323ZM177.564 78.1323V67.4923H179.504L179.584 70.3123L179.404 70.2523C179.551 69.2923 179.844 68.5923 180.284 68.1523C180.738 67.7123 181.344 67.4923 182.104 67.4923H183.124V69.3923H182.104C181.571 69.3923 181.124 69.479 180.764 69.6523C180.404 69.8257 180.131 70.0923 179.944 70.4523C179.771 70.8123 179.684 71.279 179.684 71.8523V78.1323H177.564ZM184.869 78.1323V63.9323H186.989V72.7523L191.769 67.4923H194.449L190.289 71.9723L194.609 78.1323H192.169L188.869 73.2923L186.989 75.2923V78.1323H184.869ZM200.024 78.3723C199.024 78.3723 198.177 78.219 197.484 77.9123C196.804 77.6057 196.277 77.1857 195.904 76.6523C195.53 76.1057 195.317 75.479 195.264 74.7723L197.444 74.6723C197.55 75.259 197.804 75.7257 198.204 76.0723C198.604 76.419 199.21 76.5923 200.024 76.5923C200.69 76.5923 201.217 76.4857 201.604 76.2723C201.99 76.059 202.184 75.719 202.184 75.2523C202.184 74.999 202.117 74.7857 201.984 74.6123C201.864 74.4257 201.624 74.2723 201.264 74.1523C200.904 74.019 200.37 73.8923 199.664 73.7723C198.61 73.5723 197.784 73.339 197.184 73.0723C196.584 72.8057 196.157 72.4657 195.904 72.0523C195.65 71.639 195.524 71.139 195.524 70.5523C195.524 69.579 195.884 68.7857 196.604 68.1723C197.337 67.559 198.39 67.2523 199.764 67.2523C200.684 67.2523 201.457 67.4123 202.084 67.7323C202.71 68.039 203.197 68.459 203.544 68.9923C203.904 69.5123 204.13 70.099 204.224 70.7523L202.044 70.8723C201.977 70.499 201.844 70.179 201.644 69.9123C201.457 69.6323 201.204 69.419 200.884 69.2723C200.564 69.1123 200.184 69.0323 199.744 69.0323C199.064 69.0323 198.557 69.1657 198.224 69.4323C197.89 69.699 197.724 70.0457 197.724 70.4723C197.724 70.7923 197.797 71.0523 197.944 71.2523C198.104 71.4523 198.357 71.619 198.704 71.7523C199.05 71.8723 199.51 71.979 200.084 72.0723C201.19 72.259 202.057 72.4923 202.684 72.7723C203.31 73.039 203.75 73.3723 204.004 73.7723C204.257 74.1723 204.384 74.659 204.384 75.2323C204.384 75.899 204.197 76.4657 203.824 76.9323C203.45 77.399 202.937 77.759 202.284 78.0123C201.63 78.2523 200.877 78.3723 200.024 78.3723Z" fill="#252525"/>
<path d="M117.464 106.356C116.68 106.356 116.017 106.184 115.476 105.838C114.935 105.484 114.524 104.975 114.244 104.312C113.964 103.64 113.824 102.828 113.824 101.876C113.824 101.046 113.894 100.276 114.034 99.5663C114.183 98.8477 114.417 98.2223 114.734 97.6903C115.051 97.149 115.462 96.729 115.966 96.4303C116.479 96.1223 117.1 95.9683 117.828 95.9683C118.743 95.9683 119.457 96.1923 119.97 96.6403C120.483 97.079 120.838 97.667 121.034 98.4043L119.536 98.5303C119.424 98.1663 119.237 97.877 118.976 97.6623C118.724 97.4477 118.341 97.3403 117.828 97.3403C117.063 97.3403 116.461 97.667 116.022 98.3203C115.583 98.9737 115.35 99.9723 115.322 101.316L115.056 101.26C115.159 100.943 115.331 100.654 115.574 100.392C115.817 100.122 116.12 99.907 116.484 99.7483C116.857 99.5803 117.282 99.4963 117.758 99.4963C118.421 99.4963 118.999 99.6363 119.494 99.9163C119.998 100.187 120.385 100.574 120.656 101.078C120.936 101.582 121.076 102.17 121.076 102.842C121.076 103.57 120.922 104.2 120.614 104.732C120.306 105.255 119.881 105.656 119.34 105.936C118.799 106.216 118.173 106.356 117.464 106.356ZM117.478 105.012C118.085 105.012 118.575 104.821 118.948 104.438C119.331 104.046 119.522 103.514 119.522 102.842C119.522 102.422 119.438 102.058 119.27 101.75C119.111 101.433 118.883 101.19 118.584 101.022C118.295 100.854 117.959 100.77 117.576 100.77C117.156 100.77 116.783 100.854 116.456 101.022C116.129 101.19 115.873 101.433 115.686 101.75C115.499 102.058 115.406 102.422 115.406 102.842C115.406 103.262 115.49 103.636 115.658 103.962C115.826 104.289 116.064 104.546 116.372 104.732C116.689 104.919 117.058 105.012 117.478 105.012ZM126.616 106.356C125.795 106.356 125.081 106.146 124.474 105.726C123.868 105.306 123.401 104.709 123.074 103.934C122.748 103.16 122.584 102.24 122.584 101.176C122.584 100.112 122.748 99.193 123.074 98.4183C123.41 97.6343 123.877 97.0323 124.474 96.6123C125.081 96.183 125.795 95.9683 126.616 95.9683C127.447 95.9683 128.161 96.183 128.758 96.6123C129.365 97.0323 129.832 97.6297 130.158 98.4043C130.494 99.179 130.662 100.103 130.662 101.176C130.662 102.24 130.499 103.16 130.172 103.934C129.846 104.709 129.379 105.306 128.772 105.726C128.166 106.146 127.447 106.356 126.616 106.356ZM126.616 104.97C127.41 104.97 128.021 104.644 128.45 103.99C128.88 103.337 129.094 102.399 129.094 101.176C129.094 100.355 128.996 99.6597 128.8 99.0903C128.614 98.521 128.334 98.0917 127.96 97.8023C127.596 97.5037 127.148 97.3543 126.616 97.3543C126.094 97.3543 125.646 97.5037 125.272 97.8023C124.908 98.0917 124.628 98.521 124.432 99.0903C124.246 99.6597 124.152 100.355 124.152 101.176C124.152 102.399 124.367 103.337 124.796 103.99C125.226 104.644 125.832 104.97 126.616 104.97ZM134.146 101.008C133.502 101.008 132.97 100.798 132.55 100.378C132.139 99.9583 131.934 99.347 131.934 98.5443C131.934 97.7323 132.139 97.121 132.55 96.7103C132.97 96.2903 133.502 96.0803 134.146 96.0803C134.79 96.0803 135.317 96.2903 135.728 96.7103C136.138 97.121 136.344 97.7323 136.344 98.5443C136.344 99.347 136.138 99.9583 135.728 100.378C135.317 100.798 134.79 101.008 134.146 101.008ZM134.146 100.07C134.5 100.07 134.766 99.9397 134.944 99.6783C135.121 99.417 135.21 99.039 135.21 98.5443C135.21 98.0497 135.121 97.6717 134.944 97.4103C134.766 97.149 134.5 97.0183 134.146 97.0183C133.8 97.0183 133.534 97.149 133.348 97.4103C133.17 97.6717 133.082 98.0497 133.082 98.5443C133.082 99.039 133.17 99.417 133.348 99.6783C133.534 99.9397 133.8 100.07 134.146 100.07ZM139.886 106.244C139.251 106.244 138.724 106.034 138.304 105.614C137.884 105.194 137.674 104.583 137.674 103.78C137.674 102.968 137.884 102.357 138.304 101.946C138.724 101.526 139.251 101.316 139.886 101.316C140.539 101.316 141.071 101.526 141.482 101.946C141.892 102.357 142.098 102.968 142.098 103.78C142.098 104.583 141.892 105.194 141.482 105.614C141.071 106.034 140.539 106.244 139.886 106.244ZM139.886 105.306C140.24 105.306 140.506 105.176 140.684 104.914C140.861 104.653 140.95 104.275 140.95 103.78C140.95 103.286 140.861 102.908 140.684 102.646C140.506 102.385 140.24 102.254 139.886 102.254C139.54 102.254 139.274 102.385 139.088 102.646C138.91 102.908 138.822 103.286 138.822 103.78C138.822 104.275 138.91 104.653 139.088 104.914C139.274 105.176 139.54 105.306 139.886 105.306ZM133.04 106.132L139.816 96.1923H140.992L134.216 106.132H133.04ZM147.288 106.132V96.1923H148.8V106.132H147.288ZM151.181 106.132V98.6843H152.539L152.595 100.672L152.413 100.574C152.497 100.089 152.656 99.697 152.889 99.3983C153.122 99.0997 153.407 98.8803 153.743 98.7403C154.079 98.591 154.443 98.5163 154.835 98.5163C155.395 98.5163 155.857 98.6423 156.221 98.8943C156.594 99.137 156.874 99.473 157.061 99.9023C157.257 100.322 157.355 100.803 157.355 101.344V106.132H155.871V101.792C155.871 101.354 155.824 100.985 155.731 100.686C155.638 100.388 155.484 100.159 155.269 100C155.054 99.8417 154.774 99.7623 154.429 99.7623C153.906 99.7623 153.482 99.935 153.155 100.28C152.828 100.626 152.665 101.13 152.665 101.792V106.132H151.181ZM162.354 106.3C161.645 106.3 161.024 106.142 160.492 105.824C159.96 105.507 159.55 105.054 159.26 104.466C158.971 103.878 158.826 103.192 158.826 102.408C158.826 101.624 158.971 100.943 159.26 100.364C159.55 99.7763 159.96 99.3237 160.492 99.0063C161.024 98.6797 161.645 98.5163 162.354 98.5163C162.961 98.5163 163.498 98.6237 163.964 98.8383C164.44 99.0437 164.823 99.347 165.112 99.7483C165.411 100.15 165.602 100.64 165.686 101.218L164.132 101.302C164.058 100.817 163.862 100.448 163.544 100.196C163.227 99.935 162.83 99.8043 162.354 99.8043C161.729 99.8043 161.239 100.038 160.884 100.504C160.539 100.962 160.366 101.596 160.366 102.408C160.366 103.22 160.539 103.86 160.884 104.326C161.239 104.784 161.729 105.012 162.354 105.012C162.83 105.012 163.227 104.882 163.544 104.62C163.862 104.35 164.058 103.944 164.132 103.402L165.686 103.486C165.602 104.056 165.411 104.55 165.112 104.97C164.823 105.39 164.44 105.717 163.964 105.95C163.498 106.184 162.961 106.3 162.354 106.3ZM167.04 106.132V98.6843H168.398L168.454 100.658L168.328 100.616C168.431 99.9443 168.636 99.4543 168.944 99.1463C169.262 98.8383 169.686 98.6843 170.218 98.6843H170.932V100.014H170.218C169.845 100.014 169.532 100.075 169.28 100.196C169.028 100.318 168.837 100.504 168.706 100.756C168.585 101.008 168.524 101.335 168.524 101.736V106.132H167.04ZM175.055 106.3C174.327 106.3 173.697 106.142 173.165 105.824C172.643 105.507 172.237 105.054 171.947 104.466C171.667 103.878 171.527 103.192 171.527 102.408C171.527 101.624 171.667 100.943 171.947 100.364C172.237 99.7763 172.643 99.3237 173.165 99.0063C173.688 98.6797 174.304 98.5163 175.013 98.5163C175.685 98.5163 176.278 98.675 176.791 98.9923C177.305 99.3003 177.701 99.7483 177.981 100.336C178.271 100.924 178.415 101.634 178.415 102.464V102.842H173.067C173.105 103.57 173.296 104.116 173.641 104.48C173.996 104.844 174.472 105.026 175.069 105.026C175.508 105.026 175.872 104.924 176.161 104.718C176.451 104.513 176.651 104.238 176.763 103.892L178.303 103.99C178.107 104.681 177.72 105.241 177.141 105.67C176.572 106.09 175.877 106.3 175.055 106.3ZM173.067 101.722H176.847C176.801 101.06 176.609 100.57 176.273 100.252C175.947 99.935 175.527 99.7763 175.013 99.7763C174.481 99.7763 174.043 99.9443 173.697 100.28C173.361 100.607 173.151 101.088 173.067 101.722ZM182.156 106.3C181.381 106.3 180.76 106.123 180.294 105.768C179.836 105.414 179.608 104.914 179.608 104.27C179.608 103.626 179.799 103.127 180.182 102.772C180.574 102.408 181.176 102.147 181.988 101.988L184.55 101.498C184.55 100.92 184.414 100.49 184.144 100.21C183.873 99.921 183.472 99.7763 182.94 99.7763C182.464 99.7763 182.09 99.8837 181.82 100.098C181.549 100.304 181.362 100.612 181.26 101.022L179.734 100.924C179.874 100.178 180.219 99.5897 180.77 99.1603C181.33 98.731 182.053 98.5163 182.94 98.5163C183.948 98.5163 184.713 98.787 185.236 99.3283C185.768 99.8603 186.034 100.612 186.034 101.582V104.48C186.034 104.658 186.062 104.784 186.118 104.858C186.183 104.924 186.286 104.956 186.426 104.956H186.692V106.132C186.645 106.142 186.57 106.151 186.468 106.16C186.365 106.17 186.258 106.174 186.146 106.174C185.828 106.174 185.553 106.123 185.32 106.02C185.096 105.918 184.928 105.75 184.816 105.516C184.704 105.274 184.648 104.952 184.648 104.55L184.802 104.62C184.727 104.947 184.564 105.236 184.312 105.488C184.069 105.74 183.756 105.941 183.374 106.09C183 106.23 182.594 106.3 182.156 106.3ZM182.394 105.124C182.842 105.124 183.224 105.04 183.542 104.872C183.859 104.695 184.106 104.452 184.284 104.144C184.461 103.836 184.55 103.486 184.55 103.094V102.618L182.366 103.038C181.918 103.122 181.6 103.258 181.414 103.444C181.236 103.622 181.148 103.85 181.148 104.13C181.148 104.448 181.255 104.695 181.47 104.872C181.694 105.04 182.002 105.124 182.394 105.124ZM190.76 106.3C190.06 106.3 189.467 106.193 188.982 105.978C188.506 105.764 188.137 105.47 187.876 105.096C187.615 104.714 187.465 104.275 187.428 103.78L188.954 103.71C189.029 104.121 189.206 104.448 189.486 104.69C189.766 104.933 190.191 105.054 190.76 105.054C191.227 105.054 191.595 104.98 191.866 104.83C192.137 104.681 192.272 104.443 192.272 104.116C192.272 103.939 192.225 103.79 192.132 103.668C192.048 103.538 191.88 103.43 191.628 103.346C191.376 103.253 191.003 103.164 190.508 103.08C189.771 102.94 189.192 102.777 188.772 102.59C188.352 102.404 188.053 102.166 187.876 101.876C187.699 101.587 187.61 101.237 187.61 100.826C187.61 100.145 187.862 99.5897 188.366 99.1603C188.879 98.731 189.617 98.5163 190.578 98.5163C191.222 98.5163 191.763 98.6283 192.202 98.8523C192.641 99.067 192.981 99.361 193.224 99.7343C193.476 100.098 193.635 100.509 193.7 100.966L192.174 101.05C192.127 100.789 192.034 100.565 191.894 100.378C191.763 100.182 191.586 100.033 191.362 99.9303C191.138 99.8183 190.872 99.7623 190.564 99.7623C190.088 99.7623 189.733 99.8557 189.5 100.042C189.267 100.229 189.15 100.472 189.15 100.77C189.15 100.994 189.201 101.176 189.304 101.316C189.416 101.456 189.593 101.573 189.836 101.666C190.079 101.75 190.401 101.825 190.802 101.89C191.577 102.021 192.183 102.184 192.622 102.38C193.061 102.567 193.369 102.8 193.546 103.08C193.723 103.36 193.812 103.701 193.812 104.102C193.812 104.569 193.681 104.966 193.42 105.292C193.159 105.619 192.799 105.871 192.342 106.048C191.885 106.216 191.357 106.3 190.76 106.3ZM198.38 106.3C197.652 106.3 197.022 106.142 196.49 105.824C195.967 105.507 195.561 105.054 195.272 104.466C194.992 103.878 194.852 103.192 194.852 102.408C194.852 101.624 194.992 100.943 195.272 100.364C195.561 99.7763 195.967 99.3237 196.49 99.0063C197.012 98.6797 197.628 98.5163 198.338 98.5163C199.01 98.5163 199.602 98.675 200.116 98.9923C200.629 99.3003 201.026 99.7483 201.306 100.336C201.595 100.924 201.74 101.634 201.74 102.464V102.842H196.392C196.429 103.57 196.62 104.116 196.966 104.48C197.32 104.844 197.796 105.026 198.394 105.026C198.832 105.026 199.196 104.924 199.486 104.718C199.775 104.513 199.976 104.238 200.088 103.892L201.628 103.99C201.432 104.681 201.044 105.241 200.466 105.67C199.896 106.09 199.201 106.3 198.38 106.3ZM196.392 101.722H200.172C200.125 101.06 199.934 100.57 199.598 100.252C199.271 99.935 198.851 99.7763 198.338 99.7763C197.806 99.7763 197.367 99.9443 197.022 100.28C196.686 100.607 196.476 101.088 196.392 101.722ZM205.889 106.3C205.255 106.3 204.699 106.142 204.223 105.824C203.757 105.507 203.397 105.059 203.145 104.48C202.903 103.892 202.781 103.202 202.781 102.408C202.781 101.615 202.907 100.929 203.159 100.35C203.411 99.7623 203.771 99.3097 204.237 98.9923C204.704 98.675 205.255 98.5163 205.889 98.5163C206.403 98.5163 206.86 98.6237 207.261 98.8383C207.663 99.053 207.966 99.3517 208.171 99.7343V96.1923H209.655V106.132H208.269L208.227 105.012C208.022 105.414 207.709 105.731 207.289 105.964C206.879 106.188 206.412 106.3 205.889 106.3ZM206.281 105.012C206.683 105.012 207.023 104.91 207.303 104.704C207.583 104.499 207.798 104.2 207.947 103.808C208.097 103.416 208.171 102.95 208.171 102.408C208.171 101.848 208.097 101.377 207.947 100.994C207.798 100.602 207.583 100.308 207.303 100.112C207.023 99.907 206.683 99.8043 206.281 99.8043C205.684 99.8043 205.208 100.038 204.853 100.504C204.499 100.962 204.321 101.596 204.321 102.408C204.321 103.211 204.499 103.846 204.853 104.312C205.208 104.779 205.684 105.012 206.281 105.012ZM215.319 106.132V96.1923H219.281C219.991 96.1923 220.602 96.3137 221.115 96.5563C221.629 96.799 222.025 97.1443 222.305 97.5923C222.585 98.0403 222.725 98.5723 222.725 99.1883C222.725 99.6363 222.623 100.038 222.417 100.392C222.221 100.747 221.955 101.032 221.619 101.246C221.293 101.452 220.943 101.568 220.569 101.596L220.499 101.47C221.125 101.47 221.61 101.615 221.955 101.904C222.301 102.184 222.501 102.628 222.557 103.234L222.823 106.132H221.297L221.059 103.43C221.031 103.029 220.896 102.735 220.653 102.548C220.411 102.352 220.014 102.254 219.463 102.254H216.831V106.132H215.319ZM216.831 100.868H219.309C219.879 100.868 220.327 100.728 220.653 100.448C220.989 100.159 221.157 99.753 221.157 99.2303C221.157 98.6983 220.989 98.2923 220.653 98.0123C220.317 97.723 219.827 97.5783 219.183 97.5783H216.831V100.868ZM228.676 106.356C227.714 106.356 226.888 106.151 226.198 105.74C225.507 105.32 224.975 104.723 224.602 103.948C224.228 103.174 224.042 102.25 224.042 101.176C224.042 100.103 224.228 99.179 224.602 98.4043C224.975 97.6203 225.507 97.0183 226.198 96.5983C226.888 96.1783 227.714 95.9683 228.676 95.9683C229.646 95.9683 230.477 96.1783 231.168 96.5983C231.868 97.0183 232.4 97.6203 232.764 98.4043C233.137 99.179 233.324 100.103 233.324 101.176C233.324 102.25 233.137 103.174 232.764 103.948C232.4 104.723 231.868 105.32 231.168 105.74C230.477 106.151 229.646 106.356 228.676 106.356ZM228.676 104.97C229.32 104.97 229.87 104.821 230.328 104.522C230.794 104.224 231.149 103.794 231.392 103.234C231.634 102.665 231.756 101.979 231.756 101.176C231.756 100.374 231.634 99.6877 231.392 99.1183C231.149 98.549 230.794 98.115 230.328 97.8163C229.87 97.5083 229.32 97.3543 228.676 97.3543C228.041 97.3543 227.495 97.5083 227.038 97.8163C226.58 98.115 226.226 98.549 225.974 99.1183C225.731 99.6877 225.61 100.374 225.61 101.176C225.61 101.979 225.731 102.665 225.974 103.234C226.226 103.794 226.58 104.224 227.038 104.522C227.495 104.821 228.041 104.97 228.676 104.97ZM234.938 106.132V96.1923H236.45V106.132H234.938ZM242.533 108.232V107.014H243.443C243.695 107.014 243.881 106.977 244.003 106.902C244.124 106.828 244.217 106.702 244.283 106.524L244.521 105.908H244.059L241.371 98.6843H242.939L244.983 104.536L246.929 98.6843H248.511L245.543 107C245.393 107.43 245.169 107.742 244.871 107.938C244.581 108.134 244.175 108.232 243.653 108.232H242.533ZM252.534 106.3C251.825 106.3 251.204 106.142 250.672 105.824C250.14 105.507 249.729 105.054 249.44 104.466C249.151 103.878 249.006 103.192 249.006 102.408C249.006 101.615 249.151 100.929 249.44 100.35C249.729 99.7717 250.14 99.3237 250.672 99.0063C251.204 98.6797 251.825 98.5163 252.534 98.5163C253.243 98.5163 253.864 98.6797 254.396 99.0063C254.928 99.3237 255.339 99.7717 255.628 100.35C255.917 100.929 256.062 101.615 256.062 102.408C256.062 103.192 255.917 103.878 255.628 104.466C255.339 105.054 254.928 105.507 254.396 105.824C253.864 106.142 253.243 106.3 252.534 106.3ZM252.534 105.012C253.169 105.012 253.659 104.784 254.004 104.326C254.349 103.86 254.522 103.22 254.522 102.408C254.522 101.596 254.349 100.962 254.004 100.504C253.659 100.038 253.169 99.8043 252.534 99.8043C251.909 99.8043 251.419 100.038 251.064 100.504C250.719 100.962 250.546 101.596 250.546 102.408C250.546 103.22 250.719 103.86 251.064 104.326C251.419 104.784 251.909 105.012 252.534 105.012ZM260.012 106.3C259.265 106.3 258.668 106.053 258.22 105.558C257.781 105.054 257.562 104.359 257.562 103.472V98.6843H259.046V103.094C259.046 103.766 259.162 104.261 259.396 104.578C259.629 104.896 259.984 105.054 260.46 105.054C261.001 105.054 261.421 104.882 261.72 104.536C262.028 104.182 262.182 103.687 262.182 103.052V98.6843H263.666V106.132H262.28L262.252 104.186L262.462 104.27C262.331 104.924 262.056 105.428 261.636 105.782C261.216 106.128 260.674 106.3 260.012 106.3ZM272.165 108.4C271.577 108.4 271.059 108.312 270.611 108.134C270.163 107.957 269.794 107.705 269.505 107.378C269.216 107.061 269.02 106.688 268.917 106.258L270.457 106.16C270.56 106.468 270.737 106.711 270.989 106.888C271.25 107.075 271.642 107.168 272.165 107.168C272.781 107.168 273.252 107.038 273.579 106.776C273.915 106.515 274.083 106.118 274.083 105.586V104.508C273.906 104.891 273.621 105.194 273.229 105.418C272.837 105.642 272.398 105.754 271.913 105.754C271.288 105.754 270.732 105.6 270.247 105.292C269.762 104.984 269.384 104.56 269.113 104.018C268.842 103.477 268.707 102.852 268.707 102.142C268.707 101.424 268.838 100.794 269.099 100.252C269.37 99.711 269.743 99.2863 270.219 98.9783C270.704 98.6703 271.25 98.5163 271.857 98.5163C272.389 98.5163 272.856 98.6377 273.257 98.8803C273.668 99.123 273.962 99.4497 274.139 99.8603V98.6843H275.567V105.544C275.567 106.16 275.427 106.678 275.147 107.098C274.876 107.528 274.484 107.85 273.971 108.064C273.467 108.288 272.865 108.4 272.165 108.4ZM272.151 104.494C272.73 104.494 273.192 104.284 273.537 103.864C273.892 103.444 274.074 102.866 274.083 102.128C274.092 101.643 274.018 101.228 273.859 100.882C273.7 100.528 273.472 100.257 273.173 100.07C272.884 99.8743 272.543 99.7763 272.151 99.7763C271.544 99.7763 271.073 99.991 270.737 100.42C270.41 100.84 270.247 101.41 270.247 102.128C270.247 102.856 270.415 103.435 270.751 103.864C271.096 104.284 271.563 104.494 272.151 104.494ZM280.602 106.3C279.893 106.3 279.272 106.142 278.74 105.824C278.208 105.507 277.798 105.054 277.508 104.466C277.219 103.878 277.074 103.192 277.074 102.408C277.074 101.615 277.219 100.929 277.508 100.35C277.798 99.7717 278.208 99.3237 278.74 99.0063C279.272 98.6797 279.893 98.5163 280.602 98.5163C281.312 98.5163 281.932 98.6797 282.464 99.0063C282.996 99.3237 283.407 99.7717 283.696 100.35C283.986 100.929 284.13 101.615 284.13 102.408C284.13 103.192 283.986 103.878 283.696 104.466C283.407 105.054 282.996 105.507 282.464 105.824C281.932 106.142 281.312 106.3 280.602 106.3ZM280.602 105.012C281.237 105.012 281.727 104.784 282.072 104.326C282.418 103.86 282.59 103.22 282.59 102.408C282.59 101.596 282.418 100.962 282.072 100.504C281.727 100.038 281.237 99.8043 280.602 99.8043C279.977 99.8043 279.487 100.038 279.132 100.504C278.787 100.962 278.614 101.596 278.614 102.408C278.614 103.22 278.787 103.86 279.132 104.326C279.487 104.784 279.977 105.012 280.602 105.012ZM288.213 106.132C287.503 106.132 286.981 105.969 286.645 105.642C286.309 105.316 286.141 104.807 286.141 104.116V96.9343H287.625V104.004C287.625 104.35 287.699 104.588 287.849 104.718C287.998 104.849 288.227 104.914 288.535 104.914H289.599V106.132H288.213ZM285.007 99.9023V98.6843H289.599V99.9023H285.007ZM291.197 103.164C291.159 102.838 291.122 102.45 291.085 102.002C291.047 101.545 291.01 101.083 290.973 100.616C290.945 100.14 290.931 99.7157 290.931 99.3423V96.1923H292.443V99.3423C292.443 99.7157 292.429 100.14 292.401 100.616C292.373 101.083 292.335 101.545 292.289 102.002C292.251 102.45 292.219 102.838 292.191 103.164H291.197ZM290.735 106.132V104.368H292.555V106.132H290.735Z" fill="#252525" fill-opacity="0.5"/>
</g>
</g>
</g>
</g>
<g filter="url(#filter1_d_105_4527)">
<path d="M36.1875 168.935C36.1875 158.86 44.3544 150.694 54.4288 150.694H323.715C333.79 150.694 341.957 158.86 341.957 168.935V255.205H54.4287C44.3544 255.205 36.1875 247.038 36.1875 236.963V168.935Z" fill="white" fill-opacity="0.01" shape-rendering="crispEdges"/>
<g clip-path="url(#clip4_105_4527)">
<g clip-path="url(#clip5_105_4527)">
<g clip-path="url(#clip6_105_4527)">
<path d="M36.1875 168.485C36.1875 158.659 44.152 150.695 53.9777 150.695H324.166C333.992 150.695 341.957 158.659 341.957 168.485V255.212H53.9777C44.152 255.212 36.1875 247.248 36.1875 237.422V168.485Z" fill="white"/>
<path d="M288.681 188.584V182.884L283.701 174.384H286.181L289.761 180.724L293.361 174.384H295.841L290.841 182.884V188.584H288.681ZM300.17 188.824C299.157 188.824 298.27 188.598 297.51 188.144C296.75 187.691 296.163 187.044 295.75 186.204C295.337 185.364 295.13 184.384 295.13 183.264C295.13 182.131 295.337 181.151 295.75 180.324C296.163 179.498 296.75 178.858 297.51 178.404C298.27 177.938 299.157 177.704 300.17 177.704C301.183 177.704 302.07 177.938 302.83 178.404C303.59 178.858 304.177 179.498 304.59 180.324C305.003 181.151 305.21 182.131 305.21 183.264C305.21 184.384 305.003 185.364 304.59 186.204C304.177 187.044 303.59 187.691 302.83 188.144C302.07 188.598 301.183 188.824 300.17 188.824ZM300.17 186.984C301.077 186.984 301.777 186.658 302.27 186.004C302.763 185.338 303.01 184.424 303.01 183.264C303.01 182.104 302.763 181.198 302.27 180.544C301.777 179.878 301.077 179.544 300.17 179.544C299.277 179.544 298.577 179.878 298.07 180.544C297.577 181.198 297.33 182.104 297.33 183.264C297.33 184.424 297.577 185.338 298.07 186.004C298.577 186.658 299.277 186.984 300.17 186.984ZM310.853 188.824C309.786 188.824 308.933 188.471 308.293 187.764C307.666 187.044 307.353 186.051 307.353 184.784V177.944H309.473V184.244C309.473 185.204 309.639 185.911 309.973 186.364C310.306 186.818 310.813 187.044 311.493 187.044C312.266 187.044 312.866 186.798 313.293 186.304C313.733 185.798 313.953 185.091 313.953 184.184V177.944H316.073V188.584H314.093L314.053 185.804L314.353 185.924C314.166 186.858 313.773 187.578 313.173 188.084C312.573 188.578 311.799 188.824 310.853 188.824Z" fill="#252525"/>
<path d="M97.4378 218.584V210.03H94.3858V208.644H102.002V210.03H98.9498V218.584H97.4378ZM102.856 218.584V208.644H104.34V212.816L104.158 212.788C104.242 212.368 104.396 212.028 104.62 211.766C104.844 211.496 105.119 211.295 105.446 211.164C105.772 211.034 106.132 210.968 106.524 210.968C107.065 210.968 107.522 211.09 107.896 211.332C108.269 211.566 108.549 211.897 108.736 212.326C108.932 212.756 109.03 213.246 109.03 213.796V218.584H107.546V214.188C107.546 213.516 107.429 213.022 107.196 212.704C106.972 212.378 106.617 212.214 106.132 212.214C105.59 212.214 105.156 212.387 104.83 212.732C104.503 213.068 104.34 213.563 104.34 214.216V218.584H102.856ZM113.063 218.752C112.288 218.752 111.667 218.575 111.201 218.22C110.743 217.866 110.515 217.366 110.515 216.722C110.515 216.078 110.706 215.579 111.089 215.224C111.481 214.86 112.083 214.599 112.895 214.44L115.457 213.95C115.457 213.372 115.321 212.942 115.051 212.662C114.78 212.373 114.379 212.228 113.847 212.228C113.371 212.228 112.997 212.336 112.727 212.55C112.456 212.756 112.269 213.064 112.167 213.474L110.641 213.376C110.781 212.63 111.126 212.042 111.677 211.612C112.237 211.183 112.96 210.968 113.847 210.968C114.855 210.968 115.62 211.239 116.143 211.78C116.675 212.312 116.941 213.064 116.941 214.034V216.932C116.941 217.11 116.969 217.236 117.025 217.31C117.09 217.376 117.193 217.408 117.333 217.408H117.599V218.584C117.552 218.594 117.477 218.603 117.375 218.612C117.272 218.622 117.165 218.626 117.053 218.626C116.735 218.626 116.46 218.575 116.227 218.472C116.003 218.37 115.835 218.202 115.723 217.968C115.611 217.726 115.555 217.404 115.555 217.002L115.709 217.072C115.634 217.399 115.471 217.688 115.219 217.94C114.976 218.192 114.663 218.393 114.281 218.542C113.907 218.682 113.501 218.752 113.063 218.752ZM113.301 217.576C113.749 217.576 114.131 217.492 114.449 217.324C114.766 217.147 115.013 216.904 115.191 216.596C115.368 216.288 115.457 215.938 115.457 215.546V215.07L113.273 215.49C112.825 215.574 112.507 215.71 112.321 215.896C112.143 216.074 112.055 216.302 112.055 216.582C112.055 216.9 112.162 217.147 112.377 217.324C112.601 217.492 112.909 217.576 113.301 217.576ZM121.325 218.584C120.616 218.584 120.093 218.421 119.757 218.094C119.421 217.768 119.253 217.259 119.253 216.568V209.386H120.737V216.456C120.737 216.802 120.812 217.04 120.961 217.17C121.11 217.301 121.339 217.366 121.647 217.366H122.711V218.584H121.325ZM118.119 212.354V211.136H122.711V212.354H118.119ZM123.847 212.606L124.547 210.408H123.777V208.644H125.583V210.198L124.701 212.606H123.847ZM130.13 218.752C129.43 218.752 128.837 218.645 128.352 218.43C127.876 218.216 127.507 217.922 127.246 217.548C126.985 217.166 126.835 216.727 126.798 216.232L128.324 216.162C128.399 216.573 128.576 216.9 128.856 217.142C129.136 217.385 129.561 217.506 130.13 217.506C130.597 217.506 130.965 217.432 131.236 217.282C131.507 217.133 131.642 216.895 131.642 216.568C131.642 216.391 131.595 216.242 131.502 216.12C131.418 215.99 131.25 215.882 130.998 215.798C130.746 215.705 130.373 215.616 129.878 215.532C129.141 215.392 128.562 215.229 128.142 215.042C127.722 214.856 127.423 214.618 127.246 214.328C127.069 214.039 126.98 213.689 126.98 213.278C126.98 212.597 127.232 212.042 127.736 211.612C128.249 211.183 128.987 210.968 129.948 210.968C130.592 210.968 131.133 211.08 131.572 211.304C132.011 211.519 132.351 211.813 132.594 212.186C132.846 212.55 133.005 212.961 133.07 213.418L131.544 213.502C131.497 213.241 131.404 213.017 131.264 212.83C131.133 212.634 130.956 212.485 130.732 212.382C130.508 212.27 130.242 212.214 129.934 212.214C129.458 212.214 129.103 212.308 128.87 212.494C128.637 212.681 128.52 212.924 128.52 213.222C128.52 213.446 128.571 213.628 128.674 213.768C128.786 213.908 128.963 214.025 129.206 214.118C129.449 214.202 129.771 214.277 130.172 214.342C130.947 214.473 131.553 214.636 131.992 214.832C132.431 215.019 132.739 215.252 132.916 215.532C133.093 215.812 133.182 216.153 133.182 216.554C133.182 217.021 133.051 217.418 132.79 217.744C132.529 218.071 132.169 218.323 131.712 218.5C131.255 218.668 130.727 218.752 130.13 218.752ZM141.221 220.852C140.633 220.852 140.115 220.764 139.667 220.586C139.219 220.409 138.85 220.157 138.561 219.83C138.271 219.513 138.075 219.14 137.973 218.71L139.513 218.612C139.615 218.92 139.793 219.163 140.045 219.34C140.306 219.527 140.698 219.62 141.221 219.62C141.837 219.62 142.308 219.49 142.635 219.228C142.971 218.967 143.139 218.57 143.139 218.038V216.96C142.961 217.343 142.677 217.646 142.285 217.87C141.893 218.094 141.454 218.206 140.969 218.206C140.343 218.206 139.788 218.052 139.303 217.744C138.817 217.436 138.439 217.012 138.169 216.47C137.898 215.929 137.763 215.304 137.763 214.594C137.763 213.876 137.893 213.246 138.155 212.704C138.425 212.163 138.799 211.738 139.275 211.43C139.76 211.122 140.306 210.968 140.913 210.968C141.445 210.968 141.911 211.09 142.313 211.332C142.723 211.575 143.017 211.902 143.195 212.312V211.136H144.623V217.996C144.623 218.612 144.483 219.13 144.203 219.55C143.932 219.98 143.54 220.302 143.027 220.516C142.523 220.74 141.921 220.852 141.221 220.852ZM141.207 216.946C141.785 216.946 142.247 216.736 142.593 216.316C142.947 215.896 143.129 215.318 143.139 214.58C143.148 214.095 143.073 213.68 142.915 213.334C142.756 212.98 142.527 212.709 142.229 212.522C141.939 212.326 141.599 212.228 141.207 212.228C140.6 212.228 140.129 212.443 139.793 212.872C139.466 213.292 139.303 213.862 139.303 214.58C139.303 215.308 139.471 215.887 139.807 216.316C140.152 216.736 140.619 216.946 141.207 216.946ZM146.729 218.584V211.136H148.087L148.143 213.11L148.017 213.068C148.119 212.396 148.325 211.906 148.633 211.598C148.95 211.29 149.375 211.136 149.907 211.136H150.621V212.466H149.907C149.533 212.466 149.221 212.527 148.969 212.648C148.717 212.77 148.525 212.956 148.395 213.208C148.273 213.46 148.213 213.787 148.213 214.188V218.584H146.729ZM154.744 218.752C154.016 218.752 153.386 218.594 152.854 218.276C152.331 217.959 151.925 217.506 151.636 216.918C151.356 216.33 151.216 215.644 151.216 214.86C151.216 214.076 151.356 213.395 151.636 212.816C151.925 212.228 152.331 211.776 152.854 211.458C153.377 211.132 153.993 210.968 154.702 210.968C155.374 210.968 155.967 211.127 156.48 211.444C156.993 211.752 157.39 212.2 157.67 212.788C157.959 213.376 158.104 214.086 158.104 214.916V215.294H152.756C152.793 216.022 152.985 216.568 153.33 216.932C153.685 217.296 154.161 217.478 154.758 217.478C155.197 217.478 155.561 217.376 155.85 217.17C156.139 216.965 156.34 216.69 156.452 216.344L157.992 216.442C157.796 217.133 157.409 217.693 156.83 218.122C156.261 218.542 155.565 218.752 154.744 218.752ZM152.756 214.174H156.536C156.489 213.512 156.298 213.022 155.962 212.704C155.635 212.387 155.215 212.228 154.702 212.228C154.17 212.228 153.731 212.396 153.386 212.732C153.05 213.059 152.84 213.54 152.756 214.174ZM161.844 218.752C161.069 218.752 160.449 218.575 159.982 218.22C159.525 217.866 159.296 217.366 159.296 216.722C159.296 216.078 159.487 215.579 159.87 215.224C160.262 214.86 160.864 214.599 161.676 214.44L164.238 213.95C164.238 213.372 164.103 212.942 163.832 212.662C163.561 212.373 163.16 212.228 162.628 212.228C162.152 212.228 161.779 212.336 161.508 212.55C161.237 212.756 161.051 213.064 160.948 213.474L159.422 213.376C159.562 212.63 159.907 212.042 160.458 211.612C161.018 211.183 161.741 210.968 162.628 210.968C163.636 210.968 164.401 211.239 164.924 211.78C165.456 212.312 165.722 213.064 165.722 214.034V216.932C165.722 217.11 165.75 217.236 165.806 217.31C165.871 217.376 165.974 217.408 166.114 217.408H166.38V218.584C166.333 218.594 166.259 218.603 166.156 218.612C166.053 218.622 165.946 218.626 165.834 218.626C165.517 218.626 165.241 218.575 165.008 218.472C164.784 218.37 164.616 218.202 164.504 217.968C164.392 217.726 164.336 217.404 164.336 217.002L164.49 217.072C164.415 217.399 164.252 217.688 164 217.94C163.757 218.192 163.445 218.393 163.062 218.542C162.689 218.682 162.283 218.752 161.844 218.752ZM162.082 217.576C162.53 217.576 162.913 217.492 163.23 217.324C163.547 217.147 163.795 216.904 163.972 216.596C164.149 216.288 164.238 215.938 164.238 215.546V215.07L162.054 215.49C161.606 215.574 161.289 215.71 161.102 215.896C160.925 216.074 160.836 216.302 160.836 216.582C160.836 216.9 160.943 217.147 161.158 217.324C161.382 217.492 161.69 217.576 162.082 217.576ZM170.106 218.584C169.397 218.584 168.874 218.421 168.538 218.094C168.202 217.768 168.034 217.259 168.034 216.568V209.386H169.518V216.456C169.518 216.802 169.593 217.04 169.742 217.17C169.892 217.301 170.12 217.366 170.428 217.366H171.492V218.584H170.106ZM166.9 212.354V211.136H171.492V212.354H166.9ZM172.983 220.782L173.683 218.584H172.913V216.82H174.719V218.374L173.837 220.782H172.983ZM179.914 218.584V208.644H181.426V218.584H179.914ZM186.034 218.584C185.325 218.584 184.802 218.421 184.466 218.094C184.13 217.768 183.962 217.259 183.962 216.568V209.386H185.446V216.456C185.446 216.802 185.521 217.04 185.67 217.17C185.819 217.301 186.048 217.366 186.356 217.366H187.42V218.584H186.034ZM182.828 212.354V211.136H187.42V212.354H182.828ZM188.556 212.606L189.256 210.408H188.486V208.644H190.292V210.198L189.41 212.606H188.556ZM194.839 218.752C194.139 218.752 193.546 218.645 193.061 218.43C192.585 218.216 192.216 217.922 191.955 217.548C191.694 217.166 191.544 216.727 191.507 216.232L193.033 216.162C193.108 216.573 193.285 216.9 193.565 217.142C193.845 217.385 194.27 217.506 194.839 217.506C195.306 217.506 195.674 217.432 195.945 217.282C196.216 217.133 196.351 216.895 196.351 216.568C196.351 216.391 196.304 216.242 196.211 216.12C196.127 215.99 195.959 215.882 195.707 215.798C195.455 215.705 195.082 215.616 194.587 215.532C193.85 215.392 193.271 215.229 192.851 215.042C192.431 214.856 192.132 214.618 191.955 214.328C191.778 214.039 191.689 213.689 191.689 213.278C191.689 212.597 191.941 212.042 192.445 211.612C192.958 211.183 193.696 210.968 194.657 210.968C195.301 210.968 195.842 211.08 196.281 211.304C196.72 211.519 197.06 211.813 197.303 212.186C197.555 212.55 197.714 212.961 197.779 213.418L196.253 213.502C196.206 213.241 196.113 213.017 195.973 212.83C195.842 212.634 195.665 212.485 195.441 212.382C195.217 212.27 194.951 212.214 194.643 212.214C194.167 212.214 193.812 212.308 193.579 212.494C193.346 212.681 193.229 212.924 193.229 213.222C193.229 213.446 193.28 213.628 193.383 213.768C193.495 213.908 193.672 214.025 193.915 214.118C194.158 214.202 194.48 214.277 194.881 214.342C195.656 214.473 196.262 214.636 196.701 214.832C197.14 215.019 197.448 215.252 197.625 215.532C197.802 215.812 197.891 216.153 197.891 216.554C197.891 217.021 197.76 217.418 197.499 217.744C197.238 218.071 196.878 218.323 196.421 218.5C195.964 218.668 195.436 218.752 194.839 218.752ZM206.644 218.752C206.13 218.752 205.673 218.64 205.272 218.416C204.88 218.183 204.576 217.866 204.362 217.464L204.32 218.584H202.934V208.644H204.418V212.186C204.614 211.86 204.903 211.575 205.286 211.332C205.678 211.09 206.13 210.968 206.644 210.968C207.288 210.968 207.848 211.127 208.324 211.444C208.8 211.762 209.164 212.214 209.416 212.802C209.677 213.381 209.808 214.067 209.808 214.86C209.808 215.654 209.677 216.344 209.416 216.932C209.164 217.511 208.8 217.959 208.324 218.276C207.848 218.594 207.288 218.752 206.644 218.752ZM206.406 217.464C206.975 217.464 207.428 217.236 207.764 216.778C208.1 216.312 208.268 215.672 208.268 214.86C208.268 214.048 208.1 213.414 207.764 212.956C207.428 212.49 206.98 212.256 206.42 212.256C206 212.256 205.64 212.359 205.342 212.564C205.043 212.77 204.814 213.068 204.656 213.46C204.497 213.843 204.418 214.31 204.418 214.86C204.418 215.392 204.497 215.854 204.656 216.246C204.814 216.638 205.043 216.942 205.342 217.156C205.64 217.362 205.995 217.464 206.406 217.464ZM214.381 218.752C213.653 218.752 213.023 218.594 212.491 218.276C211.968 217.959 211.562 217.506 211.273 216.918C210.993 216.33 210.853 215.644 210.853 214.86C210.853 214.076 210.993 213.395 211.273 212.816C211.562 212.228 211.968 211.776 212.491 211.458C213.013 211.132 213.629 210.968 214.339 210.968C215.011 210.968 215.603 211.127 216.117 211.444C216.63 211.752 217.027 212.2 217.307 212.788C217.596 213.376 217.741 214.086 217.741 214.916V215.294H212.393C212.43 216.022 212.621 216.568 212.967 216.932C213.321 217.296 213.797 217.478 214.395 217.478C214.833 217.478 215.197 217.376 215.487 217.17C215.776 216.965 215.977 216.69 216.089 216.344L217.629 216.442C217.433 217.133 217.045 217.693 216.467 218.122C215.897 218.542 215.202 218.752 214.381 218.752ZM212.393 214.174H216.173C216.126 213.512 215.935 213.022 215.599 212.704C215.272 212.387 214.852 212.228 214.339 212.228C213.807 212.228 213.368 212.396 213.023 212.732C212.687 213.059 212.477 213.54 212.393 214.174ZM222.31 218.752C221.582 218.752 220.952 218.594 220.42 218.276C219.898 217.959 219.492 217.506 219.202 216.918C218.922 216.33 218.782 215.644 218.782 214.86C218.782 214.076 218.922 213.395 219.202 212.816C219.492 212.228 219.898 211.776 220.42 211.458C220.943 211.132 221.559 210.968 222.268 210.968C222.94 210.968 223.533 211.127 224.046 211.444C224.56 211.752 224.956 212.2 225.236 212.788C225.526 213.376 225.67 214.086 225.67 214.916V215.294H220.322C220.36 216.022 220.551 216.568 220.896 216.932C221.251 217.296 221.727 217.478 222.324 217.478C222.763 217.478 223.127 217.376 223.416 217.17C223.706 216.965 223.906 216.69 224.018 216.344L225.558 216.442C225.362 217.133 224.975 217.693 224.396 218.122C223.827 218.542 223.132 218.752 222.31 218.752ZM220.322 214.174H224.102C224.056 213.512 223.864 213.022 223.528 212.704C223.202 212.387 222.782 212.228 222.268 212.228C221.736 212.228 221.298 212.396 220.952 212.732C220.616 213.059 220.406 213.54 220.322 214.174ZM227.174 218.584V211.136H228.532L228.588 213.124L228.406 213.026C228.49 212.541 228.649 212.149 228.882 211.85C229.115 211.552 229.4 211.332 229.736 211.192C230.072 211.043 230.436 210.968 230.828 210.968C231.388 210.968 231.85 211.094 232.214 211.346C232.587 211.589 232.867 211.925 233.054 212.354C233.25 212.774 233.348 213.255 233.348 213.796V218.584H231.864V214.244C231.864 213.806 231.817 213.437 231.724 213.138C231.631 212.84 231.477 212.611 231.262 212.452C231.047 212.294 230.767 212.214 230.422 212.214C229.899 212.214 229.475 212.387 229.148 212.732C228.821 213.078 228.658 213.582 228.658 214.244V218.584H227.174ZM240.936 218.752C240.161 218.752 239.54 218.575 239.074 218.22C238.616 217.866 238.388 217.366 238.388 216.722C238.388 216.078 238.579 215.579 238.962 215.224C239.354 214.86 239.956 214.599 240.768 214.44L243.33 213.95C243.33 213.372 243.194 212.942 242.924 212.662C242.653 212.373 242.252 212.228 241.72 212.228C241.244 212.228 240.87 212.336 240.6 212.55C240.329 212.756 240.142 213.064 240.04 213.474L238.514 213.376C238.654 212.63 238.999 212.042 239.55 211.612C240.11 211.183 240.833 210.968 241.72 210.968C242.728 210.968 243.493 211.239 244.016 211.78C244.548 212.312 244.814 213.064 244.814 214.034V216.932C244.814 217.11 244.842 217.236 244.898 217.31C244.963 217.376 245.066 217.408 245.206 217.408H245.472V218.584C245.425 218.594 245.35 218.603 245.248 218.612C245.145 218.622 245.038 218.626 244.926 218.626C244.608 218.626 244.333 218.575 244.1 218.472C243.876 218.37 243.708 218.202 243.596 217.968C243.484 217.726 243.428 217.404 243.428 217.002L243.582 217.072C243.507 217.399 243.344 217.688 243.092 217.94C242.849 218.192 242.536 218.393 242.154 218.542C241.78 218.682 241.374 218.752 240.936 218.752ZM241.174 217.576C241.622 217.576 242.004 217.492 242.322 217.324C242.639 217.147 242.886 216.904 243.064 216.596C243.241 216.288 243.33 215.938 243.33 215.546V215.07L241.146 215.49C240.698 215.574 240.38 215.71 240.194 215.896C240.016 216.074 239.928 216.302 239.928 216.582C239.928 216.9 240.035 217.147 240.25 217.324C240.474 217.492 240.782 217.576 241.174 217.576ZM251.696 218.584L249.428 211.136H250.982L252.578 216.96L254.216 211.136H255.616L257.254 216.96L258.864 211.136H260.418L258.15 218.584H256.484L254.916 213.264L253.348 218.584H251.696ZM264.461 218.752C263.733 218.752 263.103 218.594 262.571 218.276C262.048 217.959 261.642 217.506 261.353 216.918C261.073 216.33 260.933 215.644 260.933 214.86C260.933 214.076 261.073 213.395 261.353 212.816C261.642 212.228 262.048 211.776 262.571 211.458C263.093 211.132 263.709 210.968 264.419 210.968C265.091 210.968 265.683 211.127 266.197 211.444C266.71 211.752 267.107 212.2 267.387 212.788C267.676 213.376 267.821 214.086 267.821 214.916V215.294H262.473C262.51 216.022 262.701 216.568 263.047 216.932C263.401 217.296 263.877 217.478 264.475 217.478C264.913 217.478 265.277 217.376 265.567 217.17C265.856 216.965 266.057 216.69 266.169 216.344L267.709 216.442C267.513 217.133 267.125 217.693 266.547 218.122C265.977 218.542 265.282 218.752 264.461 218.752ZM262.473 214.174H266.253C266.206 213.512 266.015 213.022 265.679 212.704C265.352 212.387 264.932 212.228 264.419 212.228C263.887 212.228 263.448 212.396 263.103 212.732C262.767 213.059 262.557 213.54 262.473 214.174ZM272.39 218.752C271.662 218.752 271.032 218.594 270.5 218.276C269.978 217.959 269.572 217.506 269.282 216.918C269.002 216.33 268.862 215.644 268.862 214.86C268.862 214.076 269.002 213.395 269.282 212.816C269.572 212.228 269.978 211.776 270.5 211.458C271.023 211.132 271.639 210.968 272.348 210.968C273.02 210.968 273.613 211.127 274.126 211.444C274.64 211.752 275.036 212.2 275.316 212.788C275.606 213.376 275.75 214.086 275.75 214.916V215.294H270.402C270.44 216.022 270.631 216.568 270.976 216.932C271.331 217.296 271.807 217.478 272.404 217.478C272.843 217.478 273.207 217.376 273.496 217.17C273.786 216.965 273.986 216.69 274.098 216.344L275.638 216.442C275.442 217.133 275.055 217.693 274.476 218.122C273.907 218.542 273.212 218.752 272.39 218.752ZM270.402 214.174H274.182C274.136 213.512 273.944 213.022 273.608 212.704C273.282 212.387 272.862 212.228 272.348 212.228C271.816 212.228 271.378 212.396 271.032 212.732C270.696 213.059 270.486 213.54 270.402 214.174ZM277.254 218.584V208.644H278.738V214.818L282.084 211.136H283.96L281.048 214.272L284.072 218.584H282.364L280.054 215.196L278.738 216.596V218.584H277.254ZM292.256 218.752C291.546 218.752 290.926 218.594 290.394 218.276C289.862 217.959 289.451 217.506 289.162 216.918C288.872 216.33 288.728 215.644 288.728 214.86C288.728 214.067 288.872 213.381 289.162 212.802C289.451 212.224 289.862 211.776 290.394 211.458C290.926 211.132 291.546 210.968 292.256 210.968C292.965 210.968 293.586 211.132 294.118 211.458C294.65 211.776 295.06 212.224 295.35 212.802C295.639 213.381 295.784 214.067 295.784 214.86C295.784 215.644 295.639 216.33 295.35 216.918C295.06 217.506 294.65 217.959 294.118 218.276C293.586 218.594 292.965 218.752 292.256 218.752ZM292.256 217.464C292.89 217.464 293.38 217.236 293.726 216.778C294.071 216.312 294.244 215.672 294.244 214.86C294.244 214.048 294.071 213.414 293.726 212.956C293.38 212.49 292.89 212.256 292.256 212.256C291.63 212.256 291.14 212.49 290.786 212.956C290.44 213.414 290.268 214.048 290.268 214.86C290.268 215.672 290.44 216.312 290.786 216.778C291.14 217.236 291.63 217.464 292.256 217.464ZM297.283 218.584V211.136H298.641L298.697 213.124L298.515 213.026C298.599 212.541 298.758 212.149 298.991 211.85C299.225 211.552 299.509 211.332 299.845 211.192C300.181 211.043 300.545 210.968 300.937 210.968C301.497 210.968 301.959 211.094 302.323 211.346C302.697 211.589 302.977 211.925 303.163 212.354C303.359 212.774 303.457 213.255 303.457 213.796V218.584H301.973V214.244C301.973 213.806 301.927 213.437 301.833 213.138C301.74 212.84 301.586 212.611 301.371 212.452C301.157 212.294 300.877 212.214 300.531 212.214C300.009 212.214 299.584 212.387 299.257 212.732C298.931 213.078 298.767 213.582 298.767 214.244V218.584H297.283ZM307.001 218.584C306.516 218.584 306.124 218.458 305.825 218.206C305.526 217.954 305.377 217.553 305.377 217.002V208.644H306.861V216.862C306.861 217.03 306.903 217.156 306.987 217.24C307.08 217.324 307.211 217.366 307.379 217.366H307.967V218.584H307.001ZM309.366 220.684V219.466H310.276C310.528 219.466 310.714 219.429 310.836 219.354C310.957 219.28 311.05 219.154 311.116 218.976L311.354 218.36H310.892L308.204 211.136H309.772L311.816 216.988L313.762 211.136H315.344L312.376 219.452C312.226 219.882 312.002 220.194 311.704 220.39C311.414 220.586 311.008 220.684 310.486 220.684H309.366ZM315.429 218.584V216.82H317.235V218.584H315.429Z" fill="#252525" fill-opacity="0.5"/>
</g>
</g>
</g>
</g>
<defs>
<filter id="filter0_d_105_4527" x="34.1004" y="0.396852" width="333.815" height="190.211" filterUnits="userSpaceOnUse" color-interpolation-filters="sRGB">
<feFlood flood-opacity="0" result="BackgroundImageFix"/>
<feColorMatrix in="SourceAlpha" type="matrix" values="0 0 0 0 0 0 0 0 0 0 0 0 0 0 0 0 0 0 127 0" result="hardAlpha"/>
<feOffset dy="9.12063"/>
<feGaussianBlur stdDeviation="27.3619"/>
<feComposite in2="hardAlpha" operator="out"/>
<feColorMatrix type="matrix" values="0 0 0 0 0.0392157 0 0 0 0 0.239216 0 0 0 0 0.164706 0 0 0 0.08 0"/>
<feBlend mode="normal" in2="BackgroundImageFix" result="effect1_dropShadow_105_4527"/>
<feBlend mode="normal" in="SourceGraphic" in2="effect1_dropShadow_105_4527" result="shape"/>
</filter>
<filter id="filter1_d_105_4527" x="-18.5363" y="105.09" width="415.217" height="213.959" filterUnits="userSpaceOnUse" color-interpolation-filters="sRGB">
<feFlood flood-opacity="0" result="BackgroundImageFix"/>
<feColorMatrix in="SourceAlpha" type="matrix" values="0 0 0 0 0 0 0 0 0 0 0 0 0 0 0 0 0 0 127 0" result="hardAlpha"/>
<feOffset dy="9.12063"/>
<feGaussianBlur stdDeviation="27.3619"/>
<feComposite in2="hardAlpha" operator="out"/>
<feColorMatrix type="matrix" values="0 0 0 0 0.0392157 0 0 0 0 0.239216 0 0 0 0 0.164706 0 0 0 0.08 0"/>
<feBlend mode="normal" in2="BackgroundImageFix" result="effect1_dropShadow_105_4527"/>
<feBlend mode="normal" in="SourceGraphic" in2="effect1_dropShadow_105_4527" result="shape"/>
</filter>
<clipPath id="clip0_105_4527">
<rect width="24" height="24" fill="white" transform="translate(44.999 107)"/>
</clipPath>
<clipPath id="clip1_105_4527">
<path d="M88.8242 64.2413C88.8242 54.1669 96.9911 46 107.065 46H294.95C305.025 46 313.192 54.1669 313.192 64.2413V108.522C313.192 118.596 305.025 126.763 294.95 126.763H88.8242V64.2413Z" fill="white"/>
</clipPath>
<clipPath id="clip2_105_4527">
<rect width="224.367" height="80.7632" fill="white" transform="translate(88.8242 46)"/>
</clipPath>
<clipPath id="clip3_105_4527">
<rect width="224.367" height="80.7723" fill="white" transform="translate(88.8242 45.9957)"/>
</clipPath>
<clipPath id="clip4_105_4527">
<path d="M36.1875 168.935C36.1875 158.86 44.3544 150.694 54.4288 150.694H323.715C333.79 150.694 341.957 158.86 341.957 168.935V255.205H54.4287C44.3544 255.205 36.1875 247.038 36.1875 236.963V168.935Z" fill="white"/>
</clipPath>
<clipPath id="clip5_105_4527">
<rect width="305.769" height="104.511" fill="white" transform="translate(36.1875 150.694)"/>
</clipPath>
<clipPath id="clip6_105_4527">
<rect width="305.769" height="104.517" fill="white" transform="translate(36.1875 150.69)"/>
</clipPath>
</defs>
</svg>
