<svg width="155" height="41" viewBox="0 0 155 41" fill="none" xmlns="http://www.w3.org/2000/svg">
<path d="M49.2676 28.7162H61.2206V25.1162H53.5166V11.5562H49.2686L49.2676 28.7162ZM68.3006 26.3112C66.5966 26.3112 65.7086 24.8232 65.7086 22.5912C65.7086 20.3592 66.5966 18.8472 68.3006 18.8472C70.0046 18.8472 70.9166 20.3592 70.9166 22.5912C70.9166 24.8232 70.0046 26.3112 68.3006 26.3112ZM68.3246 29.0952C72.2846 29.0952 74.8766 26.2872 74.8766 22.5912C74.8766 18.8952 72.2846 16.0872 68.3246 16.0872C64.3886 16.0872 61.7486 18.8952 61.7486 22.5912C61.7486 26.2872 64.3886 29.0952 68.3246 29.0952ZM81.7306 32.9602C83.5556 32.9602 85.1636 32.5522 86.2436 31.5922C87.2276 30.7042 87.8756 29.3602 87.8756 27.5122V16.4242H84.1306V17.7442H84.0826C83.3626 16.7122 82.2586 16.0642 80.6266 16.0642C77.5786 16.0642 75.4666 18.6082 75.4666 22.2082C75.4666 25.9762 78.0346 28.0402 80.7946 28.0402C82.2826 28.0402 83.2186 27.4402 83.9386 26.6242H84.0346V27.8482C84.0346 29.3362 83.3386 30.2002 81.6826 30.2002C80.3866 30.2002 79.7386 29.6482 79.5226 29.0002H75.7306C76.1146 31.5682 78.3466 32.9602 81.7306 32.9602ZM81.7076 25.1362C80.2436 25.1362 79.2836 23.9362 79.2836 22.0882C79.2836 20.2162 80.2436 19.0162 81.7076 19.0162C83.3396 19.0162 84.2036 20.4082 84.2036 22.0642C84.2036 23.7922 83.4116 25.1362 81.7076 25.1362ZM95.5736 26.3112C93.8696 26.3112 92.9816 24.8232 92.9816 22.5912C92.9816 20.3592 93.8696 18.8472 95.5736 18.8472C97.2776 18.8472 98.1896 20.3592 98.1896 22.5912C98.1896 24.8232 97.2776 26.3112 95.5736 26.3112ZM95.5976 29.0952C99.5576 29.0952 102.15 26.2872 102.15 22.5912C102.15 18.8952 99.5576 16.0872 95.5976 16.0872C91.6616 16.0872 89.0216 18.8952 89.0216 22.5912C89.0216 26.2872 91.6616 29.0952 95.5976 29.0952ZM103.292 28.7162H107.204V16.4282H103.292V28.7162ZM103.292 14.7242H107.204V11.5562H103.292V14.7242ZM108.901 32.7682H112.813V27.4402H112.861C113.629 28.4722 114.757 29.0962 116.341 29.0962C119.557 29.0962 121.693 26.5522 121.693 22.5682C121.693 18.8722 119.701 16.0642 116.437 16.0642C114.757 16.0642 113.557 16.8082 112.717 17.9122H112.645V16.4242H108.901V32.7682ZM115.333 26.0722C113.653 26.0722 112.693 24.7042 112.693 22.7122C112.693 20.7202 113.557 19.2082 115.261 19.2082C116.941 19.2082 117.733 20.6002 117.733 22.7122C117.733 24.8002 116.821 26.0722 115.333 26.0722ZM128.065 29.0962C131.281 29.0962 133.657 27.7042 133.657 25.0162C133.657 21.8722 131.113 21.3202 128.953 20.9602C127.393 20.6722 126.001 20.5522 126.001 19.6882C126.001 18.9202 126.745 18.5602 127.705 18.5602C128.785 18.5602 129.529 18.8962 129.673 20.0002H133.273C133.081 17.5762 131.209 16.0642 127.729 16.0642C124.825 16.0642 122.425 17.4082 122.425 20.0002C122.425 22.8802 124.705 23.4562 126.841 23.8162C128.473 24.1042 129.961 24.2242 129.961 25.3282C129.961 26.1202 129.217 26.5522 128.041 26.5522C126.745 26.5522 125.929 25.9522 125.785 24.7282H122.089C122.209 27.4402 124.465 29.0962 128.065 29.0962ZM138.967 29.0712C140.671 29.0712 141.751 28.3992 142.639 27.1992H142.711V28.7112H146.455V16.4232H142.543V23.2872C142.543 24.7512 141.727 25.7592 140.383 25.7592C139.135 25.7592 138.535 25.0152 138.535 23.6712V16.4232H134.647V24.4872C134.647 27.2232 136.135 29.0712 138.967 29.0712ZM148.159 28.7122H152.071V21.8242C152.071 20.3602 152.791 19.3282 154.015 19.3282C155.191 19.3282 155.743 20.0962 155.743 21.4162V28.7122H159.655V21.8242C159.655 20.3602 160.351 19.3282 161.599 19.3282C162.775 19.3282 163.327 20.0962 163.327 21.4162V28.7122H167.239V20.7202C167.239 17.9602 165.847 16.0642 163.063 16.0642C161.479 16.0642 160.159 16.7362 159.199 18.2242H159.151C158.527 16.9042 157.303 16.0642 155.695 16.0642C153.919 16.0642 152.743 16.9042 151.975 18.1762H151.903V16.4242H148.159V28.7122ZM25.3996 1.73518L21.4666 0.680176L18.1526 13.0502L15.1596 1.88218L11.2266 2.93618L14.4596 15.0022L6.40664 6.94918L3.52764 9.82918L12.3606 18.6612L1.36064 15.7142L0.306641 19.6472L12.3256 22.8672C12.0486 21.6734 12.0446 20.4325 12.3139 19.237C12.5831 18.0415 13.1187 16.9221 13.8807 15.9623C14.6427 15.0026 15.6115 14.2272 16.7149 13.6939C17.8183 13.1606 19.0277 12.8832 20.2532 12.8824C21.4787 12.8815 22.6886 13.1572 23.7927 13.689C24.8968 14.2207 25.8666 14.9948 26.63 15.9535C27.3933 16.9122 27.9305 18.0308 28.2014 19.226C28.4723 20.4211 28.47 21.662 28.1946 22.8562L39.1176 25.7822L40.1706 21.8492L28.1046 18.6162L39.1046 15.6692L38.0516 11.7362L25.9856 14.9692L34.0376 6.91618L31.1586 4.03618L22.4486 12.7472L25.3986 1.73418L25.3996 1.73518Z" fill="#252525"/>
<path d="M28.185 22.9001C27.8524 24.3017 27.1532 25.5896 26.159 26.6321L34.072 34.5451L36.952 31.6661L28.185 22.9001ZM26.079 26.7201C25.0768 27.7455 23.8214 28.4879 22.44 28.8721L25.32 39.6181L29.253 38.5641L26.079 26.7201ZM22.293 28.9061C21.6288 29.0765 20.9458 29.1625 20.26 29.1621C19.5261 29.1627 18.7955 29.0641 18.088 28.8691L15.206 39.6241L19.139 40.6781L22.293 28.9061ZM17.948 28.8331C16.5864 28.4297 15.3539 27.6771 14.373 26.6501L6.44002 34.5821L9.32002 37.4621L17.948 28.8331ZM14.307 26.5781C13.3384 25.5428 12.6575 24.272 12.332 22.8921L1.37402 25.8281L2.42802 29.7611L14.308 26.5781H14.307Z" fill="#252525"/>
</svg>
