<svg width="155" height="38" viewBox="0 0 155 38" fill="none" xmlns="http://www.w3.org/2000/svg">
<mask id="mask0_105_5118" style="mask-type:luminance" maskUnits="userSpaceOnUse" x="0" y="0" width="155" height="38">
<path d="M0.103516 0.758301H154.178V37.7533H0.103516V0.758301Z" fill="white"/>
</mask>
<g mask="url(#mask0_105_5118)">
<path d="M44.9697 26.7384H55.9967V23.4904H48.8887V11.2554H44.9688L44.9697 26.7384ZM62.5327 24.5764C60.9607 24.5764 60.1408 23.2334 60.1408 21.2194C60.1408 19.2054 60.9607 17.8414 62.5327 17.8414C64.1047 17.8414 64.9458 19.2054 64.9458 21.2194C64.9458 23.2334 64.1047 24.5764 62.5327 24.5764ZM62.5547 27.0884C66.2087 27.0884 68.5998 24.5544 68.5998 21.2194C68.5998 17.8844 66.2087 15.3514 62.5547 15.3514C58.9237 15.3514 56.4878 17.8844 56.4878 21.2194C56.4878 24.5544 58.9237 27.0884 62.5547 27.0884ZM74.9237 30.5684C76.6057 30.5684 78.0898 30.2004 79.0858 29.3334C79.9938 28.5334 80.5917 27.3204 80.5917 25.6534V15.6464H77.1378V16.8374H77.0927C76.4287 15.9074 75.4108 15.3224 73.9048 15.3224C71.0928 15.3224 69.1447 17.6174 69.1447 20.8654C69.1447 24.2654 71.5138 26.1274 74.0597 26.1274C75.4327 26.1274 76.2958 25.5874 76.9598 24.8504H77.0497V25.9544C77.0497 27.2974 76.4067 28.0764 74.8797 28.0764C73.6827 28.0764 73.0857 27.5784 72.8857 26.9944H69.3878C69.7418 29.3114 71.8007 30.5674 74.9227 30.5674L74.9237 30.5684ZM74.9008 23.5084C73.5508 23.5084 72.6648 22.4254 72.6648 20.7584C72.6648 19.0684 73.5508 17.9864 74.9008 17.9864C76.4068 17.9864 77.2037 19.2424 77.2037 20.7364C77.2037 22.2964 76.4738 23.5084 74.9008 23.5084ZM87.6907 24.5764C86.1187 24.5764 85.2997 23.2334 85.2997 21.2194C85.2997 19.2054 86.1187 17.8414 87.6907 17.8414C89.2627 17.8414 90.1047 19.2054 90.1047 21.2194C90.1047 23.2334 89.2627 24.5764 87.6907 24.5764ZM87.7127 27.0884C91.3667 27.0884 93.7587 24.5544 93.7587 21.2194C93.7587 17.8844 91.3667 15.3514 87.7127 15.3514C84.0817 15.3514 81.6457 17.8844 81.6457 21.2194C81.6457 24.5544 84.0817 27.0884 87.7127 27.0884ZM94.8147 26.7384H98.4247V15.6514H94.8147V26.7384ZM94.8147 14.1134H98.4247V11.2554H94.8147V14.1134ZM99.9897 30.3954H103.599V25.5874H103.644C104.352 26.5184 105.393 27.0814 106.854 27.0814C109.822 27.0814 111.792 24.7864 111.792 21.1914C111.792 17.8564 109.954 15.3224 106.943 15.3224C105.393 15.3224 104.286 15.9944 103.511 16.9904H103.444V15.6474H99.9897V30.3954ZM105.924 24.3534C104.374 24.3534 103.489 23.1184 103.489 21.3214C103.489 19.5244 104.286 18.1594 105.858 18.1594C107.408 18.1594 108.139 19.4154 108.139 21.3214C108.139 23.2054 107.297 24.3534 105.924 24.3534ZM117.667 27.0814C120.634 27.0814 122.826 25.8254 122.826 23.4004C122.826 20.5634 120.479 20.0654 118.486 19.7404C117.047 19.4804 115.763 19.3724 115.763 18.5924C115.763 17.8994 116.449 17.5754 117.335 17.5754C118.331 17.5754 119.018 17.8784 119.15 18.8744H122.472C122.295 16.6874 120.567 15.3224 117.357 15.3224C114.678 15.3224 112.463 16.5354 112.463 18.8744C112.463 21.4734 114.567 21.9924 116.538 22.3174C118.043 22.5774 119.416 22.6854 119.416 23.6814C119.416 24.3964 118.73 24.7864 117.645 24.7864C116.449 24.7864 115.696 24.2454 115.563 23.1404H112.153C112.264 25.5874 114.345 27.0814 117.667 27.0814ZM127.73 27.0594C129.302 27.0594 130.298 26.4524 131.117 25.3694H131.184V26.7344H134.638V15.6464H131.029V21.8404C131.029 23.1604 130.276 24.0704 129.036 24.0704C127.885 24.0704 127.331 23.4004 127.331 22.1864V15.6464H123.744V22.9234C123.744 25.3914 125.117 27.0594 127.73 27.0594ZM136.206 26.7354H139.815V20.5204C139.815 19.1994 140.479 18.2684 141.609 18.2684C142.694 18.2684 143.203 18.9614 143.203 20.1524V26.7354H146.812V20.5204C146.812 19.1994 147.454 18.2684 148.606 18.2684C149.691 18.2684 150.2 18.9614 150.2 20.1524V26.7354H153.809V19.5244C153.809 17.0344 152.525 15.3234 149.956 15.3234C148.495 15.3234 147.277 15.9294 146.391 17.2714H146.347C145.771 16.0814 144.642 15.3234 143.159 15.3234C141.52 15.3234 140.435 16.0804 139.726 17.2284H139.66V15.6484H136.206V26.7354Z" fill="#252525"/>
<path fill-rule="evenodd" clip-rule="evenodd" d="M8.08827 4.27337C6.77277 5.172 5.57947 6.23757 4.53827 7.44337C8.77227 7.05937 14.1513 7.68737 20.3973 10.7414C27.0663 14.0024 32.4363 14.1134 36.1743 13.4084C35.8369 12.4101 35.4112 11.444 34.9023 10.5214C30.6233 10.9624 25.1383 10.3784 18.7463 7.25237C14.6873 5.26737 11.1093 4.45037 8.08827 4.27237V4.27337ZM32.4033 7.04237C29.0233 3.35037 24.1133 1.02637 18.6493 1.02637C17.0443 1.02637 15.4873 1.22637 14.0023 1.60337C16.0123 2.14037 18.1493 2.92537 20.3973 4.02437C25.0773 6.31237 29.1173 7.04937 32.4033 7.04237ZM36.9733 16.9324C32.4573 17.8044 26.2233 17.6254 18.7463 13.9694C11.7573 10.5524 6.19427 10.5954 2.44227 11.4104C2.2526 11.4515 2.06358 11.4955 1.87527 11.5424C1.37983 12.5963 0.98993 13.6966 0.711266 14.8274C1.01127 14.7484 1.32127 14.6734 1.64127 14.6044C6.19327 13.6144 12.6243 13.6584 20.3973 17.4584C27.3863 20.8764 32.9493 20.8334 36.7013 20.0184C36.8293 19.9904 36.9563 19.9614 37.0813 19.9314C37.1295 18.9304 37.0934 17.9272 36.9733 16.9324ZM36.4783 23.7404C32.0073 24.5044 25.9533 24.2104 18.7463 20.6874C11.7573 17.2694 6.19427 17.3124 2.44227 18.1274C1.61027 18.3084 0.860266 18.5294 0.200266 18.7614C0.198266 18.8654 0.197266 18.9684 0.197266 19.0724C0.197266 29.0394 8.45827 37.1194 18.6493 37.1194C27.1893 37.1194 34.3753 31.4454 36.4783 23.7404Z" fill="#252525"/>
</g>
</svg>
