<svg width="19" height="24" viewBox="0 0 19 24" fill="none" xmlns="http://www.w3.org/2000/svg">
<path d="M15.5446 7.50256C15.5446 11.0712 12.8379 13.9641 9.49908 13.9641M15.5446 7.50256C15.5446 3.93394 12.8379 1.04102 9.49908 1.04102M15.5446 7.50256H3.45363M9.49908 13.9641C6.16027 13.9641 3.45363 11.0712 3.45363 7.50256M9.49908 13.9641C10.612 13.9641 11.5142 11.0712 11.5142 7.50256C11.5142 3.93394 10.612 1.04102 9.49908 1.04102M9.49908 13.9641C8.38615 13.9641 7.48393 11.0712 7.48393 7.50256C7.48393 3.93394 8.38615 1.04102 9.49908 1.04102M9.49908 13.9641V17.1949M9.49908 1.04102C6.16027 1.04102 3.45363 3.93394 3.45363 7.50256M9.49908 17.1949C10.3337 17.1949 11.0104 17.9181 11.0104 18.8102M9.49908 17.1949C8.66438 17.1949 7.98772 17.9181 7.98772 18.8102M11.0104 18.8102C11.0104 19.7024 10.3337 20.4256 9.49908 20.4256M11.0104 18.8102H17.5597M9.49908 20.4256C8.66438 20.4256 7.98772 19.7024 7.98772 18.8102M9.49908 20.4256V22.5794M7.98772 18.8102H1.43848" stroke="#265A92" stroke-width="1.33929" stroke-linecap="round"/>
</svg>
