<svg width="117" height="28" viewBox="0 0 117 28" fill="none" xmlns="http://www.w3.org/2000/svg">
<path fill-rule="evenodd" clip-rule="evenodd" d="M7.69035 1.99414V27.5871H0.860352V1.99414H7.69035ZM11.1044 1.99414H25.6164C30.3304 1.99414 34.1524 5.81414 34.1524 10.5251C34.1524 15.2371 30.3304 19.0551 25.6164 19.0551H17.9334V27.5871H11.1034L11.1044 1.99414ZM17.9334 12.2311H25.6164C25.8453 12.239 26.0735 12.2007 26.2873 12.1185C26.5011 12.0362 26.6962 11.9118 26.861 11.7527C27.0257 11.5935 27.1567 11.4027 27.2462 11.1919C27.3357 10.981 27.3818 10.7542 27.3818 10.5251C27.3818 10.2961 27.3357 10.0693 27.2462 9.85843C27.1567 9.64754 27.0257 9.45682 26.861 9.29763C26.6962 9.13844 26.5011 9.01403 26.2873 8.93183C26.0735 8.84962 25.8453 8.8113 25.6164 8.81914H17.9334V12.2311ZM59.7603 1.99414V15.2171C59.7606 15.9457 59.9044 16.667 60.1835 17.34C60.4625 18.0129 60.8714 18.6243 61.3868 19.1392C61.9022 19.6541 62.5139 20.0625 63.1871 20.341C63.8604 20.6194 64.5818 20.7625 65.3103 20.7621C66.7813 20.7624 68.1922 20.1784 69.2326 19.1385C70.273 18.0987 70.8578 16.6881 70.8583 15.2171V1.99414H77.6873V15.2171C77.6873 22.0491 72.1453 27.5871 65.3093 27.5871C58.4734 27.5871 52.9314 22.0491 52.9314 15.2171V1.99414H59.7614H59.7603Z" fill="#252525"/>
<path fill-rule="evenodd" clip-rule="evenodd" d="M36.7138 13.9371C36.7138 7.34114 42.0638 1.99414 48.6638 1.99414H50.3718V8.81914H48.6648C47.9924 8.81888 47.3266 8.95105 46.7053 9.20811C46.084 9.46517 45.5194 9.84209 45.0438 10.3173C44.5682 10.7926 44.1908 11.3569 43.9333 11.978C43.6757 12.599 43.543 13.2648 43.5428 13.9371V14.7901C43.5428 21.8581 37.8098 27.5871 30.7388 27.5871H29.8848V20.7621H30.7388C34.0388 20.7621 36.7138 18.0881 36.7138 14.7901V13.9371Z" fill="#252525"/>
<path d="M116.1 2.84809C116.1 3.52704 115.83 4.17819 115.35 4.65828C114.87 5.13837 114.219 5.40809 113.54 5.40809C112.861 5.40809 112.21 5.13837 111.73 4.65828C111.25 4.17819 110.98 3.52704 110.98 2.84809C110.98 2.16913 111.25 1.51799 111.73 1.03789C112.21 0.557799 112.861 0.288086 113.54 0.288086C114.219 0.288086 114.87 0.557799 115.35 1.03789C115.83 1.51799 116.1 2.16913 116.1 2.84809ZM85.02 27.5871L88.28 13.9501L90.703 22.1541C92.147 27.0471 99.082 27.0471 100.527 22.1541L102.949 13.9501L106.208 27.5871H113.229L108.105 6.14309C106.887 1.04309 99.696 0.855086 98.211 5.88309L95.615 14.6771L93.018 5.88409C91.534 0.855086 84.343 1.04409 83.124 6.14409L78 27.5871H85.02Z" fill="#252525"/>
</svg>
