<svg width="472" height="247" viewBox="0 0 472 247" fill="none" xmlns="http://www.w3.org/2000/svg">
<g clip-path="url(#clip0_105_4414)">
<g clip-path="url(#clip1_105_4414)">
<g clip-path="url(#clip2_105_4414)">
<path d="M227.84 123.078H184.402C173.432 123.078 164.54 114.185 164.54 103.216V43.6296C164.54 32.6598 155.648 23.7676 144.678 23.7676H95.7578" stroke="#CCCFCE" stroke-width="0.993101" stroke-linecap="round" stroke-linejoin="round" stroke-dasharray="5.96 5.96"/>
<path d="M227.84 123.078H184.402C173.432 123.078 164.54 114.185 164.54 103.216V43.6296C164.54 32.6598 155.648 23.7676 144.678 23.7676H95.7578" stroke="#252525" stroke-opacity="0.2" stroke-width="0.993101" stroke-linecap="round" stroke-linejoin="round" stroke-dasharray="5.96 5.96"/>
<path d="M95.2607 23.7676C95.2607 10.8784 84.812 0.429688 71.9228 0.429688C59.0337 0.429688 48.585 10.8784 48.585 23.7676C48.585 36.6567 59.0337 47.1054 71.9228 47.1054C84.812 47.1054 95.2607 36.6567 95.2607 23.7676Z" fill="white"/>
<path d="M95.2607 23.7676C95.2607 10.8784 84.812 0.429688 71.9228 0.429688C59.0337 0.429688 48.585 10.8784 48.585 23.7676C48.585 36.6567 59.0337 47.1054 71.9228 47.1054C84.812 47.1054 95.2607 36.6567 95.2607 23.7676Z" stroke="white" stroke-width="0.993101"/>
<mask id="mask0_105_4414" style="mask-type:luminance" maskUnits="userSpaceOnUse" x="60" y="11" width="24" height="25">
<path d="M60.0059 11.8503H83.8403V35.6848H60.0059V11.8503Z" fill="white"/>
</mask>
<g mask="url(#mask0_105_4414)">
<path fill-rule="evenodd" clip-rule="evenodd" d="M72.2975 11.8503C72.4239 11.8503 72.5451 11.9006 72.6345 11.99C72.7239 12.0794 72.7742 12.2006 72.7742 12.327V16.936C72.7742 17.4604 73.4971 17.6014 73.6928 17.1148L75.4198 12.8415C75.4433 12.7834 75.4779 12.7306 75.5218 12.6859C75.5657 12.6413 75.618 12.6057 75.6756 12.5813C75.7333 12.5569 75.7951 12.544 75.8577 12.5435C75.9204 12.543 75.9824 12.5548 76.0405 12.5783L76.7347 12.8583C76.7927 12.8818 76.8455 12.9165 76.8902 12.9604C76.9348 13.0043 76.9704 13.0565 76.9948 13.1142C77.0192 13.1718 77.0321 13.2337 77.0326 13.2963C77.0331 13.3589 77.0213 13.421 76.9978 13.479L75.1576 18.0354C74.963 18.516 75.5688 18.9173 75.9362 18.5508L79.4111 15.0759C79.4553 15.0316 79.5079 14.9965 79.5657 14.9725C79.6236 14.9486 79.6856 14.9362 79.7482 14.9362C79.8108 14.9362 79.8728 14.9486 79.9307 14.9725C79.9885 14.9965 80.0411 15.0316 80.0854 15.0759L80.6147 15.6063C80.7038 15.6956 80.7539 15.8167 80.7539 15.9429C80.7539 16.0691 80.7038 16.1902 80.6147 16.2796L77.4944 19.3999C77.122 19.7723 77.5401 20.3851 78.0227 20.1745L82.0656 18.4068C82.123 18.3817 82.1848 18.3682 82.2474 18.3671C82.31 18.3659 82.3722 18.3771 82.4305 18.3999C82.4887 18.4228 82.5419 18.4569 82.587 18.5004C82.6321 18.5438 82.6682 18.5957 82.6933 18.6531L82.9932 19.3393C83.0438 19.4551 83.0464 19.5862 83.0004 19.7039C82.9544 19.8216 82.8636 19.9162 82.7479 19.967L78.0882 22.0028C77.6145 22.2094 77.7625 22.9165 78.2789 22.9165H83.3636C83.4262 22.9165 83.4882 22.9288 83.546 22.9528C83.6039 22.9767 83.6564 23.0118 83.7007 23.0561C83.7449 23.1004 83.7801 23.1529 83.804 23.2107C83.828 23.2686 83.8403 23.3306 83.8403 23.3932V24.142C83.8403 24.2684 83.7901 24.3896 83.7007 24.479C83.6113 24.5684 83.49 24.6186 83.3636 24.6186H78.2789C77.7625 24.6186 77.6155 25.3257 78.0882 25.5323L82.7479 27.5682C82.8636 27.6189 82.9544 27.7135 83.0004 27.8312C83.0464 27.9489 83.0438 28.08 82.9932 28.1958L82.6933 28.882C82.6682 28.9394 82.6321 28.9913 82.587 29.0347C82.5419 29.0782 82.4887 29.1123 82.4305 29.1352C82.3722 29.1581 82.31 29.1692 82.2474 29.168C82.1848 29.1669 82.123 29.1534 82.0656 29.1283L78.0227 27.3606C77.5401 27.1501 77.122 27.7628 77.4944 28.1352L80.6147 31.2555C80.659 31.2998 80.6941 31.3524 80.7181 31.4102C80.7421 31.4681 80.7544 31.5301 80.7544 31.5927C80.7544 31.6553 80.7421 31.7173 80.7181 31.7752C80.6941 31.833 80.659 31.8856 80.6147 31.9299L80.0854 32.4592C80.0411 32.5036 79.9885 32.5389 79.9305 32.5629C79.8726 32.587 79.8105 32.5994 79.7477 32.5994C79.685 32.5994 79.6229 32.587 79.5649 32.5629C79.507 32.5389 79.4544 32.5036 79.4101 32.4592L75.9372 28.9853C75.5697 28.6179 74.964 29.0191 75.1586 29.5007L76.9988 34.0561C77.0223 34.1141 77.0341 34.1762 77.0336 34.2388C77.0331 34.3014 77.0202 34.3633 76.9958 34.4209C76.9713 34.4786 76.9358 34.5308 76.8912 34.5747C76.8465 34.6186 76.7937 34.6533 76.7356 34.6768L76.0405 34.9578C75.9233 35.0049 75.7922 35.0035 75.676 34.954C75.5598 34.9044 75.468 34.8108 75.4208 34.6937L73.6938 30.4203C73.4981 29.9347 72.7752 30.0757 72.7752 30.5991V35.2081C72.7752 35.3345 72.7249 35.4558 72.6355 35.5452C72.5461 35.6346 72.4249 35.6848 72.2985 35.6848H71.5497C71.4232 35.6848 71.302 35.6346 71.2126 35.5452C71.1232 35.4558 71.073 35.3345 71.073 35.2081V30.6001C71.073 30.0757 70.35 29.9347 70.1544 30.4213L68.4274 34.6937C68.404 34.7518 68.3694 34.8047 68.3255 34.8495C68.2817 34.8942 68.2294 34.9299 68.1718 34.9544C68.1141 34.9789 68.0522 34.9919 67.9896 34.9925C67.9269 34.993 67.8648 34.9813 67.8067 34.9578L67.1125 34.6768C67.0545 34.6533 67.0016 34.6186 66.957 34.5747C66.9123 34.5308 66.8768 34.4786 66.8523 34.4209C66.8279 34.3633 66.8151 34.3014 66.8145 34.2388C66.814 34.1762 66.8258 34.1141 66.8493 34.0561L68.6895 29.5007C68.8842 29.0191 68.2784 28.6169 67.9109 28.9843L64.4351 32.4612C64.3908 32.5055 64.3383 32.5406 64.2804 32.5646C64.2226 32.5885 64.1606 32.6009 64.0979 32.6009C64.0353 32.6009 63.9733 32.5885 63.9155 32.5646C63.8576 32.5406 63.805 32.5055 63.7608 32.4612L63.2315 31.9308C63.187 31.8866 63.1518 31.8339 63.1277 31.776C63.1036 31.7181 63.0912 31.6559 63.0912 31.5932C63.0912 31.5305 63.1036 31.4683 63.1277 31.4104C63.1518 31.3524 63.187 31.2998 63.2315 31.2555L66.3518 28.1372C66.7242 27.7638 66.3061 27.152 65.8234 27.3626L61.7805 29.1293C61.7231 29.1544 61.6614 29.1679 61.5988 29.169C61.5362 29.1702 61.474 29.159 61.4157 29.1362C61.3574 29.1133 61.3042 29.0792 61.2591 29.0357C61.214 28.9923 61.1779 28.9404 61.1529 28.883L60.853 28.1968C60.8023 28.081 60.7997 27.9499 60.8457 27.8322C60.8917 27.7145 60.9825 27.6199 61.0983 27.5691L65.7579 25.5333C66.2316 25.3267 66.0836 24.6196 65.5672 24.6196H60.4825C60.3561 24.6196 60.2349 24.5694 60.1455 24.48C60.0561 24.3906 60.0059 24.2694 60.0059 24.143V23.3942C60.0059 23.2677 60.0561 23.1465 60.1455 23.0571C60.2349 22.9677 60.3561 22.9175 60.4825 22.9175H65.5672C66.0836 22.9175 66.2316 22.2104 65.7579 22.0038L61.0983 19.968C60.9825 19.9172 60.8917 19.8226 60.8457 19.7049C60.7997 19.5872 60.8023 19.4561 60.853 19.3403L61.1529 18.6551C61.1778 18.5976 61.2139 18.5456 61.2589 18.5021C61.304 18.4585 61.3572 18.4243 61.4154 18.4013C61.4737 18.3784 61.536 18.3671 61.5986 18.3682C61.6613 18.3693 61.7231 18.3828 61.7805 18.4078L65.8234 20.1755C66.3061 20.386 66.7242 19.7733 66.3518 19.4009L63.2315 16.2806C63.1423 16.1912 63.0922 16.0701 63.0922 15.9439C63.0922 15.8177 63.1423 15.6966 63.2315 15.6072L63.7608 15.0769C63.8051 15.0325 63.8577 14.9972 63.9156 14.9732C63.9736 14.9491 64.0357 14.9367 64.0984 14.9367C64.1612 14.9367 64.2233 14.9491 64.2812 14.9732C64.3392 14.9972 64.3918 15.0325 64.4361 15.0769L67.91 18.5518C68.2774 18.9192 68.8832 18.517 68.6885 18.0354L66.8483 13.48C66.8248 13.422 66.813 13.3599 66.8135 13.2973C66.8141 13.2347 66.8269 13.1728 66.8514 13.1152C66.8758 13.0575 66.9113 13.0053 66.956 12.9614C67.0006 12.9175 67.0535 12.8828 67.1115 12.8593L67.8067 12.5793C67.9238 12.5322 68.0547 12.5334 68.1709 12.5828C68.2871 12.6321 68.379 12.7255 68.4264 12.8424L70.1534 17.1158C70.349 17.6024 71.072 17.4614 71.072 16.937V12.329C71.072 12.2026 71.1222 12.0813 71.2116 11.9919C71.301 11.9026 71.4223 11.8523 71.5487 11.8523H72.2975V11.8503ZM71.9231 28.8761C73.2777 28.8761 74.5768 28.338 75.5346 27.3801C76.4925 26.4223 77.0306 25.1231 77.0306 23.7685C77.0306 22.414 76.4925 21.1148 75.5346 20.157C74.5768 19.1991 73.2777 18.661 71.9231 18.661C70.5685 18.661 69.2694 19.1991 68.3115 20.157C67.3537 21.1148 66.8156 22.414 66.8156 23.7685C66.8156 25.1231 67.3537 26.4223 68.3115 27.3801C69.2694 28.338 70.5685 28.8761 71.9231 28.8761Z" fill="#139D49"/>
</g>
<path d="M216.916 123.078H48.0889" stroke="#CCCFCE" stroke-width="0.993101" stroke-linecap="round" stroke-linejoin="round" stroke-dasharray="5.96 5.96"/>
<path d="M216.916 123.078H48.0889" stroke="#252525" stroke-opacity="0.2" stroke-width="0.993101" stroke-linecap="round" stroke-linejoin="round" stroke-dasharray="5.96 5.96"/>
<path d="M48.0888 123.078C48.0888 109.914 37.4177 99.2433 24.2544 99.2433C11.091 99.2433 0.419922 109.914 0.419922 123.078C0.419922 136.241 11.091 146.912 24.2544 146.912C37.4177 146.912 48.0888 136.241 48.0888 123.078Z" fill="white"/>
<path d="M25.8382 123.078C25.8382 123.51 25.6664 123.925 25.3606 124.231C25.0548 124.537 24.6401 124.708 24.2076 124.708C23.7751 124.708 23.3603 124.537 23.0545 124.231C22.7487 123.925 22.5769 123.51 22.5769 123.078C22.5769 122.645 22.7487 122.23 23.0545 121.925C23.3603 121.619 23.7751 121.447 24.2076 121.447C24.6401 121.447 25.0548 121.619 25.3606 121.925C25.6664 122.23 25.8382 122.645 25.8382 123.078ZM30.2923 125.65C30.2922 125.864 30.25 126.076 30.1679 126.274C30.0859 126.472 29.9656 126.652 29.814 126.803C29.6625 126.955 29.4826 127.075 29.2846 127.157C29.0866 127.239 28.8744 127.281 28.6601 127.281C28.4459 127.281 28.2337 127.239 28.0358 127.157C27.8378 127.075 27.658 126.954 27.5065 126.803C27.3551 126.651 27.2349 126.471 27.153 126.273C27.071 126.075 27.0289 125.863 27.029 125.649C27.0396 125.223 27.2162 124.819 27.521 124.521C27.8259 124.224 28.2349 124.058 28.6606 124.058C29.0864 124.058 29.4953 124.225 29.7999 124.522C30.1046 124.819 30.2819 125.224 30.2923 125.65ZM34.7444 128.221C34.7497 128.438 34.7115 128.655 34.632 128.857C34.5525 129.06 34.4333 129.244 34.2814 129.4C34.1295 129.556 33.948 129.679 33.7475 129.764C33.5471 129.848 33.3317 129.892 33.1142 129.892C32.8967 129.892 32.6813 129.848 32.4809 129.764C32.2804 129.679 32.0989 129.556 31.947 129.4C31.7951 129.244 31.6759 129.06 31.5964 128.857C31.5169 128.655 31.4787 128.438 31.484 128.221C31.4945 127.796 31.6709 127.391 31.9755 127.094C32.28 126.797 32.6887 126.631 33.1142 126.631C33.5397 126.631 33.9484 126.797 34.2529 127.094C34.5575 127.391 34.7339 127.796 34.7444 128.221ZM21.4477 120.507C21.4477 120.939 21.2759 121.354 20.9701 121.66C20.6643 121.965 20.2496 122.137 19.8171 122.137C19.3846 122.137 18.9698 121.965 18.664 121.66C18.3582 121.354 18.1864 120.939 18.1864 120.507C18.1864 120.074 18.3582 119.659 18.664 119.354C18.9698 119.048 19.3846 118.876 19.8171 118.876C20.2496 118.876 20.6643 119.048 20.9701 119.354C21.2759 119.659 21.4477 120.074 21.4477 120.507ZM17.0572 117.934C17.0572 118.149 17.0151 118.361 16.9331 118.558C16.8512 118.756 16.7311 118.936 16.5796 119.088C16.4282 119.239 16.2484 119.359 16.0506 119.441C15.8528 119.523 15.6407 119.565 15.4266 119.565C15.2124 119.565 15.0004 119.523 14.8025 119.441C14.6047 119.359 14.4249 119.239 14.2735 119.088C14.1221 118.936 14.002 118.756 13.92 118.558C13.8381 118.361 13.7959 118.149 13.7959 117.934C13.7959 117.502 13.9677 117.087 14.2735 116.781C14.5793 116.476 14.9941 116.304 15.4266 116.304C15.8591 116.304 16.2738 116.476 16.5796 116.781C16.8854 117.087 17.0572 117.502 17.0572 117.934ZM21.4477 125.65C21.453 125.867 21.4148 126.084 21.3351 126.286C21.2555 126.489 21.1362 126.674 20.9841 126.829C20.8321 126.985 20.6504 127.109 20.4498 127.193C20.2492 127.278 20.0337 127.321 19.8161 127.321C19.5984 127.321 19.383 127.278 19.1824 127.193C18.9819 127.108 18.8003 126.985 18.6483 126.829C18.4964 126.673 18.3771 126.488 18.2976 126.286C18.2181 126.083 18.18 125.866 18.1854 125.649C18.196 125.223 18.3726 124.819 18.6775 124.521C18.9823 124.224 19.3913 124.058 19.8171 124.058C20.2428 124.058 20.6517 124.225 20.9564 124.522C21.261 124.819 21.4374 125.224 21.4477 125.65ZM17.0572 128.221C17.0572 128.435 17.0151 128.647 16.9331 128.845C16.8512 129.043 16.7311 129.223 16.5796 129.374C16.4282 129.525 16.2484 129.646 16.0506 129.728C15.8528 129.81 15.6407 129.852 15.4266 129.852C15.2124 129.852 15.0004 129.81 14.8025 129.728C14.6047 129.646 14.4249 129.525 14.2735 129.374C14.1221 129.223 14.002 129.043 13.92 128.845C13.8381 128.647 13.7959 128.435 13.7959 128.221C13.7959 127.789 13.9677 127.374 14.2735 127.068C14.5793 126.762 14.9941 126.59 15.4266 126.59C15.8591 126.59 16.2738 126.762 16.5796 127.068C16.8854 127.374 17.0572 127.789 17.0572 128.221ZM30.2923 120.507C30.2923 120.939 30.1204 121.354 29.8145 121.66C29.5086 121.966 29.0937 122.138 28.6611 122.138C28.2285 122.138 27.8136 121.966 27.5077 121.66C27.2018 121.354 27.03 120.939 27.03 120.507C27.03 120.074 27.2018 119.659 27.5076 119.354C27.8134 119.048 28.2282 118.876 28.6606 118.876C29.0931 118.876 29.5079 119.048 29.8137 119.354C30.1195 119.659 30.2923 120.074 30.2923 120.507ZM34.7444 117.934C34.7497 118.152 34.7115 118.368 34.632 118.571C34.5525 118.773 34.4333 118.958 34.2814 119.113C34.1295 119.269 33.948 119.393 33.7475 119.477C33.5471 119.562 33.3317 119.605 33.1142 119.605C32.8967 119.605 32.6813 119.562 32.4809 119.477C32.2804 119.393 32.0989 119.269 31.947 119.113C31.7951 118.958 31.6759 118.773 31.5964 118.571C31.5169 118.368 31.4787 118.152 31.484 117.934C31.4945 117.509 31.6709 117.105 31.9755 116.808C32.28 116.51 32.6887 116.344 33.1142 116.344C33.5397 116.344 33.9484 116.51 34.2529 116.808C34.5575 117.105 34.7339 117.509 34.7444 117.934ZM25.8382 128.221C25.8382 128.653 25.6664 129.068 25.3606 129.374C25.0548 129.68 24.6401 129.852 24.2076 129.852C23.7751 129.852 23.3603 129.68 23.0545 129.374C22.7487 129.068 22.5769 128.653 22.5769 128.221C22.5769 127.789 22.7487 127.374 23.0545 127.068C23.3603 126.762 23.7751 126.59 24.2076 126.59C24.6401 126.59 25.0548 126.762 25.3606 127.068C25.6664 127.374 25.8382 127.789 25.8382 128.221ZM25.8382 133.364C25.8382 133.797 25.6664 134.212 25.3606 134.517C25.0548 134.823 24.6401 134.995 24.2076 134.995C23.7751 134.995 23.3603 134.823 23.0545 134.517C22.7487 134.212 22.5769 133.797 22.5769 133.364C22.5769 132.932 22.7487 132.517 23.0545 132.211C23.3603 131.905 23.7751 131.734 24.2076 131.734C24.6401 131.734 25.0548 131.905 25.3606 132.211C25.6664 132.517 25.8382 132.932 25.8382 133.364ZM25.8382 117.934C25.8382 118.367 25.6664 118.782 25.3606 119.088C25.0548 119.393 24.6401 119.565 24.2076 119.565C23.7751 119.565 23.3603 119.393 23.0545 119.088C22.7487 118.782 22.5769 118.367 22.5769 117.934C22.5769 117.502 22.7487 117.087 23.0545 116.781C23.3603 116.476 23.7751 116.304 24.2076 116.304C24.6401 116.304 25.0548 116.476 25.3606 116.781C25.6664 117.087 25.8382 117.502 25.8382 117.934ZM25.8382 112.791C25.8382 113.224 25.6664 113.638 25.3606 113.944C25.0548 114.25 24.6401 114.422 24.2076 114.422C23.7751 114.422 23.3603 114.25 23.0545 113.944C22.7487 113.638 22.5769 113.224 22.5769 112.791C22.5769 112.359 22.7487 111.944 23.0545 111.638C23.3603 111.332 23.7751 111.161 24.2076 111.161C24.6401 111.161 25.0548 111.332 25.3606 111.638C25.6664 111.944 25.8382 112.359 25.8382 112.791Z" fill="#FF6D41"/>
<path d="M227.84 123.078H194.333C177.879 123.078 164.54 136.417 164.54 152.871V192.595C164.54 209.05 151.202 222.388 134.747 222.388H95.7578" stroke="#CCCFCE" stroke-width="0.993101" stroke-linecap="round" stroke-linejoin="round" stroke-dasharray="5.96 5.96"/>
<path d="M227.84 123.078H194.333C177.879 123.078 164.54 136.417 164.54 152.871V192.595C164.54 209.05 151.202 222.388 134.747 222.388H95.7578" stroke="#252525" stroke-opacity="0.2" stroke-width="0.993101" stroke-linecap="round" stroke-linejoin="round" stroke-dasharray="5.96 5.96"/>
<path d="M95.2607 222.388C95.2607 209.499 84.812 199.05 71.9228 199.05C59.0337 199.05 48.585 209.499 48.585 222.388C48.585 235.277 59.0337 245.726 71.9228 245.726C84.812 245.726 95.2607 235.277 95.2607 222.388Z" fill="white"/>
<path d="M95.2607 222.388C95.2607 209.499 84.812 199.05 71.9228 199.05C59.0337 199.05 48.585 209.499 48.585 222.388C48.585 235.277 59.0337 245.726 71.9228 245.726C84.812 245.726 95.2607 235.277 95.2607 222.388Z" stroke="white" stroke-width="0.993101"/>
<mask id="mask1_105_4414" style="mask-type:luminance" maskUnits="userSpaceOnUse" x="60" y="210" width="24" height="25">
<path d="M60.0059 210.471H83.8403V234.305H60.0059V210.471Z" fill="white"/>
</mask>
<g mask="url(#mask1_105_4414)">
<path d="M71.4265 215.279C72.0642 215.279 72.6757 215.026 73.1266 214.575C73.5775 214.124 73.8308 213.513 73.8308 212.875C73.8308 212.237 73.5775 211.626 73.1266 211.175C72.6757 210.724 72.0642 210.471 71.4265 210.471C70.7889 210.471 70.1773 210.724 69.7264 211.175C69.2755 211.626 69.0222 212.237 69.0222 212.875C69.0222 213.513 69.2755 214.124 69.7264 214.575C70.1773 215.026 70.7889 215.279 71.4265 215.279ZM71.4265 224.302C72.0642 224.302 72.6757 224.049 73.1266 223.598C73.5775 223.147 73.8308 222.536 73.8308 221.898C73.8308 221.261 73.5775 220.649 73.1266 220.198C72.6757 219.747 72.0642 219.494 71.4265 219.494C70.7889 219.494 70.1773 219.747 69.7264 220.198C69.2755 220.649 69.0222 221.261 69.0222 221.898C69.0222 222.536 69.2755 223.147 69.7264 223.598C70.1773 224.049 70.7889 224.302 71.4265 224.302ZM62.4102 224.302C63.0478 224.302 63.6594 224.049 64.1103 223.598C64.5611 223.147 64.8145 222.536 64.8145 221.898C64.8145 221.261 64.5611 220.649 64.1103 220.198C63.6594 219.747 63.0478 219.494 62.4102 219.494C61.7725 219.494 61.161 219.747 60.7101 220.198C60.2592 220.649 60.0059 221.261 60.0059 221.898C60.0059 222.536 60.2592 223.147 60.7101 223.598C61.161 224.049 61.7725 224.302 62.4102 224.302ZM81.0467 224.302C81.6844 224.302 82.2959 224.049 82.7468 223.598C83.1977 223.147 83.451 222.536 83.451 221.898C83.451 221.261 83.1977 220.649 82.7468 220.198C82.2959 219.747 81.6844 219.494 81.0467 219.494C80.409 219.494 79.7975 219.747 79.3466 220.198C78.8957 220.649 78.6424 221.261 78.6424 221.898C78.6424 222.536 78.8957 223.147 79.3466 223.598C79.7975 224.049 80.409 224.302 81.0467 224.302ZM77.7397 216.572C77.9403 216.577 78.1399 216.542 78.3268 216.469C78.5136 216.396 78.6839 216.286 78.8276 216.146C78.9713 216.005 79.0854 215.838 79.1634 215.653C79.2413 215.468 79.2814 215.269 79.2814 215.069C79.2813 214.868 79.2411 214.669 79.163 214.484C79.0849 214.299 78.9707 214.132 78.8269 213.992C78.6831 213.852 78.5127 213.742 78.3259 213.669C78.139 213.596 77.9393 213.561 77.7387 213.566C77.3467 213.576 76.9742 213.739 76.7006 214.02C76.4269 214.3 76.2738 214.677 76.2738 215.069C76.2738 215.461 76.4269 215.838 76.7006 216.119C76.9742 216.399 77.3477 216.562 77.7397 216.572ZM77.7397 229.699C78.1382 229.699 78.5204 229.541 78.8021 229.259C79.0839 228.977 79.2422 228.595 79.2422 228.196C79.2422 227.798 79.0839 227.416 78.8021 227.134C78.5204 226.852 78.1382 226.694 77.7397 226.694C77.3412 226.694 76.959 226.852 76.6772 227.134C76.3954 227.416 76.2371 227.798 76.2371 228.196C76.2371 228.595 76.3954 228.977 76.6772 229.259C76.959 229.541 77.3412 229.699 77.7397 229.699ZM65.1164 229.699C65.5149 229.699 65.897 229.541 66.1788 229.259C66.4606 228.977 66.6189 228.595 66.6189 228.196C66.6189 227.798 66.4606 227.416 66.1788 227.134C65.897 226.852 65.5149 226.694 65.1164 226.694C64.7179 226.694 64.3357 226.852 64.0539 227.134C63.7721 227.416 63.6138 227.798 63.6138 228.196C63.6138 228.595 63.7721 228.977 64.0539 229.259C64.3357 229.541 64.7179 229.699 65.1164 229.699ZM65.1164 216.572C65.317 216.577 65.5166 216.542 65.7035 216.469C65.8903 216.396 66.0606 216.286 66.2043 216.146C66.348 216.005 66.4621 215.838 66.5401 215.653C66.618 215.468 66.6581 215.269 66.6581 215.069C66.658 214.868 66.6177 214.669 66.5397 214.484C66.4616 214.299 66.3473 214.132 66.2036 213.992C66.0598 213.852 65.8894 213.742 65.7025 213.669C65.5156 213.596 65.316 213.561 65.1154 213.566C64.7234 213.576 64.351 213.739 64.0774 214.02C63.8038 214.301 63.6508 214.678 63.6509 215.07C63.6511 215.462 63.8043 215.838 64.0781 216.119C64.3518 216.4 64.7244 216.562 65.1164 216.572ZM71.4265 233.318C72.0642 233.318 72.6757 233.065 73.1266 232.614C73.5775 232.163 73.8308 231.551 73.8308 230.914C73.8308 230.276 73.5775 229.664 73.1266 229.213C72.6757 228.763 72.0642 228.509 71.4265 228.509C70.7889 228.509 70.1773 228.763 69.7264 229.213C69.2755 229.664 69.0222 230.276 69.0222 230.914C69.0222 231.551 69.2755 232.163 69.7264 232.614C70.1773 233.065 70.7889 233.318 71.4265 233.318Z" fill="#252525"/>
</g>
<path d="M254.654 123.078H423.482" stroke="#CCCFCE" stroke-width="0.993101" stroke-linecap="round" stroke-linejoin="round" stroke-dasharray="5.96 5.96"/>
<path d="M254.654 123.078H423.482" stroke="#252525" stroke-opacity="0.2" stroke-width="0.993101" stroke-linecap="round" stroke-linejoin="round" stroke-dasharray="5.96 5.96"/>
<path d="M471.15 123.078C471.15 109.914 460.479 99.2433 447.316 99.2433C434.152 99.2433 423.481 109.914 423.481 123.078C423.481 136.241 434.152 146.912 447.316 146.912C460.479 146.912 471.15 136.241 471.15 123.078Z" fill="#635BFF"/>
<path d="M458.736 129.343V134.191L447.812 128.729V123.881L458.736 129.343ZM447.812 122.274V117.426L458.736 111.964V116.812L447.812 122.274ZM435.895 123.881L446.819 129.343V134.191L435.895 128.729V123.881ZM446.819 116.812L435.895 122.274V117.426L446.819 111.964V116.812Z" fill="white" stroke="white" stroke-width="0.993101"/>
<path d="M243.729 123.078H287.168C298.138 123.078 307.03 114.185 307.03 103.216V43.6296C307.03 32.6598 315.922 23.7676 326.892 23.7676H375.812" stroke="#CCCFCE" stroke-width="0.993101" stroke-linecap="round" stroke-linejoin="round" stroke-dasharray="5.96 5.96"/>
<path d="M243.729 123.078H287.168C298.138 123.078 307.03 114.185 307.03 103.216V43.6296C307.03 32.6598 315.922 23.7676 326.892 23.7676H375.812" stroke="#252525" stroke-opacity="0.2" stroke-width="0.993101" stroke-linecap="round" stroke-linejoin="round" stroke-dasharray="5.96 5.96"/>
<path d="M423.481 23.7675C423.481 10.6041 412.81 -0.0668945 399.647 -0.0668945C386.484 -0.0668945 375.812 10.6041 375.812 23.7675C375.812 36.9309 386.484 47.602 399.647 47.602C412.81 47.602 423.481 36.9309 423.481 23.7675Z" fill="#95BF46"/>
<path d="M402.124 12.3469L399.869 21.9224C399.721 21.9046 399.572 21.9046 399.424 21.9224L397.168 12.3469H402.124ZM401.108 22.6206C401.016 22.5033 400.911 22.3976 400.793 22.3057L405.969 13.9399L409.474 17.4445L401.108 22.6206ZM401.504 23.7676C401.504 23.6921 401.5 23.6186 401.491 23.5451L411.067 21.2898V26.2454L401.491 23.991C401.5 23.9175 401.504 23.8431 401.504 23.7676ZM400.793 25.2294C400.91 25.1381 401.017 25.0318 401.108 24.9146L409.474 30.0907L405.969 33.5963L400.793 25.2294ZM399.646 25.6267C399.722 25.6267 399.796 25.6217 399.869 25.6128L402.124 35.1883H397.168L399.424 25.6128C399.496 25.6227 399.571 25.6267 399.646 25.6267ZM398.184 24.9146C398.276 25.0318 398.382 25.1381 398.499 25.2294L393.323 33.5953L389.819 30.0907L398.184 24.9146ZM397.788 23.7676C397.788 23.8431 397.792 23.9166 397.801 23.99L388.226 26.2454V21.2898L397.801 23.5441C397.792 23.6183 397.788 23.6929 397.788 23.7676ZM398.499 22.3057C398.382 22.3974 398.276 22.5031 398.184 22.6206L389.819 17.4445L393.323 13.9389L398.499 22.3057Z" fill="white" stroke="white" stroke-width="0.993101"/>
<path d="M243.729 123.078H277.237C293.69 123.078 307.03 136.417 307.03 152.871V192.595C307.03 209.05 320.368 222.388 336.823 222.388H375.812" stroke="#CCCFCE" stroke-width="0.993101" stroke-linecap="round" stroke-linejoin="round" stroke-dasharray="5.96 5.96"/>
<path d="M243.729 123.078H277.237C293.69 123.078 307.03 136.417 307.03 152.871V192.595C307.03 209.05 320.368 222.388 336.823 222.388H375.812" stroke="#252525" stroke-opacity="0.2" stroke-width="0.993101" stroke-linecap="round" stroke-linejoin="round" stroke-dasharray="5.96 5.96"/>
<path d="M422.984 222.388C422.984 209.499 412.536 199.05 399.646 199.05C386.757 199.05 376.309 209.499 376.309 222.388C376.309 235.277 386.757 245.726 399.646 245.726C412.536 245.726 422.984 235.277 422.984 222.388Z" fill="white"/>
<path d="M422.984 222.388C422.984 209.499 412.536 199.05 399.646 199.05C386.757 199.05 376.309 209.499 376.309 222.388C376.309 235.277 386.757 245.726 399.646 245.726C412.536 245.726 422.984 235.277 422.984 222.388Z" stroke="white" stroke-width="0.993101"/>
<mask id="mask2_105_4414" style="mask-type:luminance" maskUnits="userSpaceOnUse" x="387" y="210" width="26" height="26">
<path d="M387.729 210.471H412.557V235.298H387.729V210.471Z" fill="white"/>
</mask>
<g mask="url(#mask2_105_4414)">
<path d="M408.334 227.111C408.172 227.272 407.981 227.4 407.77 227.488C407.559 227.575 407.333 227.62 407.105 227.62C406.876 227.62 406.65 227.575 406.44 227.488C406.229 227.4 406.037 227.272 405.876 227.111L402.88 224.115C402.718 223.953 402.59 223.762 402.503 223.551C402.415 223.34 402.37 223.114 402.37 222.886C402.37 222.658 402.415 222.432 402.503 222.221C402.59 222.01 402.718 221.818 402.88 221.657L405.876 218.661C406.037 218.499 406.229 218.371 406.44 218.284C406.65 218.197 406.876 218.152 407.105 218.152C407.333 218.152 407.559 218.197 407.77 218.284C407.981 218.371 408.172 218.499 408.334 218.661L411.33 221.657C411.491 221.818 411.619 222.01 411.707 222.221C411.794 222.432 411.839 222.658 411.839 222.886C411.839 223.114 411.794 223.34 411.707 223.551C411.619 223.762 411.491 223.953 411.33 224.115L408.334 227.111ZM394.414 227.111C394.253 227.272 394.061 227.4 393.851 227.488C393.64 227.575 393.414 227.62 393.185 227.62C392.957 227.62 392.731 227.575 392.52 227.488C392.309 227.4 392.118 227.272 391.956 227.111L388.96 224.115C388.799 223.953 388.671 223.762 388.583 223.551C388.496 223.34 388.451 223.114 388.451 222.886C388.451 222.658 388.496 222.432 388.583 222.221C388.671 222.01 388.799 221.818 388.96 221.657L391.956 218.661C392.118 218.499 392.309 218.371 392.52 218.284C392.731 218.197 392.957 218.152 393.185 218.152C393.414 218.152 393.64 218.197 393.851 218.284C394.061 218.371 394.253 218.499 394.414 218.661L397.411 221.657C397.572 221.818 397.7 222.01 397.787 222.221C397.875 222.432 397.92 222.658 397.92 222.886C397.92 223.114 397.875 223.34 397.787 223.551C397.7 223.762 397.572 223.953 397.411 224.115L394.414 227.111ZM401.374 234.071C401.213 234.232 401.021 234.36 400.81 234.447C400.599 234.535 400.373 234.58 400.145 234.58C399.917 234.58 399.691 234.535 399.48 234.447C399.269 234.36 399.077 234.232 398.916 234.071L395.92 231.074C395.759 230.913 395.63 230.721 395.543 230.511C395.456 230.3 395.411 230.074 395.411 229.845C395.411 229.617 395.456 229.391 395.543 229.18C395.63 228.969 395.759 228.778 395.92 228.616L398.916 225.62C399.077 225.459 399.269 225.331 399.48 225.244C399.691 225.156 399.917 225.111 400.145 225.111C400.373 225.111 400.599 225.156 400.81 225.244C401.021 225.331 401.213 225.459 401.374 225.62L404.37 228.616C404.532 228.778 404.66 228.969 404.747 229.18C404.834 229.391 404.879 229.617 404.879 229.845C404.879 230.074 404.834 230.3 404.747 230.511C404.66 230.721 404.532 230.913 404.37 231.074L401.374 234.071ZM401.374 220.151C401.213 220.313 401.021 220.441 400.81 220.528C400.599 220.615 400.373 220.66 400.145 220.66C399.917 220.66 399.691 220.615 399.48 220.528C399.269 220.441 399.077 220.313 398.916 220.151L395.92 217.155C395.759 216.994 395.63 216.802 395.543 216.591C395.456 216.38 395.411 216.154 395.411 215.926C395.411 215.698 395.456 215.472 395.543 215.261C395.63 215.05 395.759 214.859 395.92 214.697L398.916 211.701C399.077 211.54 399.269 211.412 399.48 211.324C399.691 211.237 399.917 211.192 400.145 211.192C400.373 211.192 400.599 211.237 400.81 211.324C401.021 211.412 401.213 211.54 401.374 211.701L404.37 214.697C404.532 214.859 404.66 215.05 404.747 215.261C404.834 215.472 404.879 215.698 404.879 215.926C404.879 216.154 404.834 216.38 404.747 216.591C404.66 216.802 404.532 216.994 404.37 217.155L401.374 220.151Z" fill="#F8BD00"/>
</g>
<path d="M275.509 123.078C275.509 101.139 257.724 83.3536 235.785 83.3536C213.846 83.3536 196.061 101.139 196.061 123.078C196.061 145.017 213.846 162.802 235.785 162.802C257.724 162.802 275.509 145.017 275.509 123.078Z" fill="white"/>
<path d="M240.375 138.761H224.125V135.511H240.375V138.761ZM251.75 109.5L244.056 119.177L243.698 119.616L234.55 131.299C234.248 131.601 233.889 131.841 233.495 132.004C233.1 132.168 232.677 132.252 232.25 132.252C231.823 132.252 231.4 132.168 231.006 132.004C230.611 131.841 230.253 131.601 229.951 131.299C229.649 130.997 229.409 130.639 229.246 130.244C229.082 129.85 228.998 129.427 228.998 129C228.998 128.573 229.082 128.15 229.246 127.756C229.409 127.361 229.649 127.003 229.951 126.701L251.75 109.5ZM220.298 114.755C217.951 118.515 217.106 123.021 217.934 127.375H219.25V125.75C219.234 122.551 220.192 119.422 221.996 116.78L220.298 114.755ZM235.5 106.25C233.015 106.25 230.557 106.77 228.285 107.777C226.013 108.783 223.976 110.254 222.307 112.095L224.166 114.31C226.372 112.282 229.253 111.147 232.25 111.125C235.263 111.146 238.159 112.292 240.37 114.339L246.139 109.786C243.067 107.491 239.335 106.25 235.5 106.25ZM246.599 121.2L246.22 121.666L245.037 123.178C245.176 124.028 245.247 124.888 245.25 125.75V127.375H253.066C253.837 123.308 253.157 119.1 251.144 115.483L246.599 121.2Z" fill="#FF5E15"/>
</g>
</g>
</g>
<defs>
<clipPath id="clip0_105_4414">
<path d="M0.419922 16.1899C0.419922 7.35339 7.58337 0.189941 16.4199 0.189941H455.15C463.987 0.189941 471.15 7.35339 471.15 16.1899V246.47H0.419922V16.1899Z" fill="white"/>
</clipPath>
<clipPath id="clip1_105_4414">
<rect width="470.73" height="246.28" fill="white" transform="translate(0.419922 0.189941)"/>
</clipPath>
<clipPath id="clip2_105_4414">
<rect width="470.73" height="247.282" fill="white" transform="translate(0.419922 -0.311157)"/>
</clipPath>
</defs>
</svg>
