<svg width="40" height="41" viewBox="0 0 40 41" fill="none" xmlns="http://www.w3.org/2000/svg">
<g clip-path="url(#clip0_105_5553)">
<rect y="0.958984" width="40" height="40" rx="20" fill="white"/>
<g clip-path="url(#clip1_105_5553)">
<g clip-path="url(#clip2_105_5553)">
<path d="M11.3604 21.3529C11.3604 17.2806 11.3604 15.2435 12.6256 13.9782C13.8909 12.7129 15.928 12.7129 20.0004 12.7129C24.0736 12.7129 26.1098 12.7129 27.3751 13.9782C28.6404 15.2435 28.6404 17.2806 28.6404 21.3529C28.6404 25.4262 28.6404 27.4623 27.3751 28.7276C26.1098 29.9929 24.0727 29.9929 20.0004 29.9929C15.9271 29.9929 13.8909 29.9929 12.6256 28.7276C11.3604 27.4623 11.3604 25.4252 11.3604 21.3529Z" stroke="#2D3934" stroke-width="1.44" stroke-linejoin="round"/>
<path d="M24.0971 21.3469C24.0971 21.8844 23.9912 22.4166 23.7855 22.9132C23.5798 23.4098 23.2783 23.861 22.8983 24.241C22.5182 24.6211 22.067 24.9226 21.5704 25.1283C21.0738 25.334 20.5416 25.4398 20.0041 25.4398C19.4666 25.4398 18.9344 25.334 18.4378 25.1283C17.9412 24.9226 17.49 24.6211 17.1099 24.241C16.7299 23.861 16.4284 23.4098 16.2227 22.9132C16.017 22.4166 15.9111 21.8844 15.9111 21.3469C15.9111 20.2613 16.3424 19.2203 17.1099 18.4527C17.8775 17.6851 18.9186 17.2539 20.0041 17.2539C21.0896 17.2539 22.1307 17.6851 22.8983 18.4527C23.6658 19.2203 24.0971 20.2613 24.0971 21.3469Z" stroke="#2D3934" stroke-width="1.44"/>
<path d="M25.009 16.3506H25.001" stroke="#2D3934" stroke-width="1.8" stroke-linecap="round" stroke-linejoin="round"/>
</g>
</g>
</g>
<defs>
<clipPath id="clip0_105_5553">
<rect width="40" height="40" fill="white" transform="translate(0 0.958984)"/>
</clipPath>
<clipPath id="clip1_105_5553">
<rect width="24" height="24" fill="white" transform="translate(8 8.95898)"/>
</clipPath>
<clipPath id="clip2_105_5553">
<rect width="24" height="24" fill="white" transform="translate(8 8.95898)"/>
</clipPath>
</defs>
</svg>
