<svg width="21" height="21" viewBox="0 0 21 21" fill="none" xmlns="http://www.w3.org/2000/svg">
<path d="M11.3024 16.5937C11.3226 14.5741 10.8105 12.932 10.1593 12.9258C9.50808 12.9192 8.96424 14.5512 8.94489 16.5704C8.92465 18.59 9.4368 20.2316 10.088 20.2382C10.7392 20.2444 11.283 18.6133 11.3024 16.5937ZM7.52588 16.1348C8.63468 14.4469 9.0914 12.7886 8.54712 12.4313C8.00284 12.0736 6.66304 13.1524 5.55468 14.8403C4.44588 16.5286 3.98872 18.1865 4.53344 18.5442C5.07772 18.9015 6.41752 17.8226 7.52588 16.1348ZM4.5924 13.713C6.43732 12.8924 7.71816 11.7444 7.45372 11.1496C7.18884 10.5547 5.47856 10.7373 3.63364 11.5583C1.78828 12.3789 0.507444 13.5264 0.771884 14.1218C1.03676 14.7166 2.74748 14.5336 4.5924 13.713ZM7.2324 9.48063C7.3314 8.83735 5.7936 8.06647 3.79776 7.75891C1.80192 7.45179 0.103524 7.72459 0.00452409 8.36831C-0.0944759 9.01203 1.44332 9.78291 3.43872 10.09C5.435 10.3972 7.13296 10.1244 7.23196 9.48063H7.2324ZM7.94872 7.94767C8.37992 7.45927 7.503 5.97999 5.98984 4.64239C4.47668 3.30523 2.9006 2.61663 2.4694 3.10459C2.0382 3.59299 2.91512 5.07227 4.42828 6.40987C5.941 7.74703 7.51709 8.43607 7.94872 7.94767ZM9.37564 7.05139C10.0026 6.87407 10.0647 5.15499 9.51513 3.21195C8.96513 1.26891 8.0112 -0.162845 7.38464 0.0149146C6.75808 0.192235 6.6956 1.91131 7.2456 3.85435C7.7956 5.79695 8.74908 7.22871 9.37564 7.05139ZM13.2507 3.91463C13.839 1.98303 13.8108 0.262635 13.1878 0.0734347C12.5643 -0.116205 11.5827 1.29575 10.9948 3.22779C10.4066 5.15939 10.4352 6.87979 11.0582 7.06899C11.6812 7.25863 12.6629 5.84667 13.2507 3.91419V3.91463ZM16.0196 6.52471C17.5588 5.21747 18.4647 3.75535 18.0428 3.25903C17.6212 2.76271 16.032 3.42007 14.4928 4.72775C12.9537 6.03499 12.0482 7.49711 12.4697 7.99343C12.8917 8.48975 14.4805 7.83239 16.0196 6.52471ZM16.9353 10.219C18.9373 9.95099 20.4896 9.21091 20.4029 8.56543C20.3167 7.91995 18.624 7.61371 16.6224 7.88123C14.6209 8.14919 13.0686 8.88927 13.1552 9.53519C13.241 10.1802 14.9337 10.4869 16.9353 10.219ZM19.5172 14.3061C19.7935 13.7165 18.5356 12.5435 16.7069 11.6868C14.8783 10.8297 13.172 10.6132 12.8956 11.2028C12.6193 11.7924 13.8777 12.9654 15.7059 13.8221C17.5346 14.6792 19.2409 14.8957 19.5172 14.3061ZM15.6712 18.6573C16.2225 18.3106 15.7979 16.6438 14.723 14.934C13.648 13.2246 12.3298 12.1198 11.7785 12.4665C11.2272 12.8132 11.6518 14.4799 12.7267 16.1893C13.8016 17.8992 15.1198 19.004 15.6712 18.6573Z" fill="#FF5E15"/>
</svg>
