<svg width="25" height="24" viewBox="0 0 25 24" fill="none" xmlns="http://www.w3.org/2000/svg">
<g clip-path="url(#clip0_138_1993)">
<g clip-path="url(#clip1_138_1993)">
<path d="M7.61496 10.9536C6.85272 10.9536 6.69336 11.1197 6.69336 11.9136V13.3536C6.69336 14.1485 6.85272 14.3136 7.61496 14.3136H9.4572V20.0736C9.4572 20.8675 9.61656 21.0336 10.3788 21.0336H12.221C12.9833 21.0336 13.1426 20.8675 13.1426 20.0736V14.3136H15.2114C15.7894 14.3136 15.9382 14.1965 16.0966 13.6176L16.4921 12.1776C16.7638 11.185 16.5958 10.9536 15.606 10.9536H13.1426V8.5536C13.1426 8.02368 13.5554 7.5936 14.0642 7.5936H16.685C17.4482 7.5936 17.6066 7.42752 17.6066 6.6336V4.7136C17.6066 3.91968 17.4482 3.7536 16.685 3.7536H14.0642C11.5202 3.7536 9.45624 5.90304 9.45624 8.5536V10.9536H7.61496Z" stroke="#252525" stroke-width="1.44" stroke-linejoin="round"/>
</g>
</g>
<defs>
<clipPath id="clip0_138_1993">
<rect width="24" height="24" fill="white" transform="translate(0.629883)"/>
</clipPath>
<clipPath id="clip1_138_1993">
<rect width="24" height="24" fill="white" transform="translate(0.629883)"/>
</clipPath>
</defs>
</svg>
