<svg width="25" height="24" viewBox="0 0 25 24" fill="none" xmlns="http://www.w3.org/2000/svg">
<g clip-path="url(#clip0_138_2000)">
<g clip-path="url(#clip1_138_2000)">
<path d="M4.12012 12.3936C4.12012 8.32128 4.12012 6.28416 5.3854 5.01888C6.65068 3.7536 8.6878 3.7536 12.7601 3.7536C16.8334 3.7536 18.8696 3.7536 20.1348 5.01888C21.4001 6.28416 21.4001 8.32128 21.4001 12.3936C21.4001 16.4669 21.4001 18.503 20.1348 19.7683C18.8696 21.0336 16.8324 21.0336 12.7601 21.0336C8.68684 21.0336 6.65068 21.0336 5.3854 19.7683C4.12012 18.503 4.12012 16.4659 4.12012 12.3936Z" stroke="#252525" stroke-width="1.44" stroke-linejoin="round"/>
<path d="M16.8568 12.3879C16.8568 12.9253 16.751 13.4576 16.5453 13.9542C16.3396 14.4507 16.0381 14.9019 15.658 15.282C15.278 15.6621 14.8267 15.9636 14.3302 16.1693C13.8336 16.3749 13.3014 16.4808 12.7639 16.4808C12.2264 16.4808 11.6941 16.3749 11.1976 16.1693C10.701 15.9636 10.2498 15.6621 9.8697 15.282C9.48963 14.9019 9.18815 14.4507 8.98246 13.9542C8.77677 13.4576 8.6709 12.9253 8.6709 12.3879C8.6709 11.3023 9.10212 10.2613 9.8697 9.49369C10.6373 8.72611 11.6783 8.29489 12.7639 8.29489C13.8494 8.29489 14.8904 8.72611 15.658 9.49369C16.4256 10.2613 16.8568 11.3023 16.8568 12.3879Z" stroke="#252525" stroke-width="1.44"/>
<path d="M17.7687 7.392H17.7607" stroke="#252525" stroke-width="1.8" stroke-linecap="round" stroke-linejoin="round"/>
</g>
</g>
<defs>
<clipPath id="clip0_138_2000">
<rect width="24" height="24" fill="white" transform="translate(0.759766)"/>
</clipPath>
<clipPath id="clip1_138_2000">
<rect width="24" height="24" fill="white" transform="translate(0.759766)"/>
</clipPath>
</defs>
</svg>
