<svg width="25" height="24" viewBox="0 0 25 24" fill="none" xmlns="http://www.w3.org/2000/svg">
<g clip-path="url(#clip0_138_2016)">
<g clip-path="url(#clip1_138_2016)">
<path d="M12.5409 9.59904L6.78089 23.039M9.81737 16.704C11.2797 17.3521 12.9253 17.4574 14.4583 17.0009C15.9913 16.5443 17.3112 15.5559 18.1807 14.2134C19.0502 12.8708 19.4123 11.2621 19.2019 9.67644C18.9915 8.09079 18.2224 6.63219 17.0329 5.56284C15.8433 4.49349 14.3113 3.88353 12.7123 3.8426C11.1133 3.80166 9.55208 4.33245 8.30937 5.33954C7.06666 6.34662 6.22393 7.76396 5.93267 9.33677C5.64141 10.9096 5.92073 12.5347 6.72041 13.92" stroke="#252525" stroke-width="1.44" stroke-linecap="round" stroke-linejoin="round"/>
</g>
</g>
<defs>
<clipPath id="clip0_138_2016">
<rect width="24" height="24" fill="white" transform="translate(0.540039)"/>
</clipPath>
<clipPath id="clip1_138_2016">
<rect width="24" height="24" fill="white" transform="translate(0.540039)"/>
</clipPath>
</defs>
</svg>
