<svg width="24" height="25" viewBox="0 0 24 25" fill="none" xmlns="http://www.w3.org/2000/svg">
<g clip-path="url(#clip0_203_4346)">
<g clip-path="url(#clip1_203_4346)">
<path d="M4 7.47998H7C7.26522 7.47998 7.51957 7.37462 7.70711 7.18709C7.89464 6.99955 8 6.7452 8 6.47998V5.47998C8 4.94955 8.21071 4.44084 8.58579 4.06577C8.96086 3.69069 9.46957 3.47998 10 3.47998C10.5304 3.47998 11.0391 3.69069 11.4142 4.06577C11.7893 4.44084 12 4.94955 12 5.47998V6.47998C12 6.7452 12.1054 6.99955 12.2929 7.18709C12.4804 7.37462 12.7348 7.47998 13 7.47998H16C16.2652 7.47998 16.5196 7.58534 16.7071 7.77287C16.8946 7.96041 17 8.21476 17 8.47998V11.48C17 11.7452 17.1054 11.9996 17.2929 12.1871C17.4804 12.3746 17.7348 12.48 18 12.48H19C19.5304 12.48 20.0391 12.6907 20.4142 13.0658C20.7893 13.4409 21 13.9496 21 14.48C21 15.0104 20.7893 15.5191 20.4142 15.8942C20.0391 16.2693 19.5304 16.48 19 16.48H18C17.7348 16.48 17.4804 16.5854 17.2929 16.7729C17.1054 16.9604 17 17.2148 17 17.48V20.48C17 20.7452 16.8946 20.9996 16.7071 21.1871C16.5196 21.3746 16.2652 21.48 16 21.48H13C12.7348 21.48 12.4804 21.3746 12.2929 21.1871C12.1054 20.9996 12 20.7452 12 20.48V19.48C12 18.9496 11.7893 18.4409 11.4142 18.0658C11.0391 17.6907 10.5304 17.48 10 17.48C9.46957 17.48 8.96086 17.6907 8.58579 18.0658C8.21071 18.4409 8 18.9496 8 19.48V20.48C8 20.7452 7.89464 20.9996 7.70711 21.1871C7.51957 21.3746 7.26522 21.48 7 21.48H4C3.73478 21.48 3.48043 21.3746 3.29289 21.1871C3.10536 20.9996 3 20.7452 3 20.48V17.48C3 17.2148 3.10536 16.9604 3.29289 16.7729C3.48043 16.5854 3.73478 16.48 4 16.48H5C5.53043 16.48 6.03914 16.2693 6.41421 15.8942C6.78929 15.5191 7 15.0104 7 14.48C7 13.9496 6.78929 13.4409 6.41421 13.0658C6.03914 12.6907 5.53043 12.48 5 12.48H4C3.73478 12.48 3.48043 12.3746 3.29289 12.1871C3.10536 11.9996 3 11.7452 3 11.48V8.47998C3 8.21476 3.10536 7.96041 3.29289 7.77287C3.48043 7.58534 3.73478 7.47998 4 7.47998Z" stroke="#38C793" stroke-width="2" stroke-linecap="round" stroke-linejoin="round"/>
</g>
</g>
<defs>
<clipPath id="clip0_203_4346">
<rect width="24" height="24" fill="white" transform="translate(0 0.47998)"/>
</clipPath>
<clipPath id="clip1_203_4346">
<rect width="24" height="24" fill="white" transform="translate(0 0.47998)"/>
</clipPath>
</defs>
</svg>
