<svg width="72" height="72" viewBox="0 0 72 72" fill="none" xmlns="http://www.w3.org/2000/svg">
<g clip-path="url(#clip0_103_2604)">
<g clip-path="url(#clip1_103_2604)">
<g clip-path="url(#clip2_103_2604)">
<path d="M36 72C55.8823 72 72 55.8823 72 36C72 16.1177 55.8823 0 36 0C16.1177 0 0 16.1177 0 36C0 55.8823 16.1177 72 36 72Z" fill="#FF5E15" fill-opacity="0.3"/>
<path d="M36 64C51.464 64 64 51.464 64 36C64 20.536 51.464 8 36 8C20.536 8 8 20.536 8 36C8 51.464 20.536 64 36 64Z" fill="#FF5E15"/>
<path d="M28.7134 31.1281L28.4668 31.6938C28.2864 32.1079 27.7136 32.1079 27.5331 31.6938L27.2866 31.1281C26.8471 30.1195 26.0554 29.3164 25.0677 28.8771L24.308 28.5392C23.8973 28.3565 23.8973 27.7588 24.308 27.5761L25.0252 27.2571C26.0384 26.8065 26.8442 25.9737 27.2761 24.9308L27.5293 24.3195C27.7058 23.8935 28.2942 23.8935 28.4706 24.3195L28.7238 24.9308C29.1558 25.9737 29.9616 26.8065 30.9748 27.2571L31.6919 27.5761C32.1027 27.7588 32.1027 28.3565 31.6919 28.5392L30.9323 28.8771C29.9445 29.3164 29.1529 30.1195 28.7134 31.1281ZM27.0636 45.6132C28.0885 39.422 30.3111 25.9966 45 25.9966C43.5042 28.9966 42.5 30.4966 41.5 31.4966L40.5 32.4966L42 33.4966C41 36.4966 38 39.9966 34 40.4966C31.3315 40.8301 29.6642 42.6635 28.9982 45.9966H27C27.0207 45.8722 27.0419 45.7443 27.0636 45.6132Z" fill="white"/>
</g>
</g>
</g>
<defs>
<clipPath id="clip0_103_2604">
<rect width="72" height="72" fill="white"/>
</clipPath>
<clipPath id="clip1_103_2604">
<rect width="72" height="72" fill="white"/>
</clipPath>
<clipPath id="clip2_103_2604">
<rect width="72" height="72" fill="white"/>
</clipPath>
</defs>
</svg>
