<svg width="21" height="21" viewBox="0 0 21 21" fill="none" xmlns="http://www.w3.org/2000/svg">
<g clip-path="url(#clip0_203_4716)">
<g clip-path="url(#clip1_203_4716)">
<path d="M2.09961 5.63086L7.85961 8.89486C9.98461 10.0979 10.8816 10.0979 13.0056 8.89486L18.7656 5.63086" stroke="#252525" stroke-width="1.5" stroke-linejoin="round"/>
<path d="M2.11272 11.8579C2.16772 14.4129 2.19472 15.6899 3.13672 16.6359C4.07972 17.5819 5.39172 17.6159 8.01572 17.6809C9.63272 17.7209 11.2337 17.7209 12.8507 17.6809C15.4747 17.6149 16.7867 17.5819 17.7287 16.6359C18.6717 15.6899 18.6987 14.4129 18.7527 11.8579C18.7702 11.038 18.7702 10.2178 18.7527 9.39788C18.6997 6.84488 18.6727 5.56788 17.7297 4.62188C16.7877 3.67488 15.4757 3.64188 12.8517 3.57588C11.2403 3.53525 9.62813 3.53525 8.01672 3.57588C5.39272 3.64188 4.08072 3.67588 3.13772 4.62188C2.19572 5.56788 2.16772 6.84488 2.11372 9.39988C2.09621 10.2195 2.09621 11.0393 2.11372 11.8589L2.11272 11.8579Z" stroke="#252525" stroke-width="1.5" stroke-linejoin="round"/>
</g>
</g>
<defs>
<clipPath id="clip0_203_4716">
<rect width="20" height="20" fill="white" transform="translate(0.0996094 0.544922)"/>
</clipPath>
<clipPath id="clip1_203_4716">
<rect width="20" height="20" fill="white" transform="translate(0.0996094 0.544922)"/>
</clipPath>
</defs>
</svg>
