<svg width="53" height="53" viewBox="0 0 53 53" fill="none" xmlns="http://www.w3.org/2000/svg">
<g clip-path="url(#clip0_203_4402)">
<g clip-path="url(#clip1_203_4402)">
<path d="M40.5597 0.71106H13.088C6.58567 0.71106 1.31445 5.98227 1.31445 12.4846V39.9563C1.31445 46.4587 6.58567 51.7299 13.088 51.7299H40.5597C47.0621 51.7299 52.3333 46.4587 52.3333 39.9563V12.4846C52.3333 5.98227 47.0621 0.71106 40.5597 0.71106Z" fill="#FF5E15"/>
<path d="M18.9753 26.2205V20.3337C18.9753 19.8133 19.182 19.3142 19.55 18.9462C19.918 18.5782 20.4171 18.3715 20.9375 18.3715H32.7111C33.2315 18.3715 33.7306 18.5782 34.0986 18.9462C34.4667 19.3142 34.6734 19.8133 34.6734 20.3337V26.2205M24.8621 32.1073H17.9941M17.9941 32.1073L20.9375 29.1639M17.9941 32.1073L20.9375 35.0507M35.6545 32.1073H28.7866M35.6545 32.1073L32.7111 29.1639M35.6545 32.1073L32.7111 35.0507" stroke="white" stroke-width="1.96226" stroke-linecap="round" stroke-linejoin="round"/>
</g>
</g>
<defs>
<clipPath id="clip0_203_4402">
<rect width="52" height="52" fill="white" transform="translate(0.660156 0.220459)"/>
</clipPath>
<clipPath id="clip1_203_4402">
<rect width="52" height="51.0189" fill="white" transform="translate(0.660156 0.71106)"/>
</clipPath>
</defs>
</svg>
