<svg width="52" height="53" viewBox="0 0 52 53" fill="none" xmlns="http://www.w3.org/2000/svg">
<g clip-path="url(#clip0_203_4393)">
<g clip-path="url(#clip1_203_4393)">
<path d="M40 0.220459H12C5.37258 0.220459 0 5.59304 0 12.2205V40.2205C0 46.8479 5.37258 52.2205 12 52.2205H40C46.6274 52.2205 52 46.8479 52 40.2205V12.2205C52 5.59304 46.6274 0.220459 40 0.220459Z" fill="#FF5E15"/>
<path d="M27 27.2205V23.2205C27 22.9553 27.1054 22.7009 27.2929 22.5134C27.4804 22.3259 27.7348 22.2205 28 22.2205H34C34.2652 22.2205 34.5196 22.3259 34.7071 22.5134C34.8946 22.7009 35 22.9553 35 23.2205V25.7205M32 22.2205V19.2205C32 18.9553 31.8946 18.7009 31.7071 18.5134C31.5196 18.3259 31.2652 18.2205 31 18.2205H18C17.7348 18.2205 17.4804 18.3259 17.2929 18.5134C17.1054 18.7009 17 18.9553 17 19.2205V31.2205C17 31.4857 17.1054 31.7401 17.2929 31.9276C17.4804 32.1151 17.7348 32.2205 18 32.2205H23.5M30 23.2205H32M31.8002 35.0375L29.6282 36.1755C29.5638 36.2091 29.4913 36.224 29.4188 36.2187C29.3463 36.2135 29.2767 36.1882 29.2178 36.1456C29.1589 36.1031 29.113 36.045 29.0851 35.9779C29.0573 35.9108 29.0487 35.8372 29.0602 35.7655L29.4752 33.3545L27.7182 31.6475C27.6658 31.5968 27.6287 31.5324 27.6111 31.4616C27.5935 31.3908 27.5962 31.3165 27.6188 31.2472C27.6414 31.1778 27.6831 31.1162 27.7391 31.0694C27.795 31.0226 27.863 30.9925 27.9352 30.9825L30.3632 30.6305L31.4492 28.4375C31.4817 28.3722 31.5318 28.3172 31.5938 28.2788C31.6558 28.2404 31.7273 28.22 31.8002 28.22C31.8732 28.22 31.9447 28.2404 32.0067 28.2788C32.0687 28.3172 32.1188 28.3722 32.1512 28.4375L33.2372 30.6305L35.6652 30.9825C35.7373 30.9929 35.805 31.0232 35.8607 31.07C35.9164 31.1169 35.9579 31.1784 35.9805 31.2475C36.003 31.3167 36.0058 31.3909 35.9885 31.4615C35.9711 31.5322 35.9343 31.5966 35.8822 31.6475L34.1252 33.3545L34.5392 35.7645C34.5517 35.8364 34.5437 35.9103 34.5162 35.9778C34.4887 36.0454 34.4429 36.1039 34.3838 36.1467C34.3248 36.1895 34.2549 36.2149 34.1822 36.22C34.1094 36.2251 34.0367 36.2097 33.9722 36.1755L31.8002 35.0375Z" stroke="white" stroke-width="2" stroke-linecap="round" stroke-linejoin="round"/>
</g>
</g>
<defs>
<clipPath id="clip0_203_4393">
<rect width="52" height="52" fill="white" transform="translate(0 0.220459)"/>
</clipPath>
<clipPath id="clip1_203_4393">
<rect width="52" height="52" fill="white" transform="translate(0 0.220459)"/>
</clipPath>
</defs>
</svg>
