<svg width="52" height="53" viewBox="0 0 52 53" fill="none" xmlns="http://www.w3.org/2000/svg">
<g clip-path="url(#clip0_203_4429)">
<g clip-path="url(#clip1_203_4429)">
<g clip-path="url(#clip2_203_4429)">
<path d="M42 0.779785H10C4.47715 0.779785 0 5.25694 0 10.7798V42.7798C0 48.3026 4.47715 52.7798 10 52.7798H42C47.5228 52.7798 52 48.3026 52 42.7798V10.7798C52 5.25694 47.5228 0.779785 42 0.779785Z" fill="#265A92"/>
<path d="M23 33.7798V27.7798C23 27.5146 22.8946 27.2602 22.7071 27.0727C22.5196 26.8852 22.2652 26.7798 22 26.7798H18C17.7348 26.7798 17.4804 26.8852 17.2929 27.0727C17.1054 27.2602 17 27.5146 17 27.7798V33.7798C17 34.045 17.1054 34.2994 17.2929 34.4869C17.4804 34.6744 17.7348 34.7798 18 34.7798M23 33.7798C23 34.045 22.8946 34.2994 22.7071 34.4869C22.5196 34.6744 22.2652 34.7798 22 34.7798H18M23 33.7798C23 34.045 23.1054 34.2994 23.2929 34.4869C23.4804 34.6744 23.7348 34.7798 24 34.7798H28C28.2652 34.7798 28.5196 34.6744 28.7071 34.4869C28.8946 34.2994 29 34.045 29 33.7798M23 33.7798V23.7798C23 23.5146 23.1054 23.2602 23.2929 23.0727C23.4804 22.8852 23.7348 22.7798 24 22.7798H28C28.2652 22.7798 28.5196 22.8852 28.7071 23.0727C28.8946 23.2602 29 23.5146 29 23.7798V33.7798M18 34.7798H32M29 33.7798C29 34.045 29.1054 34.2994 29.2929 34.4869C29.4804 34.6744 29.7348 34.7798 30 34.7798H34C34.2652 34.7798 34.5196 34.6744 34.7071 34.4869C34.8946 34.2994 35 34.045 35 33.7798V19.7798C35 19.5146 34.8946 19.2602 34.7071 19.0727C34.5196 18.8852 34.2652 18.7798 34 18.7798H30C29.7348 18.7798 29.4804 18.8852 29.2929 19.0727C29.1054 19.2602 29 19.5146 29 19.7798V33.7798Z" stroke="white" stroke-width="2" stroke-linecap="round" stroke-linejoin="round"/>
</g>
</g>
</g>
<defs>
<clipPath id="clip0_203_4429">
<rect width="52" height="52" fill="white" transform="translate(0 0.779785)"/>
</clipPath>
<clipPath id="clip1_203_4429">
<rect width="52" height="52" fill="white" transform="translate(0 0.779785)"/>
</clipPath>
<clipPath id="clip2_203_4429">
<rect width="52" height="52" fill="white" transform="translate(0 0.779785)"/>
</clipPath>
</defs>
</svg>
