<svg width="21" height="21" viewBox="0 0 21 21" fill="none" xmlns="http://www.w3.org/2000/svg">
<g clip-path="url(#clip0_203_4740)">
<g clip-path="url(#clip1_203_4740)">
<g clip-path="url(#clip2_203_4740)">
<path d="M11.2714 4.5789L17.1044 10.4119M12.1604 4.4859C12.7814 3.8129 13.0924 3.4769 13.4224 3.2809C13.8121 3.04812 14.2562 2.92188 14.7101 2.91486C15.164 2.90784 15.6117 3.02028 16.0084 3.2409C16.3434 3.4279 16.6634 3.7549 17.3034 4.4089C17.9434 5.0629 18.2634 5.3889 18.4464 5.7319C18.8864 6.5589 18.8714 7.5609 18.4084 8.3739C18.2154 8.7109 17.8864 9.0279 17.2284 9.6629L9.39142 17.2099C8.14342 18.4119 7.51942 19.0129 6.73942 19.3179C5.95942 19.6229 5.10242 19.5999 3.38742 19.5559L3.15342 19.5489C2.63142 19.5359 2.37042 19.5289 2.21942 19.3569C2.06742 19.1849 2.08842 18.9189 2.12942 18.3869L2.15242 18.0979C2.26842 16.6009 2.32642 15.8529 2.61942 15.1799C2.91142 14.5069 3.41542 13.9609 4.42442 12.8689L12.1594 4.4849L12.1604 4.4859Z" stroke="#252525" stroke-width="1.5" stroke-linejoin="round"/>
<path d="M12.0996 19.5791H18.7666" stroke="#252525" stroke-width="1.5" stroke-linecap="round" stroke-linejoin="round"/>
</g>
</g>
</g>
<defs>
<clipPath id="clip0_203_4740">
<rect width="20" height="20" fill="white" transform="translate(0.0996094 0.915039)"/>
</clipPath>
<clipPath id="clip1_203_4740">
<rect width="20" height="20" fill="white" transform="translate(0.0996094 0.915039)"/>
</clipPath>
<clipPath id="clip2_203_4740">
<rect width="20" height="20" fill="white" transform="translate(0.0996094 0.915039)"/>
</clipPath>
</defs>
</svg>
