<svg width="21" height="21" viewBox="0 0 21 21" fill="none" xmlns="http://www.w3.org/2000/svg">
<g clip-path="url(#clip0_203_4728)">
<g clip-path="url(#clip1_203_4728)">
<g clip-path="url(#clip2_203_4728)">
<path d="M3.58043 11.01C2.79043 9.63303 2.40943 8.50803 2.17943 7.36803C1.83943 5.68103 2.61743 4.03403 3.90743 2.98303C4.45243 2.53903 5.07743 2.69003 5.39943 3.26903L6.12743 4.57403C6.70343 5.60903 6.99243 6.12603 6.93543 6.67403C6.87743 7.22403 6.48843 7.67003 5.71143 8.56403L3.58143 11.01H3.58043ZM3.58043 11.01C5.18043 13.799 7.68943 16.31 10.4804 17.91M10.4804 17.91C11.8584 18.7 12.9834 19.082 14.1234 19.312C15.8094 19.652 17.4574 18.873 18.5084 17.584C18.9524 17.039 18.8004 16.414 18.2224 16.092L16.9174 15.364C15.8824 14.787 15.3644 14.499 14.8164 14.556C14.2674 14.613 13.8214 15.002 12.9274 15.78L10.4804 17.91Z" stroke="#252525" stroke-width="1.5" stroke-linejoin="round"/>
<path d="M12.0996 6.7521C13.2877 7.25795 14.2338 8.20406 14.7396 9.3921M12.6446 2.7251C14.0982 3.14679 15.4216 3.92904 16.4919 4.99917C17.5622 6.0693 18.3447 7.39259 18.7666 8.8461" stroke="#252525" stroke-width="1.5" stroke-linecap="round"/>
</g>
</g>
</g>
<defs>
<clipPath id="clip0_203_4728">
<rect width="20" height="20" fill="white" transform="translate(0.0996094 0.725098)"/>
</clipPath>
<clipPath id="clip1_203_4728">
<rect width="20" height="20" fill="white" transform="translate(0.0996094 0.725098)"/>
</clipPath>
<clipPath id="clip2_203_4728">
<rect width="20" height="20" fill="white" transform="translate(0.0996094 0.725098)"/>
</clipPath>
</defs>
</svg>
