<svg width="53" height="53" viewBox="0 0 53 53" fill="none" xmlns="http://www.w3.org/2000/svg">
<g clip-path="url(#clip0_203_4411)">
<g clip-path="url(#clip1_203_4411)">
<path d="M39.9015 0.71106H12.4298C5.92746 0.71106 0.65625 5.98227 0.65625 12.4846V39.9563C0.65625 46.4587 5.92746 51.7299 12.4298 51.7299H39.9015C46.4039 51.7299 51.6751 46.4587 51.6751 39.9563V12.4846C51.6751 5.98227 46.4039 0.71106 39.9015 0.71106Z" fill="#FF5E15"/>
<path d="M34.9817 26.7288C35.0847 24.9413 34.642 23.1646 33.7121 21.6346C32.7822 20.1045 31.4091 18.8932 29.775 18.1615C28.1408 17.4296 26.3229 17.2119 24.5621 17.5372C22.8014 17.8624 21.1811 18.7152 19.9163 19.9825C18.6514 21.2498 17.8017 22.8716 17.4798 24.6329C17.1579 26.3942 17.3791 28.2119 18.1138 29.8446C18.8487 31.4773 20.0626 32.8481 21.5944 33.7751C23.1262 34.7021 24.9038 35.1415 26.6911 35.0351M17.9247 23.2772H34.4077M17.9247 29.164H29.1096M25.6754 17.3904C24.0226 20.0391 23.1463 23.0985 23.1463 26.2206C23.1463 29.3427 24.0226 32.4021 25.6754 35.0508M26.6567 17.3904C28.8748 20.9439 29.6744 25.202 28.8966 29.318M30.0906 33.0885H35.9774M33.034 30.1451V36.0319" stroke="white" stroke-width="1.96226" stroke-linecap="round" stroke-linejoin="round"/>
</g>
</g>
<defs>
<clipPath id="clip0_203_4411">
<rect width="52" height="52" fill="white" transform="translate(0.330078 0.220459)"/>
</clipPath>
<clipPath id="clip1_203_4411">
<rect width="52" height="51.0189" fill="white" transform="translate(0.330078 0.71106)"/>
</clipPath>
</defs>
</svg>
