<svg width="53" height="53" viewBox="0 0 53 53" fill="none" xmlns="http://www.w3.org/2000/svg">
<g clip-path="url(#clip0_203_4384)">
<g clip-path="url(#clip1_203_4384)">
<path d="M39.9015 0.71106H12.4298C5.92746 0.71106 0.65625 5.98227 0.65625 12.4846V39.9563C0.65625 46.4587 5.92746 51.7299 12.4298 51.7299H39.9015C46.4039 51.7299 51.6751 46.4587 51.6751 39.9563V12.4846C51.6751 5.98227 46.4039 0.71106 39.9015 0.71106Z" fill="#FF5E15"/>
<path d="M18.3171 20.3337C18.3171 20.854 18.5238 21.3531 18.8918 21.7212C19.2598 22.0892 19.7589 22.2959 20.2793 22.2959M18.3171 20.3337C18.3171 19.8133 18.5238 19.3142 18.8918 18.9461C19.2598 18.5781 19.7589 18.3714 20.2793 18.3714M18.3171 20.3337H17.3359M20.2793 22.2959C20.7997 22.2959 21.2988 22.0892 21.6669 21.7212C22.0349 21.3531 22.2416 20.854 22.2416 20.3337M20.2793 22.2959V30.145M20.2793 18.3714C20.7997 18.3714 21.2988 18.5781 21.6669 18.9461C22.0349 19.3142 22.2416 19.8133 22.2416 20.3337M20.2793 18.3714V17.3903M22.2416 20.3337H34.9963M20.2793 30.145C19.7589 30.145 19.2598 30.3517 18.8918 30.7197C18.5238 31.0877 18.3171 31.5868 18.3171 32.1072M20.2793 30.145C20.7997 30.145 21.2988 30.3517 21.6669 30.7197C22.0349 31.0877 22.2416 31.5868 22.2416 32.1072M24.2039 26.2204C24.2039 26.7408 24.4106 27.2399 24.7786 27.608C25.1466 27.976 25.6457 28.1827 26.1661 28.1827M24.2039 26.2204C24.2039 25.7001 24.4106 25.201 24.7786 24.8329C25.1466 24.4649 25.6457 24.2582 26.1661 24.2582M24.2039 26.2204H17.3359M26.1661 28.1827C26.6865 28.1827 27.1856 27.976 27.5536 27.608C27.9217 27.2399 28.1284 26.7408 28.1284 26.2204M26.1661 28.1827V35.0506M26.1661 24.2582C26.6865 24.2582 27.1856 24.4649 27.5536 24.8329C27.9217 25.201 28.1284 25.7001 28.1284 26.2204M26.1661 24.2582V17.3903M28.1284 26.2204H34.9963M18.3171 32.1072C18.3171 32.6276 18.5238 33.1267 18.8918 33.4948C19.2598 33.8628 19.7589 34.0695 20.2793 34.0695M18.3171 32.1072H17.3359M20.2793 34.0695C20.7997 34.0695 21.2988 33.8628 21.6669 33.4948C22.0349 33.1267 22.2416 32.6276 22.2416 32.1072M20.2793 34.0695V35.0506M22.2416 32.1072H30.0907M30.0907 32.1072C30.0907 32.6276 30.2974 33.1267 30.6654 33.4948C31.0334 33.8628 31.5325 34.0695 32.0529 34.0695M30.0907 32.1072C30.0907 31.5868 30.2974 31.0877 30.6654 30.7197C31.0334 30.3517 31.5325 30.145 32.0529 30.145M32.0529 34.0695C32.5733 34.0695 33.0724 33.8628 33.4404 33.4948C33.8085 33.1267 34.0152 32.6276 34.0152 32.1072M32.0529 34.0695V35.0506M32.0529 30.145C32.5733 30.145 33.0724 30.3517 33.4404 30.7197C33.8085 31.0877 34.0152 31.5868 34.0152 32.1072M32.0529 30.145V17.3903M34.0152 32.1072H34.9963" stroke="white" stroke-width="1.96226" stroke-linecap="round" stroke-linejoin="round"/>
</g>
</g>
<defs>
<clipPath id="clip0_203_4384">
<rect width="52" height="52" fill="white" transform="translate(0.330078 0.220459)"/>
</clipPath>
<clipPath id="clip1_203_4384">
<rect width="52" height="51.0189" fill="white" transform="translate(0.330078 0.71106)"/>
</clipPath>
</defs>
</svg>
