<svg width="53" height="53" viewBox="0 0 53 53" fill="none" xmlns="http://www.w3.org/2000/svg">
<g clip-path="url(#clip0_203_4374)">
<g clip-path="url(#clip1_203_4374)">
<g clip-path="url(#clip2_203_4374)">
<path d="M40.5597 0.71106H13.088C6.58567 0.71106 1.31445 5.98227 1.31445 12.4846V39.9563C1.31445 46.4587 6.58567 51.7299 13.088 51.7299H40.5597C47.0621 51.7299 52.3333 46.4587 52.3333 39.9563V12.4846C52.3333 5.98227 47.0621 0.71106 40.5597 0.71106Z" fill="#FF5E15"/>
<path d="M30.7489 32.1073C31.2692 32.1073 31.7684 32.314 32.1364 32.6821C32.5044 33.0501 32.7111 33.5492 32.7111 34.0696C32.7111 33.5492 32.9178 33.0501 33.2859 32.6821C33.6539 32.314 34.153 32.1073 34.6734 32.1073C34.153 32.1073 33.6539 31.9006 33.2859 31.5326C32.9178 31.1645 32.7111 30.6654 32.7111 30.145C32.7111 30.6654 32.5044 31.1645 32.1364 31.5326C31.7684 31.9006 31.2692 32.1073 30.7489 32.1073ZM30.7489 20.3337C31.2692 20.3337 31.7684 20.5404 32.1364 20.9085C32.5044 21.2765 32.7111 21.7756 32.7111 22.296C32.7111 21.7756 32.9178 21.2765 33.2859 20.9085C33.6539 20.5404 34.153 20.3337 34.6734 20.3337C34.153 20.3337 33.6539 20.127 33.2859 19.759C32.9178 19.391 32.7111 18.8919 32.7111 18.3715C32.7111 18.8919 32.5044 19.391 32.1364 19.759C31.7684 20.127 31.2692 20.3337 30.7489 20.3337ZM23.8809 32.1073C23.8809 30.546 24.5011 29.0487 25.6052 27.9448C26.7091 26.8407 28.2064 26.2205 29.7677 26.2205C28.2064 26.2205 26.7091 25.6003 25.6052 24.4963C24.5011 23.3923 23.8809 21.895 23.8809 20.3337C23.8809 21.895 23.2608 23.3923 22.1567 24.4963C21.0527 25.6003 19.5554 26.2205 17.9941 26.2205C19.5554 26.2205 21.0527 26.8407 22.1567 27.9448C23.2608 29.0487 23.8809 30.546 23.8809 32.1073Z" stroke="white" stroke-width="1.96226" stroke-linecap="round" stroke-linejoin="round"/>
</g>
</g>
</g>
<defs>
<clipPath id="clip0_203_4374">
<rect x="0.660156" y="0.220459" width="52" height="52" rx="12" fill="white"/>
</clipPath>
<clipPath id="clip1_203_4374">
<rect width="52" height="52" fill="white" transform="translate(0.660156 0.220459)"/>
</clipPath>
<clipPath id="clip2_203_4374">
<rect width="52" height="51.0189" fill="white" transform="translate(0.660156 0.71106)"/>
</clipPath>
</defs>
</svg>
