<svg width="21" height="21" viewBox="0 0 21 21" fill="none" xmlns="http://www.w3.org/2000/svg">
<g clip-path="url(#clip0_203_4704)">
<g clip-path="url(#clip1_203_4704)">
<path d="M6.08065 13.5901C4.90165 14.2921 1.81065 15.7251 3.69365 17.5191C4.61365 18.3951 5.63765 19.0221 6.92565 19.0221H14.2737C15.5617 19.0221 16.5857 18.3951 17.5057 17.5191C19.3887 15.7251 16.2977 14.2921 15.1187 13.5891C13.7499 12.7807 12.1893 12.3542 10.5997 12.3542C9.00998 12.3542 7.44941 12.7817 6.08065 13.5901Z" stroke="#252525" stroke-width="1.5" stroke-linecap="round" stroke-linejoin="round"/>
<path d="M14.3496 6.10522C14.3496 6.59768 14.2526 7.08532 14.0642 7.54029C13.8757 7.99526 13.5995 8.40866 13.2513 8.75688C12.903 9.10509 12.4896 9.38132 12.0347 9.56977C11.5797 9.75823 11.0921 9.85522 10.5996 9.85522C10.1072 9.85522 9.61952 9.75823 9.16455 9.56977C8.70958 9.38132 8.29618 9.10509 7.94796 8.75688C7.59974 8.40866 7.32352 7.99526 7.13506 7.54029C6.94661 7.08532 6.84961 6.59768 6.84961 6.10522C6.84961 5.11066 7.2447 4.15684 7.94796 3.45357C8.65122 2.75031 9.60505 2.35522 10.5996 2.35522C11.5942 2.35522 12.548 2.75031 13.2513 3.45357C13.9545 4.15684 14.3496 5.11066 14.3496 6.10522Z" stroke="#252525" stroke-width="1.5"/>
</g>
</g>
<defs>
<clipPath id="clip0_203_4704">
<rect width="20" height="20" fill="white" transform="translate(0.0996094 0.355225)"/>
</clipPath>
<clipPath id="clip1_203_4704">
<rect width="20" height="20" fill="white" transform="translate(0.0996094 0.355225)"/>
</clipPath>
</defs>
</svg>
